<?xml version="1.0" encoding="UTF-8"?>
<!DOCTYPE svg  PUBLIC '-//W3C//DTD SVG 1.1//EN'  'http://www.w3.org/Graphics/SVG/1.1/DTD/svg11.dtd'>
<svg version="1.1" xmlns="http://www.w3.org/2000/svg">
<defs>
<font id="FzPoppins-LightItalic" horiz-adv-x="675">
<font-face font-family="Fz Poppins Light" font-style="italic" font-weight="300" ascent="800" bbox="-72 -268 1118 954" cap-height="699" descent="-200" panose-1="0 0 0 0 0 0 0 0 0 0" slope="-10" underline-position="-100" underline-thickness="50" unicode-range="U+0020-02DC" units-per-em="1000" x-height="546"/>
<missing-glyph/>
<glyph glyph-name="space" horiz-adv-x="274" unicode=" "/>
<glyph d="M297 699l-99 -514h-59l82 514h76zM138 -5q-22 0 -32.5 13t-10.5 28q0 6 1 11q4 22 21 36.5t39 14.5q21 0 31.5 -12.5t10.5 -27.5q0 -5 -1 -11q-4 -22 -21 -37t-38 -15z" glyph-name="exclam" horiz-adv-x="277" unicode="!"/>
<glyph d="M246 795l-44 -193h-49l24 193h69zM366 795l-43 -193h-49l23 193h69z" glyph-name="quotedbl" horiz-adv-x="264" unicode='"'/>
<glyph d="M683 461l-71 -185h143l-11 -62h-156l-84 -214h-67l84 214h-222l-84 -214h-67l84 214h-159l11 62h172l71 185h-156l11 62h170l84 217h67l-84 -217h222l84 217h67l-84 -217h145l-11 -62h-159zM616 461h-222l-71 -185h222z" glyph-name="numbersign" horiz-adv-x="812" unicode="#"/>
<glyph d="M544 184q-8 -47 -38.5 -89.5t-81.5 -70.5t-117 -31l-14 -80h-44l14 81q-88 8 -130 54.5t-42 105.5q0 12 1 24h75q-1 -6 -1 -12q0 -38 25 -72t82 -42l49 277q-64 18 -101 36t-55 49t-18 67q0 19 4 40q14 79 78 130.5t159 55.5l14 84h44l-15 -85q82 -8 122.5 -52.5 t40.5 -107.5v-9h-74q0 37 -25 69t-74 40l-47 -267q62 -17 100 -35.5t55.5 -49.5t17.5 -67q0 -20 -4 -43zM223 524q-2 -13 -2 -25q0 -38 25.5 -63t86.5 -44l45 257q-60 -3 -102 -35t-53 -90zM317 50q65 4 106 40.5t51 90.5q3 14 3 27q0 37 -26 62.5t-87 45.5z" glyph-name="dollar" horiz-adv-x="597" unicode="$"/>
<glyph d="M143 567q11 64 57.5 103.5t107.5 39.5q62 0 90.5 -34.5t28.5 -77.5q0 -15 -3 -31q-11 -65 -57.5 -104.5t-108.5 -39.5q-61 0 -89.5 34.5t-28.5 78.5q0 15 3 31zM726 700l-533 -700h-71l534 700h70zM300 665q-38 0 -65 -25.5t-35 -72.5q-2 -14 -2 -27q0 -28 15 -50t53 -22 t65.5 26t35.5 73q2 14 2 26q0 28 -15.5 50t-53.5 22zM426 133q12 65 58.5 104.5t107.5 39.5t89 -34t28 -77q0 -15 -3 -33q-11 -65 -57.5 -104.5t-107.5 -39.5t-89.5 34.5t-28.5 78.5q0 15 3 31zM584 231q-38 0 -65.5 -26t-36.5 -72q-2 -14 -2 -26q0 -28 15.5 -50t53.5 -22 t65 25.5t35 72.5q3 16 3 29q0 27 -15 48t-53 21z" glyph-name="percent" horiz-adv-x="726" unicode="%"/>
<glyph d="M612 0l-78 97q-61 -56 -123.5 -82.5t-135.5 -26.5q-70 0 -119.5 26.5t-67.5 66.5t-18 78q0 20 4 41q13 74 65 129t138 86q-28 39 -36 65.5t-8 48.5q0 15 3 31q12 67 67 108.5t135 41.5q75 0 109 -37t34 -82q0 -17 -4 -36h-70q2 12 2 23q0 29 -20.5 51.5t-63.5 22.5 q-46 0 -79 -25.5t-40 -65.5q-2 -10 -2 -21q0 -21 10.5 -46t40.5 -66l189 -233q18 19 49 60l83 107h75l-99 -131q-36 -47 -69 -84l120 -147h-91zM286 49q59 0 109.5 23t100.5 72l-183 226q-148 -51 -168 -168q-3 -15 -3 -29q0 -27 13 -55.5t47.5 -48.5t83.5 -20z" glyph-name="ampersand" horiz-adv-x="719" unicode="&amp;"/>
<glyph d="M250 795l-46 -193h-49l22 193h73z" glyph-name="quotesingle" horiz-adv-x="147" unicode="'"/>
<glyph d="M263 -186q-77 93 -98 201t-21 185q0 81 15 169q31 173 113 321t200 244h73l-2 -7q-125 -105 -206.5 -251t-109.5 -307q-14 -79 -14 -155q0 -75 21 -181.5t104 -211.5l-1 -7h-74z" glyph-name="parenleft" horiz-adv-x="420" unicode="("/>
<glyph d="M17 -186l1 7q121 105 199 247t106 301q14 78 14 153q0 79 -22.5 189.5t-111.5 215.5l2 7h73q84 -96 106.5 -206.5t22.5 -189.5q0 -81 -16 -169q-30 -171 -109.5 -316.5t-190.5 -238.5h-74z" glyph-name="parenright" horiz-adv-x="420" unicode=")"/>
<glyph d="M499 662l19 -51l-153 -64l131 -64l-38 -52l-114 86l-16 -157h-58l39 157l-144 -87l-21 53l153 64l-129 63l38 52l114 -87l16 157h59l-41 -157z" glyph-name="asterisk" horiz-adv-x="469" unicode="*"/>
<glyph d="M643 340h-223l-40 -225h-65l40 225h-222l11 60h222l39 225h65l-39 -225h223z" glyph-name="plus" horiz-adv-x="655" unicode="+"/>
<glyph d="M165 116l-151 -262h-48l121 262h78z" glyph-name="comma" horiz-adv-x="173" unicode=","/>
<glyph d="M490 400l-11 -59h-389l11 59h389z" glyph-name="hyphen" horiz-adv-x="519" unicode="-"/>
<glyph d="M91 -5q-22 0 -32.5 13t-10.5 28q0 6 1 11q4 22 21 36.5t39 14.5q21 0 31.5 -12.5t10.5 -27.5q0 -5 -1 -11q-4 -22 -21 -37t-38 -15z" glyph-name="period" horiz-adv-x="182" unicode="."/>
<glyph d="M557 940l-471 -1106h-69l469 1106h71z" glyph-name="slash" horiz-adv-x="441" unicode="/"/>
<glyph d="M129 365q31 172 100.5 267t206.5 95t165 -73t28 -147q0 -63 -14 -142q-30 -175 -100 -271t-207 -96q-138 0 -165.5 74t-27.5 149q0 64 14 144zM546 365q15 83 15 143q0 7 -1 42.5t-32 74.5t-103 39t-117 -39t-69 -103t-41 -157q-15 -86 -15 -147q0 -7 1 -42.5t32 -74.5 t103 -39t117 39t69 103.5t41 160.5z" glyph-name="zero" horiz-adv-x="616" unicode="0"/>
<glyph d="M146 654l11 63h170l-126 -717h-71l115 654h-99z" glyph-name="one" horiz-adv-x="292" unicode="1"/>
<glyph d="M61 55q208 138 328 247.5t138 214.5q4 21 4 40q0 42 -23 77t-101 35q-76 0 -126 -47.5t-69 -126.5h-68q26 111 99.5 172.5t174.5 61.5q97 0 140.5 -47.5t43.5 -113.5q0 -23 -4 -48q-22 -121 -142.5 -234.5t-286.5 -221.5h370l-10 -59h-477z" glyph-name="two" horiz-adv-x="572" unicode="2"/>
<glyph d="M156 534q23 91 96 143.5t174 52.5q67 0 110.5 -24t58 -58t14.5 -65q0 -17 -4 -36q-11 -63 -56 -109t-115 -57l-1 -5q69 -14 98 -55t29 -90q0 -19 -4 -41q-16 -86 -83 -140.5t-176 -54.5q-104 0 -158 51t-54 134q0 12 1 24h68v-9q0 -61 38.5 -101t115.5 -40q76 0 123.5 40 t58.5 102q3 16 3 31q0 121 -196 121h-22l11 59h23q204 0 227 133q2 14 2 27q0 40 -27.5 71t-97.5 31q-68 0 -119 -35.5t-70 -99.5h-68z" glyph-name="three" horiz-adv-x="585" unicode="3"/>
<glyph d="M64 170l9 53l451 490h83l-85 -482h107l-11 -61h-107l-30 -170h-69l30 170h-378zM527 636l-371 -405h300z" glyph-name="four" horiz-adv-x="613" unicode="4"/>
<glyph d="M633 657h-366l-45 -256q31 35 83 57.5t108 22.5q82 0 128 -33.5t56.5 -75t10.5 -73.5q0 -26 -5 -53q-12 -70 -48.5 -126.5t-97 -89.5t-141.5 -33q-103 0 -156.5 52.5t-53.5 139.5v6h69q2 -66 42.5 -102t109.5 -36q87 0 140.5 51.5t68.5 136.5q4 24 4 45q0 51 -31.5 91 t-115.5 40q-58 0 -106.5 -27t-77.5 -73h-66l70 397h431z" glyph-name="five" horiz-adv-x="617" unicode="5"/>
<glyph d="M573 542q0 130 -129 130q-98 0 -160 -76t-89 -249q31 60 93.5 94.5t135.5 34.5q105 0 148 -55.5t43 -125.5q0 -29 -6 -61q-11 -66 -46 -119.5t-93.5 -85.5t-136.5 -32q-149 0 -180 74t-31 152q0 61 14 138q65 370 319 370q96 0 139.5 -50.5t43.5 -125.5v-13h-65zM400 416 q-47 0 -92 -19t-78.5 -57.5t-43.5 -94.5q-4 -22 -4 -41q0 -54 33.5 -101t125.5 -47q77 0 131 47t69 128q4 25 4 47q0 54 -31 96t-114 42z" glyph-name="six" horiz-adv-x="629" unicode="6"/>
<glyph d="M611 662l-396 -662h-71l398 656h-400l10 60h468z" glyph-name="seven" horiz-adv-x="533" unicode="7"/>
<glyph d="M270 372q-59 20 -80 56.5t-21 74.5q0 17 3 36q10 54 45 96.5t92 67t131 24.5t123 -24.5t65.5 -60t16.5 -68.5q0 -17 -3 -35q-11 -60 -51 -104t-105 -63q65 -17 91 -58t26 -87q0 -18 -3 -37q-12 -64 -52 -111.5t-102 -73.5t-138 -26t-129 26t-72 65.5t-19 77.5q0 20 4 42 q12 69 59.5 117t118.5 65zM573 531q2 15 2 28q0 46 -34 78t-111 32t-128.5 -35.5t-62.5 -102.5q-2 -14 -2 -26q0 -44 35 -77t110 -33t127.5 37t63.5 99zM372 341q-82 0 -140.5 -37t-71.5 -112q-3 -17 -3 -32q0 -50 38 -86t124 -36q85 0 142 41.5t70 112.5q3 17 3 31 q0 51 -40 84.5t-122 33.5z" glyph-name="eight" horiz-adv-x="624" unicode="8"/>
<glyph d="M192 191v-4q0 -62 32.5 -96.5t100.5 -34.5q94 0 152.5 73.5t84.5 243.5q-29 -55 -88 -86.5t-128 -31.5q-105 0 -150.5 54.5t-45.5 125.5q0 27 6 58q12 67 47.5 121t94 85t135.5 31q142 0 173 -72.5t31 -151.5q0 -59 -13 -134q-33 -187 -105.5 -281t-207.5 -94 q-99 0 -142 50.5t-43 123.5q0 10 1 20h65zM368 315q47 0 89.5 19.5t73.5 57.5t40 91q4 23 4 44q0 53 -32 98.5t-119 45.5q-77 0 -132 -48t-69 -128q-4 -24 -4 -45q0 -53 32.5 -94t116.5 -41z" glyph-name="nine" horiz-adv-x="625" unicode="9"/>
<glyph d="M91 -5q-22 0 -32.5 13t-10.5 28q0 6 1 11q4 22 21 36.5t39 14.5q21 0 31.5 -12.5t10.5 -27.5q0 -5 -1 -11q-4 -22 -21 -37t-38 -15zM168 430q-22 0 -32.5 13t-10.5 28q0 6 1 11q4 22 21 36.5t39 14.5q21 0 31.5 -12.5t10.5 -27.5q0 -5 -1 -11q-4 -22 -21 -37t-38 -15z " glyph-name="colon" horiz-adv-x="185" unicode=":"/>
<glyph d="M193 431q-22 0 -32.5 13t-10.5 28q0 6 1 11q4 22 21 36.5t39 14.5q21 0 31.5 -12.5t10.5 -27.5q0 -5 -1 -11q-4 -22 -21 -37t-38 -15zM189 116l-151 -262h-48l121 262h78z" glyph-name="semicolon" horiz-adv-x="227" unicode=";"/>
<glyph d="M346 138l-210 232l292 232h89l-293 -232l211 -232h-89z" glyph-name="less" horiz-adv-x="504" unicode="&lt;"/>
<glyph d="M682 502l-11 -60h-510l11 60h510zM646 298l-11 -59h-510l11 59h510z" glyph-name="equal" horiz-adv-x="676" unicode="="/>
<glyph d="M184 602h89l210 -232l-292 -232h-89l293 232z" glyph-name="greater" horiz-adv-x="492" unicode="&gt;"/>
<glyph d="M374 708q64 0 109 -25t61 -63t16 -74q0 -20 -4 -42q-19 -108 -94.5 -158.5t-190.5 -50.5l-22 -110h-60l24 160h26q103 0 168 32.5t82 126.5q3 17 3 32q0 44 -30.5 78t-98.5 34t-114.5 -37t-57.5 -101h-67q11 60 46 104.5t88 69t116 24.5zM185 -5q-22 0 -32.5 13t-10.5 28 q0 6 1 11q4 22 21 36.5t39 14.5q21 0 31.5 -12.5t10.5 -27.5q0 -5 -1 -11q-4 -22 -21 -37t-38 -15z" glyph-name="question" horiz-adv-x="512" unicode="?"/>
<glyph d="M679 636q108 0 182.5 -42t100 -103.5t25.5 -118.5q0 -33 -7 -69q-13 -78 -50.5 -149t-92.5 -115.5t-118 -44.5q-49 0 -67.5 23.5t-18.5 56.5q0 9 1 19q-39 -46 -91.5 -72.5t-106.5 -26.5q-76 0 -105.5 39.5t-29.5 88.5q0 20 4 43q13 74 55.5 138.5t104.5 103.5t132 39 q50 0 80.5 -22t37.5 -64l27 74h61l-103 -291q-6 -18 -9 -33q-2 -11 -2 -20q0 -47 49 -47q43 0 81 39t65 98.5t38 118.5q5 32 5 61q0 51 -21 103.5t-85 87t-160 34.5q-120 0 -227.5 -59t-180 -160t-94.5 -223q-7 -36 -7 -67q0 -89 61 -154.5t205 -65.5q91 0 171 34l2 -49 q-94 -36 -197 -36q-105 0 -178 40.5t-98.5 101.5t-25.5 119q0 33 7 70q24 139 108 253.5t208 180.5t264 66zM466 49q45 0 87 24t74 67t48 98q5 18 7 26q2 15 2 29q0 37 -20.5 67.5t-76.5 30.5q-53 0 -98.5 -31t-76 -80.5t-40.5 -104.5q-3 -17 -3 -32q0 -36 20.5 -65 t76.5 -29z" glyph-name="at" horiz-adv-x="1002" unicode="@"/>
<glyph d="M514 166h-318l-90 -166h-74l377 690h79l132 -690h-74zM504 224l-72 378l-204 -378h276z" glyph-name="A" horiz-adv-x="652" unicode="A"/>
<glyph d="M471 361q57 -11 85 -53.5t28 -88.5q0 -15 -3 -32q-9 -53 -43 -95.5t-89.5 -67t-126.5 -24.5h-242l123 699h235q106 0 147.5 -43.5t41.5 -98.5q0 -16 -3 -34q-11 -65 -53.5 -105.5t-99.5 -56.5zM219 390h163q71 0 115.5 33.5t54.5 92.5q2 14 2 26q0 40 -28.5 69t-102.5 29 h-160zM327 59q76 0 125 36t60 99q2 14 2 27q0 45 -33 78t-108 33h-164l-49 -273h167z" glyph-name="B" horiz-adv-x="597" unicode="B"/>
<glyph d="M110 350q18 103 77.5 184.5t145.5 127t182 45.5q117 0 190.5 -55.5t93.5 -156.5h-82q-17 71 -71.5 111t-141.5 40q-77 0 -145 -36t-115 -103.5t-62 -156.5q-7 -37 -7 -69q0 -47 18.5 -100.5t74 -89.5t132.5 -36q87 0 155.5 39.5t110.5 109.5h82q-56 -100 -149.5 -155 t-209.5 -55q-96 0 -166 45.5t-95 111.5t-25 126q0 35 7 73z" glyph-name="C" horiz-adv-x="771" unicode="C"/>
<glyph d="M410 699q116 0 191.5 -42t100 -105.5t24.5 -121.5q0 -39 -8 -82q-19 -108 -76.5 -186.5t-148 -120t-206.5 -41.5h-207l123 699h207zM297 58q146 0 236 76.5t114 213.5q7 39 7 74q0 86 -54 152.5t-200 66.5h-137l-103 -583h137z" glyph-name="D" horiz-adv-x="706" unicode="D"/>
<glyph d="M263 642l-46 -261h265l-10 -58h-265l-47 -265h295l-10 -58h-365l123 700h365l-10 -58h-295z" glyph-name="E" horiz-adv-x="503" unicode="E"/>
<glyph d="M581 699l-10 -58h-308l-46 -261h260l-10 -58h-260l-57 -322h-70l123 699h378z" glyph-name="F" horiz-adv-x="493" unicode="F"/>
<glyph d="M717 495q-18 69 -72.5 108.5t-137.5 39.5q-78 0 -146 -36t-116 -102.5t-63 -154.5q-6 -35 -6 -66q0 -48 19.5 -102t75 -90t133.5 -36q73 0 137 31.5t110 90t64 136.5h-294l10 57h368l-9 -51q-21 -92 -79 -166.5t-141 -117.5t-177 -43q-97 0 -168 45.5t-96.5 112 t-25.5 126.5q0 35 7 73q18 103 78 184.5t147 127t184 45.5q112 0 186 -56t94 -156h-82z" glyph-name="G" horiz-adv-x="782" unicode="G"/>
<glyph d="M722 699l-123 -699h-70l58 327h-379l-58 -327h-70l123 699h70l-55 -314h379l55 314h70z" glyph-name="H" horiz-adv-x="679" unicode="H"/>
<glyph d="M273 699l-123 -699h-70l123 699h70z" glyph-name="I" horiz-adv-x="229" unicode="I"/>
<glyph d="M526 699l-93 -529q-14 -80 -71.5 -128.5t-139.5 -48.5q-85 0 -121 44.5t-36 102.5q0 21 4 44h71q-3 -17 -3 -32q0 -36 18.5 -66.5t77.5 -30.5q56 0 88.5 33t41.5 82l93 529h70z" glyph-name="J" horiz-adv-x="499" unicode="J"/>
<glyph d="M453 0l-246 323l-57 -323h-70l123 699h70l-57 -327l360 327h89l-388 -349l268 -350h-92z" glyph-name="K" horiz-adv-x="568" unicode="K"/>
<glyph d="M160 57h251l-10 -57h-321l123 699h70z" glyph-name="L" horiz-adv-x="421" unicode="L"/>
<glyph d="M885 690l-122 -690h-70l97 551l-343 -551h-51l-149 549l-97 -549h-70l122 690h74l161 -598l373 598h75z" glyph-name="M" horiz-adv-x="842" unicode="M"/>
<glyph d="M607 0h-70l-283 588l-104 -588h-70l123 699h70l284 -587l103 587h70z" glyph-name="N" horiz-adv-x="686" unicode="N"/>
<glyph d="M393 -7q-97 0 -168 45.5t-96.5 112t-25.5 126.5q0 35 7 73q18 103 78 184.5t147 127t184 45.5q98 0 169 -45.5t96 -112t25 -126.5q0 -35 -7 -73q-18 -103 -77.5 -184.5t-146.5 -127t-185 -45.5zM404 54q78 0 146 36t116 103.5t64 156.5q6 34 6 65q0 50 -19.5 104t-75 90 t-133.5 36t-146.5 -36t-116.5 -103t-63 -156q-6 -36 -6 -68q0 -48 19 -102t75 -90t134 -36z" glyph-name="O" horiz-adv-x="788" unicode="O"/>
<glyph d="M615 498q-16 -90 -84.5 -145t-186.5 -55h-141l-53 -298h-70l123 699h211q117 0 161 -48.5t44 -110.5q0 -20 -4 -42zM354 358q164 0 189 140q3 19 3 35q0 45 -28 76t-114 31h-141l-50 -282h141z" glyph-name="P" horiz-adv-x="564" unicode="P"/>
<glyph d="M633 -137l-131 145q-53 -15 -109 -15q-97 0 -168 45.5t-96.5 112t-25.5 126.5q0 35 7 73q18 103 78 184.5t147 127t184 45.5q98 0 169 -45.5t96 -112t25 -126.5q0 -35 -7 -73q-19 -106 -80.5 -188.5t-151.5 -126.5l157 -172h-94zM182 350q-6 -36 -6 -68q0 -48 19 -102 t75 -90t134 -36t146 36t116 103.5t64 156.5q6 34 6 65q0 50 -19.5 104t-75 90t-133.5 36t-146.5 -36t-116.5 -103t-63 -156z" glyph-name="Q" horiz-adv-x="789" unicode="Q"/>
<glyph d="M452 0l-122 292h-129l-51 -292h-70l123 699h210q117 0 161.5 -49t44.5 -111q0 -20 -4 -43q-13 -76 -66 -129.5t-141 -69.5l128 -297h-84zM212 349h141q82 0 130.5 40t59.5 107q4 19 4 36q0 43 -29 75.5t-115 32.5h-140z" glyph-name="R" horiz-adv-x="587" unicode="R"/>
<glyph d="M291 -7q-69 0 -117.5 24t-68 61.5t-19.5 74.5q0 13 2 27h74v-11q0 -44 31 -80.5t108 -36.5q71 0 119 36.5t58 92.5q2 14 2 26q0 27 -15 50.5t-47 37t-89 29.5q-67 19 -104.5 37t-56 49.5t-18.5 67.5q0 19 4 42q9 54 44.5 96.5t91 66.5t121.5 24q97 0 146 -46t49 -113v-11 h-76q0 43 -34 76.5t-102 33.5q-63 0 -111 -33.5t-58 -91.5q-2 -13 -2 -25q0 -27 15.5 -50t47.5 -37t88 -30q65 -19 103.5 -37.5t57 -50t18.5 -67.5q0 -19 -4 -41q-8 -49 -42 -93t-89.5 -71t-126.5 -27z" glyph-name="S" horiz-adv-x="572" unicode="S"/>
<glyph d="M612 699l-10 -58h-194l-113 -641h-70l113 641h-195l10 58h459z" glyph-name="T" horiz-adv-x="520" unicode="T"/>
<glyph d="M270 699l-77 -440q-6 -33 -6 -60q0 -60 34.5 -102t120.5 -42t143 49.5t76 154.5l77 440h70l-77 -439q-24 -133 -106 -200t-195 -67t-163.5 57.5t-50.5 138.5q0 33 7 71l77 439h70z" glyph-name="U" horiz-adv-x="661" unicode="U"/>
<glyph d="M757 699l-388 -699h-80l-142 699h76l119 -623l341 623h74z" glyph-name="V" horiz-adv-x="659" unicode="V"/>
<glyph d="M1051 699l-321 -699h-78l-71 596l-285 -596l-76 -1l-71 700h75l52 -613l287 613h78l66 -613l269 613h75z" glyph-name="W" horiz-adv-x="955" unicode="W"/>
<glyph d="M394 349l150 -349h-78l-127 292l-220 -292h-78l273 352l-150 347h78l126 -291l222 291h78z" glyph-name="X" horiz-adv-x="585" unicode="X"/>
<glyph d="M665 699l-299 -427l-48 -272h-70l48 272l-151 427h79l118 -363l245 363h78z" glyph-name="Y" horiz-adv-x="564" unicode="Y"/>
<glyph d="M136 62h357l-11 -62h-439l10 56l454 581h-346l11 62h428l-10 -56z" glyph-name="Z" horiz-adv-x="525" unicode="Z"/>
<glyph d="M438 934l-11 -58h-88l-176 -1003h88l-11 -59h-154l198 1120h154z" glyph-name="bracketleft" horiz-adv-x="367" unicode="["/>
<glyph d="M398 -166l-131 1106h71l129 -1106h-69z" glyph-name="backslash" horiz-adv-x="603" unicode="\"/>
<glyph d="M215 -186h-154l11 59h88l176 1003h-88l11 58h154z" glyph-name="bracketright" horiz-adv-x="367" unicode="]"/>
<glyph d="M140 171h-72l326 519h63l142 -519h-73l-116 431z" glyph-name="asciicircum" horiz-adv-x="606" unicode="^"/>
<glyph d="M589 -35l-12 -65h-509l12 65h509z" glyph-name="underscore" horiz-adv-x="674" unicode="_"/>
<glyph d="M193 706l57 70l125 -116l-41 -50z" glyph-name="grave" horiz-adv-x="324" unicode="`"/>
<glyph d="M96 274q15 84 60 147.5t110.5 98t140.5 34.5q78 0 128 -36t65 -92l21 120h70l-96 -546h-70l21 121q-35 -56 -98 -92.5t-141 -36.5q-74 0 -127.5 35t-71 86.5t-17.5 98.5q0 29 5 62zM573 273q5 26 5 49q0 37 -15 77t-56.5 67t-97.5 27q-58 0 -108.5 -26t-86 -75.5 t-47.5 -117.5q-4 -26 -4 -49q0 -37 14 -78t55 -67.5t99 -26.5q56 0 107.5 27t87.5 77t47 116z" glyph-name="a" unicode="a"/>
<glyph d="M224 425q37 57 100 93t140 36q75 0 128 -34.5t70.5 -85t17.5 -95.5q0 -31 -6 -65q-14 -84 -59 -148t-110.5 -99t-139.5 -35q-78 0 -128.5 35.5t-66.5 92.5l-21 -120h-69l130 740h69zM603 274q5 28 5 52q0 36 -14 75.5t-55.5 65.5t-99.5 26q-56 0 -107.5 -27t-87 -77 t-47.5 -116q-5 -26 -5 -49q0 -37 15 -77t56.5 -67t97.5 -27q58 0 109 26.5t86 77t47 117.5z" glyph-name="b" unicode="b"/>
<glyph d="M96 273q15 85 60.5 148.5t111.5 98t143 34.5q101 0 157.5 -50t60.5 -136h-75q-4 59 -44.5 92.5t-109.5 33.5q-55 0 -103.5 -25t-82.5 -74.5t-47 -121.5q-6 -31 -6 -58q0 -36 13.5 -75t53 -64t94.5 -25q69 0 121.5 33.5t76.5 93.5h75q-33 -84 -108 -135t-175 -51 q-77 0 -131 34.5t-72.5 85.5t-18.5 97q0 30 6 64z" glyph-name="c" horiz-adv-x="613" unicode="c"/>
<glyph d="M96 274q15 84 60.5 147.5t111 98t140.5 34.5q72 0 123.5 -35t69.5 -91l55 312h70l-131 -740h-70l22 122q-35 -57 -98.5 -93.5t-140.5 -36.5q-75 0 -128.5 35t-71 86.5t-17.5 98.5q0 29 5 62zM573 273q5 26 5 49q0 37 -15 77t-56.5 67t-97.5 27q-58 0 -108.5 -26 t-86 -75.5t-47.5 -117.5q-4 -26 -4 -49q0 -37 14 -78t55 -67.5t99 -26.5q56 0 107.5 27t87.5 77t47 116z" glyph-name="d" unicode="d"/>
<glyph d="M627 301q-6 -36 -12 -55h-453q-2 -18 -2 -35q0 -40 16.5 -77.5t56.5 -60t92 -22.5q68 0 120.5 33t77.5 89h74q-35 -80 -109 -130.5t-173 -50.5q-77 0 -132 34.5t-74 85.5t-19 98q0 30 6 63q15 85 60.5 149t112.5 98t145 34t130.5 -34t69.5 -81t17 -89q0 -24 -4 -49z M556 303q5 24 5 46q0 32 -14.5 66.5t-54.5 56.5t-92 22q-78 0 -141.5 -50t-86.5 -141h384z" glyph-name="e" horiz-adv-x="622" unicode="e"/>
<glyph d="M381 487h-127l-86 -487h-70l86 487h-76l10 59h76l7 38q16 89 68.5 131t154.5 42l-10 -60q-68 0 -100 -26t-43 -87l-7 -38h127z" glyph-name="f" horiz-adv-x="325" unicode="f"/>
<glyph d="M407 554q77 0 127.5 -36t65.5 -91l21 119h70l-98 -560q-14 -75 -56.5 -133t-106 -89.5t-137.5 -31.5q-105 0 -166 50t-62 136h69q7 -57 52 -91t118 -34q53 0 98.5 22.5t77.5 66.5t43 104l23 135q-36 -56 -98.5 -92.5t-139.5 -36.5q-75 0 -128.5 35t-71 86.5t-17.5 98.5 q0 29 5 62q15 84 60 147.5t110.5 98t140.5 34.5zM573 273q5 26 5 49q0 37 -15 77t-56.5 67t-97.5 27q-58 0 -108.5 -26t-86 -75.5t-47.5 -117.5q-5 -27 -5 -51q0 -36 14.5 -76.5t55.5 -67t99 -26.5q56 0 107.5 27t87 77t47.5 116z" glyph-name="g" unicode="g"/>
<glyph d="M438 556q62 0 107 -26t60 -68t15 -81q0 -28 -6 -61l-56 -320h-69l55 312q5 27 5 50q0 53 -31 93t-108 40q-79 0 -134.5 -50t-72.5 -147l-53 -298h-70l130 740h70l-50 -287q35 49 90 76t118 27z" glyph-name="h" horiz-adv-x="633" unicode="h"/>
<glyph d="M229 649q-21 0 -31.5 13t-10.5 28q0 6 1 11q4 22 21.5 36.5t38.5 14.5t32 -12.5t11 -28.5q0 -5 -1 -10q-4 -22 -22 -37t-39 -15zM246 546l-96 -546h-70l96 546h70z" glyph-name="i" horiz-adv-x="229" unicode="i"/>
<glyph d="M234 649q-21 0 -31.5 13t-10.5 28q0 6 1 11q3 22 21 36.5t39 14.5t31.5 -13t10.5 -29q0 -4 -1 -9q-4 -22 -21.5 -37t-38.5 -15zM131 -129q-11 -66 -49.5 -97.5t-104.5 -31.5h-49l10 60h38q39 0 59 16.5t27 55.5l118 672h70z" glyph-name="j" horiz-adv-x="234" unicode="j"/>
<glyph d="M375 0l-182 245l-43 -245h-70l130 740h70l-77 -438l263 244h98l-307 -272l213 -274h-95z" glyph-name="k" horiz-adv-x="480" unicode="k"/>
<glyph d="M280 740l-130 -740h-70l130 740h70z" glyph-name="l" horiz-adv-x="229" unicode="l"/>
<glyph d="M828 556q96 0 138.5 -51.5t42.5 -121.5q0 -29 -6 -63l-56 -320h-69l55 312q5 28 5 52q0 52 -29.5 91.5t-103.5 39.5q-77 0 -132 -51t-72 -148l-52 -296h-69l55 312q5 28 5 52q0 52 -29.5 91.5t-104.5 39.5q-77 0 -132 -51t-72 -148l-52 -296h-70l96 546h70l-16 -94 q35 51 87.5 77.5t111.5 26.5q71 0 118.5 -34t59.5 -100q34 65 93.5 99.5t127.5 34.5z" glyph-name="m" horiz-adv-x="1022" unicode="m"/>
<glyph d="M434 556q98 0 142 -51.5t44 -122.5q0 -29 -6 -62l-56 -320h-69l55 312q5 27 5 50q0 53 -31 93t-108 40q-79 0 -134.5 -50t-72.5 -147l-53 -298h-70l96 546h70l-16 -93q35 50 88.5 76.5t115.5 26.5z" glyph-name="n" horiz-adv-x="633" unicode="n"/>
<glyph d="M318 -8q-77 0 -132.5 34.5t-75.5 86t-20 99.5q0 29 6 61q15 85 62.5 148.5t115.5 98t145 34.5t133.5 -34.5t76 -86t19.5 -98.5q0 -29 -6 -62q-15 -84 -62 -148t-116 -98.5t-146 -34.5zM328 53q54 0 104.5 24.5t87.5 74t50 121.5q5 29 5 54q0 38 -15.5 77.5t-57 64 t-95.5 24.5t-104.5 -24.5t-86.5 -74t-49 -121.5q-5 -29 -5 -55q0 -37 15 -76.5t56 -64t95 -24.5z" glyph-name="o" horiz-adv-x="642" unicode="o"/>
<glyph d="M224 426q36 55 99 91.5t141 36.5q74 0 127.5 -34.5t71 -85t17.5 -95.5q0 -31 -6 -65q-14 -84 -59 -148t-110.5 -99t-139.5 -35q-77 0 -128 36.5t-67 91.5l-66 -378h-69l141 804h69zM603 274q5 28 5 52q0 36 -14 75.5t-55.5 65.5t-99.5 26q-56 0 -107.5 -27t-87 -77 t-47.5 -116q-5 -26 -5 -49q0 -37 15 -77t56.5 -67t97.5 -27q58 0 109 26.5t86 77t47 117.5z" glyph-name="p" unicode="p"/>
<glyph d="M96 274q15 84 60.5 147.5t111 98t140.5 34.5q77 0 127.5 -36.5t64.5 -91.5l21 120h70l-141 -804h-70l66 378q-34 -55 -97.5 -91.5t-141.5 -36.5q-74 0 -127.5 35t-71 86.5t-17.5 98.5q0 29 5 62zM573 273q5 26 5 49q0 37 -15 77t-56.5 67t-97.5 27q-58 0 -108.5 -26 t-86 -75.5t-47.5 -117.5q-5 -27 -5 -51q0 -36 14.5 -76.5t55.5 -67t99 -26.5q56 0 107.5 27t87 77t47.5 116z" glyph-name="q" unicode="q"/>
<glyph d="M229 449q32 51 84.5 79t121.5 28l-13 -73h-19q-76 0 -129 -41t-70 -137l-54 -305h-70l96 546h70z" glyph-name="r" horiz-adv-x="362" unicode="r"/>
<glyph d="M267 -8q-94 0 -143.5 41.5t-49.5 105.5q0 7 1 15h72v-7q0 -41 32 -68.5t97 -27.5q57 0 94.5 27t44.5 67q1 7 1 13q0 20 -13 35.5t-38.5 26t-70.5 22.5q-59 16 -94 32t-52.5 42.5t-17.5 57.5q0 15 3 32q7 40 37 74t77.5 54t103.5 20q88 0 130 -40.5t42 -99.5q0 -13 -2 -27 h-70q1 8 1 16q0 37 -27 64t-87 27q-53 0 -90.5 -25t-43.5 -62q-2 -9 -2 -17q0 -21 14 -38.5t41 -29t73 -25.5q57 -16 89 -31t49.5 -40t17.5 -57q0 -12 -2 -24q-8 -44 -38 -78.5t-76.5 -54.5t-102.5 -20z" glyph-name="s" horiz-adv-x="510" unicode="s"/>
<glyph d="M257 487l-60 -339q-3 -18 -3 -32q0 -25 13 -40.5t61 -15.5h64l-11 -60h-75q-74 0 -99 29t-25 73q0 21 4 46l60 339h-76l10 59h76l24 137h71l-24 -137h150l-10 -59h-150z" glyph-name="t" horiz-adv-x="356" unicode="t"/>
<glyph d="M649 546l-96 -546h-70l17 96q-33 -51 -88 -78t-117 -27q-98 0 -142 52t-44 124q0 28 6 60l56 319h69l-55 -311q-4 -26 -4 -49q0 -54 30.5 -94t107.5 -40q79 0 135 50t73 147l52 297h70z" glyph-name="u" horiz-adv-x="633" unicode="u"/>
<glyph d="M286 68l268 478h74l-315 -546h-79l-123 546h75z" glyph-name="v" horiz-adv-x="547" unicode="v"/>
<glyph d="M896 546l-267 -546h-70l-70 458l-232 -458h-71l-75 546h71l53 -475l236 475h70l67 -476l219 476h69z" glyph-name="w" horiz-adv-x="815" unicode="w"/>
<glyph d="M366 0l-102 220l-175 -220h-74l224 273l-126 273h79l101 -217l173 217h73l-221 -270l127 -276h-79z" glyph-name="x" horiz-adv-x="460" unicode="x"/>
<glyph d="M626 546l-465 -803h-73l152 260l-129 543h77l104 -466l262 466h72z" glyph-name="y" horiz-adv-x="545" unicode="y"/>
<glyph d="M127 58h286l-10 -58h-366l10 58l357 430h-276l10 58h356l-10 -58z" glyph-name="z" horiz-adv-x="441" unicode="z"/>
<glyph d="M157 402q109 24 126 117q8 46 11 128q1 9 4 55.5t10 85.5q13 72 58.5 108.5t112.5 36.5h50l-11 -61h-38q-44 0 -70.5 -21t-34.5 -68q-6 -35 -9 -79.5t-4 -54.5q-3 -84 -12 -132q-10 -55 -44 -92.5t-93 -50.5v-2q54 -13 71.5 -44.5t17.5 -64.5q0 -16 -3 -34 q-8 -47 -34 -131q-3 -11 -15.5 -55.5t-19.5 -79.5q-2 -14 -2 -26q0 -27 16 -45t60 -18h38l-11 -61h-50q-67 0 -95 31.5t-28 75.5q0 17 4 38q6 39 19.5 85.5t16.5 56.5q25 83 33 127q2 13 2 24q0 72 -86 94z" glyph-name="braceleft" horiz-adv-x="413" unicode="{"/>
<glyph d="M148 -100h-70l157 890h70z" glyph-name="bar" horiz-adv-x="261" unicode="|"/>
<glyph d="M388 345q-110 -25 -126 -118q-8 -44 -11 -127q-1 -10 -4.5 -56.5t-9.5 -85.5q-13 -72 -58.5 -108.5t-112.5 -36.5h-50l11 61h38q44 0 70 21t34 68q7 35 9.5 79.5t3.5 55.5q4 84 12 131q10 55 44 92.5t94 50.5v2q-55 13 -72.5 44.5t-17.5 64.5q0 16 3 34q8 42 28 112 l22 75q13 44 19 79q2 14 2 26q0 27 -15.5 45t-59.5 18h-38l11 61h50q67 0 95 -31.5t28 -75.5q0 -17 -4 -38q-7 -39 -20 -85.5t-16 -55.5q-25 -82 -33 -128q-2 -13 -2 -25q0 -71 86 -92z" glyph-name="braceright" horiz-adv-x="413" unicode="}"/>
<glyph d="M83 257q23 64 60 96.5t87 32.5q27 0 46.5 -9.5t43.5 -27.5q23 -16 36 -23t30 -7q27 0 48 18t30 48h53q-44 -129 -147 -129q-25 0 -43 9t-44 27q-21 16 -35 23.5t-33 7.5q-26 0 -47.5 -18.5t-31.5 -47.5h-53z" glyph-name="asciitilde" horiz-adv-x="487" unicode="~"/>
<glyph glyph-name="uni00A0" horiz-adv-x="274" unicode=" "/>
<glyph d="M238 561q21 0 31.5 -13t10.5 -28q0 -5 -1 -11q-4 -22 -21 -36.5t-38 -14.5q-22 0 -32.5 12.5t-10.5 27.5q0 6 1 11q4 22 21 37t39 15zM171 371h59l-81 -514h-76z" glyph-name="exclamdown" horiz-adv-x="277" unicode="¡"/>
<glyph d="M327 68q67 0 117 33t72 91h66q-25 -77 -90.5 -127t-156.5 -55l-18 -100h-44l18 101q-104 8 -145 67t-41 128q0 28 5 58q18 107 91 176.5t179 77.5l17 96h44l-16 -95q89 -5 135.5 -53.5t46.5 -119.5v-9h-66q-1 58 -39.5 91t-105.5 33q-81 0 -142 -51.5t-77 -145.5 q-5 -27 -5 -50q0 -58 37 -102t118 -44z" glyph-name="cent" horiz-adv-x="642" unicode="¢"/>
<glyph d="M543 58l-10 -59h-431l-5 42q52 49 80 90.5t38 101.5q3 18 3 38q0 21 -3 43h-114l9 50h96q-7 44 -8.5 64.5t-1.5 29.5q0 26 5 55q11 60 45 106t86 71.5t113 25.5q99 0 139.5 -52t40.5 -121q0 -14 -2 -29h-64q1 12 1 22q0 49 -28.5 85t-96.5 36q-61 0 -108 -36.5 t-60 -110.5q-4 -25 -4 -49q0 -10 1.5 -30.5t9.5 -66.5h194l-9 -50h-177q2 -22 2 -40q0 -22 -3 -39q-9 -51 -35 -94t-71 -83h368z" glyph-name="sterling" horiz-adv-x="596" unicode="£"/>
<glyph d="M498 377q-10 -62 -52 -108l50 -60l-39 -33l-49 60q-51 -34 -110 -34q-60 0 -99 33l-69 -59l-27 33l70 60q-16 29 -16 69q0 19 3 39q12 65 53 109l-51 61l39 33l51 -61q49 33 108 33q57 0 98 -33l70 61l27 -33l-71 -61q17 -33 17 -73q0 -17 -3 -36zM306 248 q45 0 83.5 34.5t48.5 94.5q3 18 3 33q0 37 -22 67t-68 30t-83 -35t-48 -95q-3 -17 -3 -33q0 -37 21 -66.5t68 -29.5z" glyph-name="currency" horiz-adv-x="526" unicode="¤"/>
<glyph d="M448 372h148l-10 -52l-175 -1l-33 -47l-8 -47h200l-10 -53h-200l-30 -172h-70l30 172h-200l10 53h200l8 47l-17 47l-175 1l10 52h147l-116 327h79l117 -363l245 363h79z" glyph-name="yen" horiz-adv-x="585" unicode="¥"/>
<glyph d="M235 790h70l-65 -370h-70zM148 -100h-70l66 370h70z" glyph-name="brokenbar" horiz-adv-x="261" unicode="¦"/>
<glyph d="M386 106q55 -22 79.5 -50.5t24.5 -63.5q0 -12 -2 -24q-7 -42 -36 -76t-76.5 -54t-107.5 -20q-91 0 -138 40.5t-47 102.5q0 11 1 23h70v-9q0 -44 27.5 -75t95.5 -31q58 0 95 23.5t45 69.5q2 8 2 16q0 18 -10 35t-42 34t-91 36q-100 31 -140.5 68t-40.5 88q0 15 3 31 q10 59 59 104.5t127 60.5q-56 23 -81.5 51t-25.5 64q0 12 2 24q7 41 36.5 75t77.5 53.5t108 19.5q91 0 137 -40t46 -102q0 -11 -1 -23h-70q1 7 1 14q0 39 -27.5 70t-94.5 31q-59 0 -96.5 -23.5t-45.5 -68.5q-2 -9 -2 -17q0 -18 10 -35t42 -34.5t93 -36.5q99 -31 139.5 -67.5 t40.5 -88.5q0 -15 -3 -31q-11 -58 -59 -103t-125 -61zM169 270q-2 -11 -2 -21q0 -40 35.5 -71.5t112.5 -31.5q76 0 125 36t59 88q2 10 2 20q0 41 -35.5 72.5t-112.5 31.5q-51 0 -91 -17t-63.5 -45t-29.5 -62z" glyph-name="section" horiz-adv-x="572" unicode="§"/>
<glyph d="M191 623q-19 0 -29 12t-10 26q0 4 1 8q3 19 19 32.5t35 13.5t29 -12t10 -26q0 -4 -1 -8q-3 -19 -19 -32.5t-35 -13.5zM345 623q-19 0 -29 12t-10 26q0 4 1 8q3 19 19 32.5t35 13.5t28.5 -12t9.5 -26q0 -4 -1 -8q-3 -19 -18.5 -32.5t-34.5 -13.5z" glyph-name="dieresis" horiz-adv-x="315" unicode="¨"/>
<glyph d="M522 703q101 0 171.5 -45t94.5 -110t24 -123q0 -36 -7 -75q-18 -103 -76 -183.5t-144.5 -125.5t-187.5 -45t-171.5 45t-94 110t-23.5 123q0 37 7 76q18 103 75.5 183t144 125t187.5 45zM516 670q-94 0 -170.5 -40.5t-127.5 -113t-67 -166.5q-7 -38 -7 -72 q0 -51 20.5 -109t83 -98.5t155.5 -40.5t170.5 40.5t128 113t67.5 166.5q6 37 6 70q0 52 -20 110.5t-82.5 99t-156.5 40.5zM501 584q75 0 123 -39.5t54 -111.5h-65q-6 48 -39 73.5t-82 25.5q-66 0 -118 -48t-67 -134q-4 -26 -4 -48q0 -52 29.5 -92.5t95.5 -40.5q51 0 91.5 25 t64.5 73h65q-31 -69 -93.5 -109.5t-136.5 -40.5q-60 0 -104 28t-60 70.5t-16 81.5q0 26 5 54q12 71 50.5 124t92.5 81t114 28z" glyph-name="copyright" horiz-adv-x="796" unicode="©"/>
<glyph d="M128 529q10 53 38.5 94t70 63.5t88.5 22.5q51 0 82 -22t41 -58l13 74h57l-62 -350h-57l13 73q-21 -36 -60 -57.5t-89 -21.5q-48 0 -82 23.5t-45.5 57t-11.5 62.5q0 19 4 39zM187 529q-3 -18 -3 -33q0 -40 24 -72t75 -32q53 0 94.5 37t52.5 99q3 17 3 33q0 39 -24.5 71 t-77.5 32q-51 0 -92 -36.5t-52 -98.5z" glyph-name="ordfeminine" horiz-adv-x="445" unicode="ª"/>
<glyph d="M165 120l-68 175l130 175h71l-133 -175l71 -175h-71zM335 120l-68 175l130 175h71l-133 -175l71 -175h-71z" glyph-name="guillemotleft" horiz-adv-x="435" unicode="«"/>
<glyph d="M683 430l-35 -200h-69l25 143h-493l10 57h562z" glyph-name="logicalnot" horiz-adv-x="651" unicode="¬"/>
<glyph d="M490 400l-11 -59h-389l11 59h389z" glyph-name="uni00AD" horiz-adv-x="519" unicode="­"/>
<glyph d="M377 708q57 0 97 -26t54 -63.5t14 -70.5q0 -20 -4 -41q-10 -57 -43.5 -102.5t-82.5 -71.5t-106 -26t-97.5 26t-55 63t-14.5 71q0 19 4 40q10 57 44 103t83.5 72t106.5 26zM312 340q72 0 125 47t65 120q3 19 3 37q0 48 -31 89t-103 41q-73 0 -126 -47t-66 -120 q-3 -18 -3 -35q0 -50 31.5 -91t104.5 -41zM436 551q-4 -25 -21 -41.5t-43 -21.5l45 -86l-51 -1l-40 85h-23l-15 -85h-43l38 215h93q33 0 47 -15.5t14 -35.5q0 -7 -1 -14zM309 522h47q14 0 24.5 7t12.5 21v6q0 9 -6.5 15t-20.5 6h-47z" glyph-name="registered" horiz-adv-x="502" unicode="®"/>
<glyph d="M486 700l-9 -54h-339l9 54h339z" glyph-name="macron" horiz-adv-x="387" unicode="¯"/>
<glyph d="M121 522q14 79 69.5 127t129.5 48t107.5 -41.5t33.5 -93.5q0 -19 -4 -40q-9 -52 -37.5 -91.5t-71 -61.5t-91.5 -22q-75 0 -107.5 41.5t-32.5 92.5q0 20 4 41zM399 522q3 19 3 35q0 38 -21 67.5t-70 29.5q-48 0 -85 -35t-48 -97q-3 -19 -3 -36q0 -37 20.5 -66t69.5 -29 q48 0 85.5 34.5t48.5 96.5z" glyph-name="degree" horiz-adv-x="394" unicode="°"/>
<glyph d="M428 381l-37 -211h222l-11 -60h-509l11 60h222l37 211h-222l11 59h222l33 188h65l-33 -188h222l-11 -59h-222z" glyph-name="plusminus" horiz-adv-x="657" unicode="±"/>
<glyph d="M351 399l-8 -47h-247l7 40l128 95q39 30 61.5 55.5t28.5 58.5q1 8 1 15q0 20 -12 34.5t-38 14.5q-28 0 -47.5 -16.5t-28.5 -46.5h-57q11 47 48.5 77t94.5 30q53 0 77 -26.5t24 -59.5q0 -9 -2 -20q-7 -40 -34.5 -71t-81.5 -69l-95 -64h181z" glyph-name="twosuperior" horiz-adv-x="322" unicode="²"/>
<glyph d="M139 614q13 42 52 68.5t95 26.5q52 0 80 -26t28 -58q0 -8 -2 -17q-5 -30 -25.5 -51t-52.5 -29v-2q27 -9 40 -27t13 -39q0 -8 -2 -17q-7 -40 -47.5 -68t-99.5 -28q-57 0 -84 25t-27 65q0 7 1 14h56v-5q0 -55 62 -55q32 0 53.5 15.5t26.5 42.5q1 6 1 12q0 19 -15.5 33 t-47.5 14h-48l6 39h48q32 0 54.5 15.5t27.5 43.5q1 5 1 10q0 19 -14 33.5t-45 14.5q-59 0 -81 -50h-54z" glyph-name="threesuperior" horiz-adv-x="323" unicode="³"/>
<glyph d="M225 639l134 151l56 -53l-154 -129z" glyph-name="acute" horiz-adv-x="279" unicode="´"/>
<glyph d="M654 546l-96 -546h-70l20 113q-35 -60 -90.5 -91.5t-118.5 -31.5q-50 0 -86 21t-50 69l-59 -338h-69l141 804h69l-52 -294q-5 -31 -5 -58q0 -57 31 -100t110 -43q77 0 131.5 50t71.5 147l52 298h70z" glyph-name="uni00B5" horiz-adv-x="638" unicode="µ"/>
<glyph d="M484 0h-63l112 634h-86l-112 -634h-63l51 289h-8q-117 0 -161 48.5t-44 109.5q0 20 4 42q16 90 86 145.5t186 55.5h220z" glyph-name="paragraph" horiz-adv-x="564" unicode="¶"/>
<glyph d="M146 295q-22 0 -32.5 13t-10.5 28q0 6 1 11q4 22 21 36.5t39 14.5q21 0 31.5 -12.5t10.5 -27.5q0 -5 -1 -11q-4 -22 -21 -37t-38 -15z" glyph-name="periodcentered" horiz-adv-x="183" unicode="·"/>
<glyph d="M101 -67h9q53 0 79 -21t26 -54q0 -8 -2 -18q-8 -45 -44.5 -71.5t-89.5 -26.5h-100l8 47h86q37 0 56.5 12.5t24.5 38.5q1 5 1 9q0 39 -65 39h-46l21 119h49z" glyph-name="cedilla" horiz-adv-x="265" unicode="¸"/>
<glyph d="M145 659l8 45h111l-62 -352h-57l54 307h-54z" glyph-name="onesuperior" horiz-adv-x="183" unicode="¹"/>
<glyph d="M128 527q9 54 40 95.5t76 64t96 22.5t88 -22.5t50 -56.5t13 -66q0 -18 -3 -37q-9 -53 -40.5 -94.5t-76.5 -64.5t-96 -23t-88 23t-50 56t-13 63q0 19 4 40zM429 527q3 18 3 33q0 41 -24.5 72t-76.5 31q-51 0 -92 -36t-52 -100q-3 -18 -3 -34q0 -40 23.5 -70.5t75.5 -30.5 q51 0 93 36t53 99z" glyph-name="ordmasculine" horiz-adv-x="429" unicode="º"/>
<glyph d="M204 295l-71 175h71l68 -175l-130 -175h-71zM374 295l-71 175h71l68 -175l-130 -175h-71z" glyph-name="guillemotright" horiz-adv-x="435" unicode="»"/>
<glyph d="M157 659l8 45h111l-62 -352h-57l54 307h-54zM616 700l-489 -700h-67l490 700h66zM581 71h-50l-13 -71h-57l13 71h-179l6 35l206 248h73l-43 -244h50zM514 296l-155 -186h122z" glyph-name="onequarter" horiz-adv-x="602" unicode="¼"/>
<glyph d="M208 659h-54l8 45h111l-62 -352h-57zM602 700l-483 -700h-67l483 700h67zM607 46l-8 -47h-247l7 40l128 95q39 30 61.5 55.5t28.5 58.5q1 8 1 15q0 20 -12 34.5t-38 14.5q-28 0 -47.5 -16.5t-28.5 -46.5h-57q11 47 48.5 77t94.5 30q53 0 77 -26.5t24 -59.5q0 -9 -2 -20 q-7 -40 -34.5 -71t-82.5 -69l-94 -64h181z" glyph-name="onehalf" horiz-adv-x="650" unicode="½"/>
<glyph d="M149 614q13 42 52 68.5t95 26.5q52 0 80 -26t28 -58q0 -8 -2 -17q-5 -30 -25.5 -51t-52.5 -29v-2q27 -9 40 -27t13 -39q0 -8 -2 -17q-7 -40 -47.5 -68t-99.5 -28q-57 0 -84 25t-27 65q0 7 1 14h56v-5q0 -55 62 -55q32 0 53.5 15.5t26.5 42.5q1 6 1 12q0 19 -15.5 33 t-47.5 14h-48l6 39h48q32 0 54.5 15.5t27.5 43.5q1 5 1 10q0 19 -14 33.5t-45 14.5q-59 0 -81 -50h-54zM712 700l-500 -700h-66l500 700h66zM665 71h-50l-13 -71h-57l13 71h-179l6 35l206 248h73l-43 -244h50zM599 296l-155 -186h122z" glyph-name="threequarters" horiz-adv-x="680" unicode="¾"/>
<glyph d="M418 551q22 0 32.5 -13t10.5 -28q0 -5 -1 -11q-4 -22 -21 -36.5t-39 -14.5q-21 0 -31.5 12.5t-10.5 27.5q0 6 1 11q4 22 21 37t38 15zM229 -162q-64 0 -109 25t-60.5 63.5t-15.5 75.5q0 19 3 40q19 108 94.5 158.5t190.5 50.5l23 110h60l-25 -160h-26q-103 0 -168 -32.5 t-82 -126.5q-3 -16 -3 -30q0 -45 30.5 -79.5t98.5 -34.5t114.5 37t57.5 101h67q-10 -60 -45.5 -104.5t-88.5 -69t-116 -24.5z" glyph-name="questiondown" horiz-adv-x="502" unicode="¿"/>
<glyph d="M514 166h-318l-90 -166h-74l377 690h79l132 -690h-74zM504 224l-72 378l-204 -378h276zM383 860l57 70l125 -116l-41 -50z" glyph-name="Agrave" horiz-adv-x="652" unicode="À"/>
<glyph d="M514 166h-318l-90 -166h-74l377 690h79l132 -690h-74zM504 224l-72 378l-204 -378h276zM380 793l134 151l56 -53l-154 -129z" glyph-name="Aacute" horiz-adv-x="652" unicode="Á"/>
<glyph d="M514 166h-318l-90 -166h-74l377 690h79l132 -690h-74zM504 224l-72 378l-204 -378h276zM317 764l-1 53l168 98l140 -98l-19 -53l-136 62z" glyph-name="Acircumflex" horiz-adv-x="652" unicode="Â"/>
<glyph d="M514 166h-318l-90 -166h-74l377 690h79l132 -690h-74zM504 224l-72 378l-204 -378h276zM318 791q4 14 12.5 31t20.5 32t27.5 25.5t33.5 10.5q15 0 29 -5t29 -11t30.5 -12t32.5 -8q37 -5 51 36l46 -4q-6 -16 -14.5 -34t-20 -33t-26.5 -24.5t-33 -9.5q-16 0 -29.5 6 t-27 13.5t-28 13.5t-32.5 6q-16 0 -30.5 -11t-22.5 -29z" glyph-name="Atilde" horiz-adv-x="652" unicode="Ã"/>
<glyph d="M385 767q-19 0 -29 12t-10 26q0 4 1 8q4 19 19.5 32.5t34.5 13.5t29 -12t10 -25q0 -4 -1 -9q-3 -19 -19 -32.5t-35 -13.5zM539 767q-19 0 -29 12t-10 26q0 4 1 8q4 19 19.5 32.5t34.5 13.5t28.5 -11.5t9.5 -24.5q0 -5 -1 -10q-3 -19 -18.5 -32.5t-34.5 -13.5zM514 166 h-318l-90 -166h-74l377 690h79l132 -690h-74zM503 224l-71 378l-205 -378h276z" glyph-name="Adieresis" horiz-adv-x="652" unicode="Ä"/>
<glyph d="M579 854q-8 -45 -42 -72.5t-78 -27.5q-43 0 -64.5 24t-21.5 55q0 10 2 21q8 45 42 72.5t77 27.5q44 0 65.5 -24t21.5 -55q0 -10 -2 -21zM536 854q1 7 1 14q0 18 -12.5 32.5t-37.5 14.5t-44 -16.5t-24 -44.5q-1 -7 -1 -14q0 -18 11.5 -32.5t36.5 -14.5t45 17t25 44z M514 166h-318l-90 -166h-74l377 690h79l132 -690h-74zM503 224l-71 378l-205 -378h276z" glyph-name="Aring" horiz-adv-x="652" unicode="Å"/>
<glyph d="M642 644l-47 -264h265l-10 -56h-265l-47 -268h295l-10 -56h-365l29 166h-274l-125 -166h-77l529 700h406l-9 -56h-295zM497 222l74 418l-316 -418h242z" glyph-name="AE" horiz-adv-x="882" unicode="Æ"/>
<glyph d="M400 55q87 0 155.5 39.5t110.5 109.5h82q-51 -92 -135 -146.5t-189 -62.5l-11 -62h9q53 0 79 -21t26 -54q0 -8 -2 -18q-8 -45 -44.5 -71.5t-89.5 -26.5h-100l8 47h86q37 0 56.5 12.5t24.5 38.5q1 5 1 9q0 39 -65 39h-46l19 106q-93 3 -159.5 49.5t-89.5 110.5t-23 121 q0 36 7 75q18 103 77.5 184.5t145.5 127t182 45.5q117 0 190.5 -55.5t93.5 -156.5h-82q-17 71 -71.5 111t-141.5 40q-77 0 -145 -36t-115 -103.5t-62 -156.5q-7 -37 -7 -69q0 -47 18.5 -100.5t74 -89.5t132.5 -36z" glyph-name="Ccedilla" horiz-adv-x="771" unicode="Ç"/>
<glyph d="M263 642l-46 -261h265l-10 -58h-265l-47 -265h295l-10 -58h-365l123 700h365l-10 -58h-295zM308 860l57 70l125 -116l-41 -50z" glyph-name="Egrave" horiz-adv-x="503" unicode="È"/>
<glyph d="M263 642l-46 -261h265l-10 -58h-265l-47 -265h295l-10 -58h-365l123 700h365l-10 -58h-295zM305 793l134 151l56 -53l-154 -129z" glyph-name="Eacute" horiz-adv-x="503" unicode="É"/>
<glyph d="M263 642l-46 -261h265l-10 -58h-265l-47 -265h295l-10 -58h-365l123 700h365l-10 -58h-295zM243 764l-1 53l168 98l140 -98l-19 -53l-136 62z" glyph-name="Ecircumflex" horiz-adv-x="503" unicode="Ê"/>
<glyph d="M307 767q-19 0 -29 12t-10 26q0 4 1 8q4 19 19.5 32.5t34.5 13.5t29 -12t10 -25q0 -4 -1 -9q-3 -19 -19 -32.5t-35 -13.5zM461 767q-19 0 -29 12t-10 26q0 4 1 8q4 19 19.5 32.5t34.5 13.5t28.5 -11.5t9.5 -24.5q0 -5 -1 -10q-3 -19 -18.5 -32.5t-34.5 -13.5zM263 642 l-46 -261h265l-10 -58h-265l-47 -265h295l-10 -58h-365l123 700h365l-10 -58h-295z" glyph-name="Edieresis" horiz-adv-x="503" unicode="Ë"/>
<glyph d="M273 699l-123 -699h-70l123 699h70zM171 860l57 70l125 -116l-41 -50z" glyph-name="Igrave" horiz-adv-x="229" unicode="Ì"/>
<glyph d="M273 699l-123 -699h-70l123 699h70zM168 793l134 151l56 -53l-154 -129z" glyph-name="Iacute" horiz-adv-x="229" unicode="Í"/>
<glyph d="M262 832l-149 -84l10 57l148 82l120 -82l-10 -57zM273 699l-123 -699h-70l123 699h70z" glyph-name="Icircumflex" horiz-adv-x="229" unicode="Î"/>
<glyph d="M173 767q-19 0 -29 12t-10 26q0 4 1 8q4 19 19.5 32.5t34.5 13.5t29 -12t10 -25q0 -4 -1 -9q-3 -19 -19 -32.5t-35 -13.5zM327 767q-19 0 -29 12t-10 26q0 4 1 8q4 19 19.5 32.5t34.5 13.5t28.5 -11.5t9.5 -24.5q0 -5 -1 -10q-3 -19 -18.5 -32.5t-34.5 -13.5zM273 699 l-123 -699h-70l123 699h70z" glyph-name="Idieresis" horiz-adv-x="229" unicode="Ï"/>
<glyph d="M435 699q116 0 191.5 -42t100 -105.5t24.5 -121.5q0 -39 -8 -82q-19 -108 -76.5 -186.5t-148 -120t-206.5 -41.5h-208l56 316h-95l11 65h95l56 318h208zM322 55q145 0 235 77.5t114 215.5q7 39 7 74q0 86 -54 153t-199 67h-137l-46 -261h204l-11 -65h-204l-46 -261h137z " glyph-name="Eth" horiz-adv-x="730" unicode="Ð"/>
<glyph d="M344 750q14 45 41.5 69t63.5 24q18 0 29.5 -6.5t27.5 -18.5q13 -11 23 -16.5t23 -5.5q17 0 31 11.5t21 33.5h42q-11 -44 -40 -68.5t-65 -24.5q-19 0 -31.5 6.5t-28.5 19.5q-12 11 -21.5 16t-22.5 5q-36 0 -50 -45h-43zM607 0h-70l-283 588l-104 -588h-70l123 699h70 l284 -587l103 587h70z" glyph-name="Ntilde" horiz-adv-x="686" unicode="Ñ"/>
<glyph d="M393 -7q-97 0 -168 45.5t-96.5 112t-25.5 126.5q0 35 7 73q18 103 78 184.5t147 127t184 45.5q98 0 169 -45.5t96 -112t25 -126.5q0 -35 -7 -73q-18 -103 -77.5 -184.5t-146.5 -127t-185 -45.5zM404 54q78 0 146 36t116 103.5t64 156.5q6 34 6 65q0 50 -19.5 104t-75 90 t-133.5 36t-146.5 -36t-116.5 -103t-63 -156q-6 -36 -6 -68q0 -48 19 -102t75 -90t134 -36zM451 860l57 70l125 -116l-41 -50z" glyph-name="Ograve" horiz-adv-x="788" unicode="Ò"/>
<glyph d="M393 -7q-97 0 -168 45.5t-96.5 112t-25.5 126.5q0 35 7 73q18 103 78 184.5t147 127t184 45.5q98 0 169 -45.5t96 -112t25 -126.5q0 -35 -7 -73q-18 -103 -77.5 -184.5t-146.5 -127t-185 -45.5zM404 54q78 0 146 36t116 103.5t64 156.5q6 34 6 65q0 50 -19.5 104t-75 90 t-133.5 36t-146.5 -36t-116.5 -103t-63 -156q-6 -36 -6 -68q0 -48 19 -102t75 -90t134 -36zM448 793l134 151l56 -53l-154 -129z" glyph-name="Oacute" horiz-adv-x="788" unicode="Ó"/>
<glyph d="M385 764l-1 53l168 98l140 -98l-19 -53l-136 62zM393 -7q-97 0 -168 45.5t-96.5 112t-25.5 126.5q0 35 7 73q18 103 78 184.5t147 127t184 45.5q98 0 169 -45.5t96 -112t25 -126.5q0 -35 -7 -73q-18 -103 -77.5 -184.5t-146.5 -127t-185 -45.5zM404 54q78 0 146 36 t116 103.5t64 156.5q6 34 6 65q0 50 -19.5 104t-75 90t-133.5 36t-146.5 -36t-116.5 -103t-63 -156q-6 -36 -6 -68q0 -48 19 -102t75 -90t134 -36z" glyph-name="Ocircumflex" horiz-adv-x="788" unicode="Ô"/>
<glyph d="M393 -7q-97 0 -168 45.5t-96.5 112t-25.5 126.5q0 35 7 73q18 103 78 184.5t147 127t184 45.5q98 0 169 -45.5t96 -112t25 -126.5q0 -35 -7 -73q-18 -103 -77.5 -184.5t-146.5 -127t-185 -45.5zM404 54q78 0 146 36t116 103.5t64 156.5q6 34 6 65q0 50 -19.5 104t-75 90 t-133.5 36t-146.5 -36t-116.5 -103t-63 -156q-6 -36 -6 -68q0 -48 19 -102t75 -90t134 -36zM386 791q4 14 12.5 31t20.5 32t27.5 25.5t33.5 10.5q15 0 29 -5t29 -11t30.5 -12t32.5 -8q37 -5 51 36l46 -4q-6 -16 -14.5 -34t-20 -33t-26.5 -24.5t-33 -9.5q-16 0 -29.5 6 t-27 13.5t-28 13.5t-32.5 6q-16 0 -30.5 -11t-22.5 -29z" glyph-name="Otilde" horiz-adv-x="788" unicode="Õ"/>
<glyph d="M458 767q-19 0 -29 12t-10 26q0 4 1 8q4 19 19.5 32.5t34.5 13.5t29 -12t10 -25q0 -4 -1 -9q-3 -19 -19 -32.5t-35 -13.5zM612 767q-19 0 -29 12t-10 26q0 4 1 8q4 19 19.5 32.5t34.5 13.5t28.5 -11.5t9.5 -24.5q0 -5 -1 -10q-3 -19 -18.5 -32.5t-34.5 -13.5zM393 -7 q-97 0 -168 45.5t-96.5 112t-25.5 126.5q0 35 7 73q18 103 78 184.5t147 127t184 45.5q98 0 169 -45.5t96 -112t25 -126.5q0 -35 -7 -73q-18 -103 -77.5 -184.5t-146.5 -127t-185 -45.5zM404 54q78 0 146 36t116 103.5t64 156.5q6 34 6 65q0 50 -19.5 104t-75 90t-133.5 36 t-146.5 -36t-116.5 -103t-63 -156q-6 -36 -6 -68q0 -48 19 -102t75 -90t134 -36z" glyph-name="Odieresis" horiz-adv-x="788" unicode="Ö"/>
<glyph d="M489 160l-136 165l-194 -165l-38 46l194 165l-134 165l53 45l136 -164l191 163l38 -46l-192 -163l136 -166z" glyph-name="multiply" horiz-adv-x="591" unicode="×"/>
<glyph d="M755 597q35 -48 44.5 -95t9.5 -80q0 -35 -7 -72q-18 -103 -77.5 -184.5t-146.5 -127t-185 -45.5q-65 0 -119 20.5t-92 59.5l-80 -73h-60l113 104q-34 47 -43 93.5t-9 79.5q0 35 7 73q18 103 78 184.5t147 127t184 45.5q65 0 118.5 -20.5t92.5 -59.5l79 73h59zM182 350 q-6 -36 -6 -69q0 -74 33 -129l468 428q-30 32 -73.5 48.5t-95.5 16.5q-78 0 -146.5 -36t-116.5 -103t-63 -156zM730 350q6 36 6 68q0 75 -34 130l-469 -428q31 -32 74.5 -49t96.5 -17q78 0 146 36t116 103.5t64 156.5z" glyph-name="Oslash" horiz-adv-x="788" unicode="Ø"/>
<glyph d="M270 699l-77 -440q-6 -33 -6 -60q0 -60 34.5 -102t120.5 -42t143 49.5t76 154.5l77 440h70l-77 -439q-24 -133 -106 -200t-195 -67t-163.5 57.5t-50.5 138.5q0 33 7 71l77 439h70zM387 860l57 70l125 -116l-41 -50z" glyph-name="Ugrave" horiz-adv-x="661" unicode="Ù"/>
<glyph d="M270 699l-77 -440q-6 -33 -6 -60q0 -60 34.5 -102t120.5 -42t143 49.5t76 154.5l77 440h70l-77 -439q-24 -133 -106 -200t-195 -67t-163.5 57.5t-50.5 138.5q0 33 7 71l77 439h70zM384 793l134 151l56 -53l-154 -129z" glyph-name="Uacute" horiz-adv-x="661" unicode="Ú"/>
<glyph d="M477 832l-149 -84l10 57l148 82l120 -82l-10 -57zM270 699l-77 -440q-6 -33 -6 -60q0 -60 34.5 -102t120.5 -42t143 49.5t76 154.5l77 440h70l-77 -439q-24 -133 -106 -200t-195 -67t-163.5 57.5t-50.5 138.5q0 33 7 71l77 439h70z" glyph-name="Ucircumflex" horiz-adv-x="661" unicode="Û"/>
<glyph d="M389 767q-19 0 -29 12t-10 26q0 4 1 8q4 19 19.5 32.5t34.5 13.5t29 -12t10 -25q0 -4 -1 -9q-3 -19 -19 -32.5t-35 -13.5zM543 767q-19 0 -29 12t-10 26q0 4 1 8q4 19 19.5 32.5t34.5 13.5t28.5 -11.5t9.5 -24.5q0 -5 -1 -10q-3 -19 -18.5 -32.5t-34.5 -13.5zM270 699 l-77 -440q-6 -33 -6 -60q0 -60 34.5 -102t120.5 -42t143 49.5t76 154.5l77 440h70l-77 -439q-24 -133 -106 -200t-195 -67t-163.5 57.5t-50.5 138.5q0 33 7 71l77 439h70z" glyph-name="Udieresis" horiz-adv-x="661" unicode="Ü"/>
<glyph d="M665 699l-299 -427l-48 -272h-70l48 272l-151 427h79l118 -363l245 363h78zM336 793l134 151l56 -53l-154 -129z" glyph-name="Yacute" horiz-adv-x="564" unicode="Ý"/>
<glyph d="M589 350q-16 -90 -85 -145t-187 -55h-141l-26 -150h-70l123 700h69l-26 -149h142q117 0 161 -48.5t44 -110.5q0 -20 -4 -42zM327 207q85 0 131.5 37.5t58.5 105.5q3 19 3 36q0 108 -142 108h-141l-51 -287h141z" glyph-name="Thorn" horiz-adv-x="564" unicode="Þ"/>
<glyph d="M165 560q16 93 83.5 150.5t175.5 57.5q65 0 108.5 -21.5t58.5 -52t15 -59.5q0 -12 -2 -26q-8 -47 -36.5 -78t-77.5 -68q-35 -26 -51.5 -42.5t-19.5 -35.5q-1 -5 -1 -9q0 -19 19.5 -35.5t83.5 -38.5q67 -23 89.5 -55.5t22.5 -69.5q0 -14 -3 -30q-13 -71 -68.5 -114 t-139.5 -43t-126 44.5t-42 111.5q0 10 1 21h71q-1 -7 -1 -14q0 -45 26 -75.5t81 -30.5q51 0 84 25.5t41 69.5q2 11 2 20q0 26 -17 47t-72 40q-75 27 -100 52t-25 58q0 8 1 17q6 35 29.5 60.5t67.5 58.5q42 32 63.5 55t27.5 54q2 9 2 18q0 36 -29.5 61.5t-93.5 25.5 q-76 0 -121 -41t-59 -116l-97 -552h-70z" glyph-name="germandbls" horiz-adv-x="665" unicode="ß"/>
<glyph d="M96 274q15 84 60 147.5t110.5 98t140.5 34.5q78 0 128 -36t65 -92l21 120h70l-96 -546h-70l21 121q-35 -56 -98 -92.5t-141 -36.5q-74 0 -127.5 35t-71 86.5t-17.5 98.5q0 29 5 62zM573 273q5 26 5 49q0 37 -15 77t-56.5 67t-97.5 27q-58 0 -108.5 -26t-86 -75.5 t-47.5 -117.5q-4 -26 -4 -49q0 -37 14 -78t55 -67.5t99 -26.5q56 0 107.5 27t87.5 77t47 116zM363 706l57 70l125 -116l-41 -50z" glyph-name="agrave" unicode="à"/>
<glyph d="M96 274q15 84 60 147.5t110.5 98t140.5 34.5q78 0 128 -36t65 -92l21 120h70l-96 -546h-70l21 121q-35 -56 -98 -92.5t-141 -36.5q-74 0 -127.5 35t-71 86.5t-17.5 98.5q0 29 5 62zM573 273q5 26 5 49q0 37 -15 77t-56.5 67t-97.5 27q-58 0 -108.5 -26t-86 -75.5 t-47.5 -117.5q-4 -26 -4 -49q0 -37 14 -78t55 -67.5t99 -26.5q56 0 107.5 27t87.5 77t47 116zM370 639l134 151l56 -53l-154 -129z" glyph-name="aacute" unicode="á"/>
<glyph d="M96 274q15 84 60 147.5t110.5 98t140.5 34.5q78 0 128 -36t65 -92l21 120h70l-96 -546h-70l21 121q-35 -56 -98 -92.5t-141 -36.5q-74 0 -127.5 35t-71 86.5t-17.5 98.5q0 29 5 62zM573 273q5 26 5 49q0 37 -15 77t-56.5 67t-97.5 27q-58 0 -108.5 -26t-86 -75.5 t-47.5 -117.5q-4 -26 -4 -49q0 -37 14 -78t55 -67.5t99 -26.5q56 0 107.5 27t87.5 77t47 116zM302 610l-1 53l168 98l140 -98l-19 -53l-136 62z" glyph-name="acircumflex" unicode="â"/>
<glyph d="M96 274q15 84 60 147.5t110.5 98t140.5 34.5q78 0 128 -36t65 -92l21 120h70l-96 -546h-70l21 121q-35 -56 -98 -92.5t-141 -36.5q-74 0 -127.5 35t-71 86.5t-17.5 98.5q0 29 5 62zM573 273q5 26 5 49q0 37 -15 77t-56.5 67t-97.5 27q-58 0 -108.5 -26t-86 -75.5 t-47.5 -117.5q-4 -26 -4 -49q0 -37 14 -78t55 -67.5t99 -26.5q56 0 107.5 27t87.5 77t47 116zM303 637q4 14 12.5 31t20.5 32t27.5 25.5t33.5 10.5q15 0 29 -5t29 -11t30.5 -12t32.5 -8q37 -5 51 36l46 -4q-6 -16 -14.5 -34t-20 -33t-26.5 -24.5t-33 -9.5q-16 0 -29.5 6 t-27 13.5t-28 13.5t-32.5 6q-16 0 -30.5 -11t-22.5 -29z" glyph-name="atilde" unicode="ã"/>
<glyph d="M373 623q-19 0 -29 12t-10 26q0 4 1 8q3 19 19 32.5t35 13.5t29 -12t10 -26q0 -4 -1 -8q-3 -19 -19 -32.5t-35 -13.5zM527 623q-19 0 -29 12t-10 26q0 4 1 8q3 19 19 32.5t35 13.5t28.5 -12t9.5 -26q0 -4 -1 -8q-3 -19 -18.5 -32.5t-34.5 -13.5zM96 274q15 84 60 147.5 t110.5 98t140.5 34.5q78 0 128 -36t65 -92l21 120h70l-96 -546h-70l21 121q-36 -56 -98.5 -92.5t-140.5 -36.5q-74 0 -127.5 35t-71 86.5t-17.5 98.5q0 29 5 62zM573 273q5 26 5 49q0 37 -15 77t-56.5 67t-97.5 27q-58 0 -108.5 -26t-86 -75.5t-47.5 -117.5q-5 -27 -5 -51 q0 -36 14.5 -76.5t55.5 -67t99 -26.5q56 0 107.5 27t87 77t47.5 116z" glyph-name="adieresis" unicode="ä"/>
<glyph d="M566 710q-8 -45 -41.5 -72.5t-77.5 -27.5q-43 0 -65 24t-22 55q0 10 2 21q8 45 42.5 72.5t77.5 27.5q44 0 65 -24t21 -55q0 -10 -2 -21zM523 710q1 7 1 14q0 18 -12 32.5t-37 14.5t-44.5 -16.5t-24.5 -44.5q-1 -7 -1 -14q0 -18 11.5 -32.5t36.5 -14.5t45 17t25 44z M96 274q15 84 60 147.5t110.5 98t140.5 34.5q78 0 128 -36t65 -92l21 120h70l-96 -546h-70l21 121q-36 -56 -98.5 -92.5t-140.5 -36.5q-74 0 -127.5 35t-71 86.5t-17.5 98.5q0 29 5 62zM573 273q5 26 5 49q0 37 -15 77t-56.5 67t-97.5 27q-58 0 -108.5 -26t-86 -75.5 t-47.5 -117.5q-5 -27 -5 -51q0 -36 14.5 -76.5t55.5 -67t99 -26.5q56 0 107.5 27t87 77t47.5 116z" glyph-name="aring" unicode="å"/>
<glyph d="M1114 302q-5 -29 -13 -54h-461q-2 -17 -2 -33q0 -43 18.5 -81.5t59 -60.5t89.5 -22q72 0 126 33t77 89h76q-34 -80 -107.5 -130.5t-170.5 -50.5q-74 0 -127 35.5t-69 98.5l-22 -126h-61l22 126q-37 -60 -101 -97t-140 -37q-75 0 -128.5 35t-71 86.5t-17.5 98.5q0 29 5 62 q15 84 60.5 147.5t111.5 98t142 34.5q75 0 124.5 -35t69.5 -96l21 123h59l-22 -124q44 66 107 99t136 33q77 0 128.5 -34t68 -81t16.5 -88q0 -24 -4 -49zM1042 300q5 26 5 48q0 32 -14.5 67t-54.5 57t-94 22q-52 0 -100.5 -22.5t-84 -66.5t-50.5 -105h393zM331 53 q56 0 107.5 27t87 77t47.5 116q5 26 5 49q0 37 -15 77t-56.5 67t-97.5 27q-58 0 -108.5 -26t-86 -75.5t-47.5 -117.5q-5 -27 -5 -51q0 -36 14.5 -76.5t55.5 -67t99 -26.5z" glyph-name="ae" horiz-adv-x="1108" unicode="æ"/>
<glyph d="M322 51q69 0 121.5 33.5t76.5 93.5h75q-32 -79 -100 -129t-160 -56l-11 -60h9q53 0 79 -21t26 -54q0 -8 -2 -18q-8 -45 -44.5 -71.5t-89.5 -26.5h-100l8 47h86q37 0 56.5 12.5t24.5 38.5q1 5 1 9q0 39 -65 39h-46l19 105q-69 6 -117 41.5t-63.5 84t-15.5 90.5q0 31 6 64 q15 85 60.5 148.5t111.5 98t143 34.5q101 0 157.5 -50t60.5 -136h-75q-4 59 -44.5 92.5t-109.5 33.5q-55 0 -103.5 -25t-82.5 -74.5t-47 -121.5q-6 -31 -6 -58q0 -36 13.5 -75t53 -64t94.5 -25z" glyph-name="ccedilla" horiz-adv-x="613" unicode="ç"/>
<glyph d="M627 301q-6 -36 -12 -55h-453q-2 -18 -2 -35q0 -40 16.5 -77.5t56.5 -60t92 -22.5q68 0 120.5 33t77.5 89h74q-35 -80 -109 -130.5t-173 -50.5q-77 0 -132 34.5t-74 85.5t-19 98q0 30 6 63q15 85 60.5 149t112.5 98t145 34t130.5 -34t69.5 -81t17 -89q0 -24 -4 -49z M556 303q5 24 5 46q0 32 -14.5 66.5t-54.5 56.5t-92 22q-78 0 -141.5 -50t-86.5 -141h384zM337 706l57 70l125 -116l-41 -50z" glyph-name="egrave" horiz-adv-x="622" unicode="è"/>
<glyph d="M627 301q-6 -36 -12 -55h-453q-2 -18 -2 -35q0 -40 16.5 -77.5t56.5 -60t92 -22.5q68 0 120.5 33t77.5 89h74q-35 -80 -109 -130.5t-173 -50.5q-77 0 -132 34.5t-74 85.5t-19 98q0 30 6 63q15 85 60.5 149t112.5 98t145 34t130.5 -34t69.5 -81t17 -89q0 -24 -4 -49z M556 303q5 24 5 46q0 32 -14.5 66.5t-54.5 56.5t-92 22q-78 0 -141.5 -50t-86.5 -141h384zM344 639l134 151l56 -53l-154 -129z" glyph-name="eacute" horiz-adv-x="622" unicode="é"/>
<glyph d="M627 301q-6 -36 -12 -55h-453q-2 -18 -2 -35q0 -40 16.5 -77.5t56.5 -60t92 -22.5q68 0 120.5 33t77.5 89h74q-35 -80 -109 -130.5t-173 -50.5q-77 0 -132 34.5t-74 85.5t-19 98q0 30 6 63q15 85 60.5 149t112.5 98t145 34t130.5 -34t69.5 -81t17 -89q0 -24 -4 -49z M556 303q5 24 5 46q0 32 -14.5 66.5t-54.5 56.5t-92 22q-78 0 -141.5 -50t-86.5 -141h384zM276 610l-1 53l168 98l140 -98l-19 -53l-136 62z" glyph-name="ecircumflex" horiz-adv-x="622" unicode="ê"/>
<glyph d="M345 623q-19 0 -29 12t-10 26q0 4 1 8q3 19 19 32.5t35 13.5t29 -12t10 -26q0 -4 -1 -8q-3 -19 -19 -32.5t-35 -13.5zM499 623q-19 0 -29 12t-10 26q0 4 1 8q3 19 19 32.5t35 13.5t28.5 -12t9.5 -26q0 -4 -1 -8q-3 -19 -18.5 -32.5t-34.5 -13.5zM627 301q-6 -36 -12 -55 h-453q-2 -18 -2 -35q0 -40 16.5 -77.5t56.5 -60t92 -22.5q68 0 120.5 33t77.5 89h74q-35 -80 -109 -130.5t-173 -50.5q-77 0 -132 34.5t-74 85.5t-19 98q0 30 6 63q15 85 60.5 149t112.5 98t145 34t130.5 -34t69.5 -81t17 -89q0 -24 -4 -49zM556 303q5 24 5 46 q0 32 -14.5 66.5t-54.5 56.5t-92 22q-78 0 -142 -50t-86 -141h384z" glyph-name="edieresis" horiz-adv-x="622" unicode="ë"/>
<glyph d="M246 546l-96 -546h-70l96 546h70zM140 706l57 70l125 -116l-41 -50z" glyph-name="igrave" horiz-adv-x="229" unicode="ì"/>
<glyph d="M246 546l-96 -546h-70l96 546h70zM147 639l134 151l56 -53l-154 -129z" glyph-name="iacute" horiz-adv-x="229" unicode="í"/>
<glyph d="M236 688l-148 -84l10 57l148 82l120 -82l-10 -57zM246 546l-96 -546h-70l96 546h70z" glyph-name="icircumflex" horiz-adv-x="229" unicode="î"/>
<glyph d="M148 623q-19 0 -29 12t-10 26q0 4 1 8q3 19 19 32.5t35 13.5t29 -12t10 -26q0 -4 -1 -8q-3 -19 -19 -32.5t-35 -13.5zM302 623q-19 0 -29 12t-10 26q0 4 1 8q3 19 19 32.5t35 13.5t28.5 -12t9.5 -26q0 -4 -1 -8q-3 -19 -18.5 -32.5t-34.5 -13.5zM246 546l-96 -546h-70 l96 546h70z" glyph-name="idieresis" horiz-adv-x="229" unicode="ï"/>
<glyph d="M565 664q60 -77 75.5 -143.5t15.5 -115.5q0 -45 -9 -93q-18 -104 -66 -176t-115.5 -108t-148.5 -36q-80 0 -135 36t-73 88t-18 97q0 32 7 68q14 82 59 144.5t111.5 96.5t143.5 34q68 0 114.5 -31t64.5 -93q-4 61 -23 112.5t-57 102.5l-147 -48l7 41l114 37q-19 23 -61 63 h72l45 -45l144 47l-7 -41zM327 51q55 0 106 26t87.5 76.5t48.5 119.5q5 28 5 52q0 38 -15 79t-56 67t-96 26q-56 0 -106 -25t-85 -74t-47 -117q-6 -31 -6 -59q0 -36 13.5 -76.5t53.5 -67.5t97 -27z" glyph-name="eth" horiz-adv-x="640" unicode="ð"/>
<glyph d="M285 606q14 45 41 69t63 24q18 0 30 -6.5t28 -18.5q13 -11 23 -16.5t23 -5.5q17 0 31 11.5t21 33.5h42q-12 -44 -40.5 -68.5t-64.5 -24.5q-19 0 -31.5 6.5t-28.5 19.5q-12 11 -21.5 16t-22.5 5q-36 0 -50 -45h-43zM434 556q98 0 142 -51.5t44 -122.5q0 -29 -6 -62 l-56 -320h-69l55 312q5 27 5 50q0 53 -31 93t-108 40q-79 0 -134.5 -50t-72.5 -147l-53 -298h-70l96 546h70l-16 -93q35 50 88.5 76.5t115.5 26.5z" glyph-name="ntilde" horiz-adv-x="633" unicode="ñ"/>
<glyph d="M318 -8q-77 0 -132.5 34.5t-75.5 86t-20 99.5q0 29 6 61q15 85 62.5 148.5t115.5 98t145 34.5t133.5 -34.5t76 -86t19.5 -98.5q0 -29 -6 -62q-15 -84 -62 -148t-116 -98.5t-146 -34.5zM328 53q54 0 104.5 24.5t87.5 74t50 121.5q5 29 5 54q0 38 -15.5 77.5t-57 64 t-95.5 24.5t-104.5 -24.5t-86.5 -74t-49 -121.5q-5 -29 -5 -55q0 -37 15 -76.5t56 -64t95 -24.5zM347 706l57 70l125 -116l-41 -50z" glyph-name="ograve" horiz-adv-x="642" unicode="ò"/>
<glyph d="M318 -8q-77 0 -132.5 34.5t-75.5 86t-20 99.5q0 29 6 61q15 85 62.5 148.5t115.5 98t145 34.5t133.5 -34.5t76 -86t19.5 -98.5q0 -29 -6 -62q-15 -84 -62 -148t-116 -98.5t-146 -34.5zM328 53q54 0 104.5 24.5t87.5 74t50 121.5q5 29 5 54q0 38 -15.5 77.5t-57 64 t-95.5 24.5t-104.5 -24.5t-86.5 -74t-49 -121.5q-5 -29 -5 -55q0 -37 15 -76.5t56 -64t95 -24.5zM354 639l134 151l56 -53l-154 -129z" glyph-name="oacute" horiz-adv-x="642" unicode="ó"/>
<glyph d="M318 -8q-77 0 -132.5 34.5t-75.5 86t-20 99.5q0 29 6 61q15 85 62.5 148.5t115.5 98t145 34.5t133.5 -34.5t76 -86t19.5 -98.5q0 -29 -6 -62q-15 -84 -62 -148t-116 -98.5t-146 -34.5zM328 53q54 0 104.5 24.5t87.5 74t50 121.5q5 29 5 54q0 38 -15.5 77.5t-57 64 t-95.5 24.5t-104.5 -24.5t-86.5 -74t-49 -121.5q-5 -29 -5 -55q0 -37 15 -76.5t56 -64t95 -24.5zM286 610l-1 53l168 98l140 -98l-19 -53l-136 62z" glyph-name="ocircumflex" horiz-adv-x="642" unicode="ô"/>
<glyph d="M318 -8q-77 0 -132.5 34.5t-75.5 86t-20 99.5q0 29 6 61q15 85 62.5 148.5t115.5 98t145 34.5t133.5 -34.5t76 -86t19.5 -98.5q0 -29 -6 -62q-15 -84 -62 -148t-116 -98.5t-146 -34.5zM328 53q54 0 104.5 24.5t87.5 74t50 121.5q5 29 5 54q0 38 -15.5 77.5t-57 64 t-95.5 24.5t-104.5 -24.5t-86.5 -74t-49 -121.5q-5 -29 -5 -55q0 -37 15 -76.5t56 -64t95 -24.5zM287 637q4 14 12.5 31t20.5 32t27.5 25.5t33.5 10.5q15 0 29 -5t29 -11t30.5 -12t32.5 -8q37 -5 51 36l46 -4q-6 -16 -14.5 -34t-20 -33t-26.5 -24.5t-33 -9.5q-16 0 -29.5 6 t-27 13.5t-28 13.5t-32.5 6q-16 0 -30.5 -11t-22.5 -29z" glyph-name="otilde" horiz-adv-x="642" unicode="õ"/>
<glyph d="M357 628q-19 0 -29 12t-10 25q0 4 1 9q3 19 19 32.5t35 13.5t29 -12t10 -26q0 -4 -1 -8q-4 -19 -19.5 -32.5t-34.5 -13.5zM511 628q-19 0 -29 12t-10 25q0 4 1 9q3 19 19 32.5t35 13.5t28.5 -12t9.5 -26q0 -4 -1 -8q-4 -19 -19 -32.5t-34 -13.5zM318 -8 q-77 0 -132.5 34.5t-75.5 86t-20 99.5q0 29 6 61q15 85 62.5 148.5t115.5 98t145 34.5t133.5 -34.5t76 -86t19.5 -98.5q0 -29 -6 -62q-15 -84 -62 -148t-116 -98.5t-146 -34.5zM328 53q54 0 104.5 24.5t87.5 74t50 121.5q5 29 5 54q0 38 -15.5 77.5t-57 64t-95.5 24.5 t-104.5 -24.5t-86.5 -74t-49 -121.5q-5 -29 -5 -55q0 -37 15 -76.5t56 -64t95 -24.5z" glyph-name="odieresis" horiz-adv-x="642" unicode="ö"/>
<glyph d="M418 534q-22 0 -32.5 13t-10.5 28q0 6 1 11q4 22 21 36.5t39 14.5q21 0 31.5 -12.5t10.5 -27.5q0 -5 -1 -11q-4 -22 -21 -37t-38 -15zM647 400l-11 -59h-509l11 59h509zM343 105q-22 0 -32.5 13t-10.5 28q0 6 1 11q4 22 21 36.5t39 14.5q21 0 31.5 -12.5t10.5 -27.5 q0 -5 -1 -11q-4 -22 -21 -37t-38 -15z" glyph-name="divide" horiz-adv-x="637" unicode="÷"/>
<glyph d="M608 468q40 -56 40 -133q0 -29 -6 -62q-15 -84 -62 -148t-116 -98.5t-146 -34.5q-100 0 -164 58l-54 -50h-53l84 77q-27 37 -33.5 73.5t-6.5 62.5q0 28 5 60q15 85 62.5 148.5t115.5 98t145 34.5q103 0 165 -59l56 51h52zM167 273q-5 -28 -5 -53q0 -54 22 -93l348 319 q-46 47 -125 47q-54 0 -104.5 -24.5t-86.5 -74t-49 -121.5zM570 273q5 29 5 54q0 52 -22 90l-347 -319q46 -45 122 -45q54 0 104.5 24.5t87.5 74t50 121.5z" glyph-name="oslash" horiz-adv-x="642" unicode="ø"/>
<glyph d="M649 546l-96 -546h-70l17 96q-33 -51 -88 -78t-117 -27q-98 0 -142 52t-44 124q0 28 6 60l56 319h69l-55 -311q-4 -26 -4 -49q0 -54 30.5 -94t107.5 -40q79 0 135 50t73 147l52 297h70zM342 706l57 70l125 -116l-41 -50z" glyph-name="ugrave" horiz-adv-x="633" unicode="ù"/>
<glyph d="M649 546l-96 -546h-70l17 96q-33 -51 -88 -78t-117 -27q-98 0 -142 52t-44 124q0 28 6 60l56 319h69l-55 -311q-4 -26 -4 -49q0 -54 30.5 -94t107.5 -40q79 0 135 50t73 147l52 297h70zM349 639l134 151l56 -53l-154 -129z" glyph-name="uacute" horiz-adv-x="633" unicode="ú"/>
<glyph d="M438 688l-148 -84l10 57l148 82l120 -82l-10 -57zM649 546l-96 -546h-70l17 96q-33 -51 -88 -78t-117 -27q-98 0 -142 52t-44 124q0 28 6 60l56 319h69l-55 -311q-4 -26 -4 -49q0 -54 30.5 -94t107.5 -40q79 0 135 50t73 147l52 297h70z" glyph-name="ucircumflex" horiz-adv-x="633" unicode="û"/>
<glyph d="M351 623q-19 0 -29 12t-10 26q0 4 1 8q3 19 19 32.5t35 13.5t29 -12t10 -26q0 -4 -1 -8q-3 -19 -19 -32.5t-35 -13.5zM505 623q-19 0 -29 12t-10 26q0 4 1 8q3 19 19 32.5t35 13.5t28.5 -12t9.5 -26q0 -4 -1 -8q-3 -19 -18.5 -32.5t-34.5 -13.5zM649 546l-96 -546h-70 l17 96q-33 -51 -88 -78t-117 -27q-98 0 -142 52t-44 124q0 28 6 60l56 319h69l-55 -311q-4 -26 -4 -49q0 -54 30.5 -94t107.5 -40q79 0 135 50t73 147l52 297h70z" glyph-name="udieresis" horiz-adv-x="633" unicode="ü"/>
<glyph d="M626 546l-465 -803h-73l152 260l-129 543h77l104 -466l262 466h72zM305 639l134 151l56 -53l-154 -129z" glyph-name="yacute" horiz-adv-x="545" unicode="ý"/>
<glyph d="M222 412q36 64 99.5 103t142.5 39q74 0 127.5 -34.5t71 -85t17.5 -95.5q0 -31 -6 -65q-14 -84 -59 -148t-110.5 -99t-139.5 -35q-79 0 -128.5 39.5t-63.5 104.5l-69 -394h-69l175 998h69zM603 274q5 28 5 52q0 36 -14 75.5t-55.5 65.5t-99.5 26q-56 0 -107.5 -27t-87 -77 t-47.5 -116q-5 -26 -5 -49q0 -37 15 -77t56.5 -67t97.5 -27q58 0 109 26.5t86 77t47 117.5z" glyph-name="thorn" unicode="þ"/>
<glyph d="M246 546l-96 -546h-70l96 546h70z" glyph-name="dotlessi" horiz-adv-x="229" unicode="ı"/>
<glyph d="M182 610l-1 53l168 98l140 -98l-19 -53l-136 62z" glyph-name="circumflex" horiz-adv-x="417" unicode="ˆ"/>
<glyph d="M210 637q4 14 12.5 31t20.5 32t27.5 25.5t33.5 10.5q15 0 29 -5t29 -11t30.5 -12t32.5 -8q37 -5 51 36l46 -4q-6 -16 -14.5 -34t-20 -33t-26.5 -24.5t-33 -9.5q-16 0 -29.5 6t-27 13.5t-28 13.5t-32.5 6q-16 0 -30.5 -11t-22.5 -29z" glyph-name="tilde" horiz-adv-x="458" unicode="˜"/>
</font>
</defs>
</svg>
