<?xml version="1.0" encoding="UTF-8"?>
<!DOCTYPE svg  PUBLIC '-//W3C//DTD SVG 1.1//EN'  'http://www.w3.org/Graphics/SVG/1.1/DTD/svg11.dtd'>
<svg version="1.1" xmlns="http://www.w3.org/2000/svg">
<defs>
<font id="FzPoppins-ExtraLightItalic" horiz-adv-x="673">
<font-face font-family="s" font-style="italic" font-weight="200" ascent="800" bbox="-71 -266 1127 947" cap-height="702" descent="-200" panose-1="0 0 0 0 0 0 0 0 0 0" slope="-10" underline-position="-100" underline-thickness="50" unicode-range="U+0020-02DC" units-per-em="1000" x-height="543"/>
<missing-glyph/>
<glyph glyph-name="space" horiz-adv-x="282" unicode=" "/>
<glyph d="M272 702l-99 -531h-39l88 531h50zM125 -3q-17 0 -25 9.5t-8 21.5q0 4 1 8q3 17 16 28t30 11q16 0 24 -9.5t8 -21.5q0 -4 -1 -8q-3 -17 -16 -28t-29 -11z" glyph-name="exclam" horiz-adv-x="251" unicode="!"/>
<glyph d="M229 794l-42 -186h-32l23 186h51zM331 794l-41 -186h-33l24 186h50z" glyph-name="quotedbl" horiz-adv-x="230" unicode='"'/>
<glyph d="M654 463l-75 -192h149l-7 -40h-158l-90 -231h-44l90 231h-236l-90 -231h-44l90 231h-160l7 40h169l75 192h-158l7 40h166l92 237h44l-92 -237h236l92 237h44l-92 -237h152l-7 -40h-160zM610 463h-236l-75 -192h236z" glyph-name="numbersign" horiz-adv-x="777" unicode="#"/>
<glyph d="M525 177q-8 -46 -37 -88t-79 -69t-117 -27l-14 -80h-32l14 81q-85 8 -126.5 54.5t-41.5 103.5q0 10 1 21h47v-8q0 -44 29.5 -84t97.5 -48l54 308q-63 19 -99.5 37t-54 48.5t-17.5 65.5q0 19 4 40q9 50 39.5 90t80 63.5t112.5 23.5l15 87h32l-15 -88q78 -8 118.5 -53 t40.5 -107h-47q-2 41 -30.5 77t-88.5 44l-52 -295q61 -18 98.5 -37t54.5 -51t17 -67q0 -20 -4 -42zM200 534q-3 -16 -3 -29q0 -27 13 -51t42.5 -40.5t76.5 -30.5l50 288q-71 -1 -119 -36.5t-60 -100.5zM298 31q76 1 123.5 42t58.5 102q3 17 3 32q0 44 -30.5 73t-101.5 51z " glyph-name="dollar" horiz-adv-x="566" unicode="$"/>
<glyph d="M144 574q11 60 55.5 98t102.5 38t85.5 -33t27.5 -73q0 -14 -3 -30q-10 -60 -55 -98t-103 -38t-85 33.5t-27 74.5q0 13 2 28zM699 702l-541 -702h-46l540 702h47zM297 679q-42 0 -73.5 -28.5t-40.5 -76.5q-2 -13 -2 -24q0 -31 18.5 -56t60.5 -25t73.5 29t39.5 76 q3 14 3 27q0 29 -18.5 53.5t-60.5 24.5zM399 127q11 60 55.5 98t102.5 38t85 -33t27 -73q0 -14 -3 -30q-10 -60 -54.5 -98t-102.5 -38t-85 33.5t-27 74.5q0 13 2 28zM551 232q-42 0 -73.5 -28.5t-40.5 -76.5q-2 -13 -2 -24q0 -31 18.5 -55.5t60.5 -24.5q43 0 74.5 28.5 t39.5 75.5q3 14 3 27q0 29 -18.5 53.5t-61.5 24.5z" glyph-name="percent" horiz-adv-x="688" unicode="%"/>
<glyph d="M650 243q-47 -63 -88 -107l108 -136h-57l-83 103q-61 -59 -123.5 -86.5t-135.5 -27.5q-67 0 -115.5 26.5t-66 66t-17.5 76.5q0 20 4 41q13 75 65.5 129.5t138.5 85.5q-32 41 -41 69.5t-9 52.5q0 14 3 30q11 64 63.5 104t126.5 40q44 0 78 -18t46.5 -45.5t12.5 -53.5 q0 -14 -3 -29h-45q2 12 2 23q0 34 -25.5 59.5t-73.5 25.5q-53 0 -91 -29.5t-46 -76.5q-2 -11 -2 -22q0 -23 10.5 -49.5t41.5 -66.5l209 -262q35 40 81 98l73 97h48zM278 29q64 0 118 25t110 80l-202 250l-3 -1q-157 -54 -180 -183q-3 -16 -3 -30q0 -31 14.5 -64t53 -55 t92.5 -22z" glyph-name="ampersand" horiz-adv-x="696" unicode="&amp;"/>
<glyph d="M234 794l-44 -186h-32l20 186h56z" glyph-name="quotesingle" horiz-adv-x="133" unicode="'"/>
<glyph d="M246 -186q-75 94 -97 202t-22 187q0 80 15 168q31 175 113 322t194 241h48l-1 -5q-122 -104 -201.5 -249.5t-108.5 -308.5q-14 -82 -14 -159q0 -75 20.5 -182t102.5 -211l-1 -5h-48z" glyph-name="parenleft" horiz-adv-x="379" unicode="("/>
<glyph d="M19 -186l1 5q118 104 196.5 247t106.5 305q15 82 15 160q0 76 -21.5 185t-105.5 213l1 5h48q78 -94 100.5 -203.5t22.5 -188.5q0 -82 -16 -171q-30 -174 -110.5 -318.5t-189.5 -238.5h-48z" glyph-name="parenright" horiz-adv-x="379" unicode=")"/>
<glyph d="M491 652l13 -35l-157 -71l134 -71l-26 -35l-123 84l-22 -164h-40l36 164l-152 -85l-14 36l158 71l-131 71l25 35l122 -85l22 163h40l-36 -163z" glyph-name="asterisk" horiz-adv-x="449" unicode="*"/>
<glyph d="M629 356h-234l-42 -236h-43l42 236h-233l6 38h233l42 236h43l-42 -236h234z" glyph-name="plus" horiz-adv-x="622" unicode="+"/>
<glyph d="M131 105l-140 -256h-34l122 256h52z" glyph-name="comma" horiz-adv-x="143" unicode=","/>
<glyph d="M444 395l-7 -39h-376l7 39h376z" glyph-name="hyphen" horiz-adv-x="482" unicode="-"/>
<glyph d="M75 -3q-17 0 -25.5 9.5t-8.5 21.5q0 4 1 8q3 17 16 28t30 11q16 0 24 -9.5t8 -21.5q0 -4 -1 -8q-3 -17 -15.5 -28t-28.5 -11z" glyph-name="period" horiz-adv-x="149" unicode="."/>
<glyph d="M525 937l-470 -1098h-45l469 1098h46z" glyph-name="slash" horiz-adv-x="400" unicode="/"/>
<glyph d="M130 359q31 173 97.5 266.5t200.5 93.5q133 0 158.5 -71t25.5 -141q0 -65 -15 -148q-31 -175 -97.5 -269.5t-199.5 -94.5q-134 0 -159.5 72t-25.5 142q0 66 15 150zM553 359q16 88 16 152q0 9 -1.5 47.5t-35.5 79t-111 40.5t-126 -40.5t-75.5 -109.5t-44.5 -169 q-16 -90 -16 -154q0 -9 1.5 -48t35.5 -80t111 -41t126 41t75.5 110.5t44.5 171.5z" glyph-name="zero" horiz-adv-x="602" unicode="0"/>
<glyph d="M141 670l7 41h148l-125 -711h-45l118 670h-103z" glyph-name="one" horiz-adv-x="259" unicode="1"/>
<glyph d="M56 33q211 130 340.5 251t149.5 232q4 22 4 41q0 46 -26 85t-113 39t-142.5 -53t-76.5 -140h-44q26 110 98 171t172 61q91 0 134 -44t43 -109q0 -23 -5 -50q-22 -125 -159 -252t-301 -224h399l-6 -38h-472z" glyph-name="two" horiz-adv-x="570" unicode="2"/>
<glyph d="M157 525q25 91 95.5 143t171.5 52q65 0 107 -23.5t56 -56.5t14 -64q0 -16 -3 -34q-12 -64 -59 -110.5t-129 -55.5l-1 -6q75 -12 109 -53t34 -92q0 -19 -4 -40q-15 -84 -80 -137.5t-172 -53.5q-101 0 -155 52t-54 142v13h44v-3q0 -72 43.5 -118t128.5 -46q86 0 138 43 t64 111q3 17 3 33q0 58 -49.5 94.5t-165.5 36.5h-19l7 39h20q226 1 252 148q3 15 3 29q0 44 -31.5 78.5t-108.5 34.5q-75 0 -133.5 -39.5t-81.5 -116.5h-44z" glyph-name="three" horiz-adv-x="580" unicode="3"/>
<glyph d="M59 180l6 35l468 493h51l-86 -489h114l-7 -39h-114l-32 -180h-44l32 180h-388zM531 654l-412 -435h336z" glyph-name="four" horiz-adv-x="593" unicode="4"/>
<glyph d="M628 671h-384l-50 -287q33 38 89.5 62.5t117.5 24.5q81 0 127 -32.5t56.5 -73t10.5 -71.5q0 -26 -5 -53q-11 -68 -46 -123.5t-94.5 -89t-140.5 -33.5q-98 0 -151 52.5t-53 139.5v6h44q1 -77 46 -117.5t121 -40.5q97 0 156 56.5t75 148.5q5 25 5 48q0 56 -35 100t-127 44 q-63 0 -117.5 -28t-89.5 -77h-42l67 384h427z" glyph-name="five" horiz-adv-x="605" unicode="5"/>
<glyph d="M585 532v8q0 66 -34.5 104.5t-107.5 38.5q-103 0 -170.5 -76t-97.5 -246l-6 -39q28 69 96 109.5t149 40.5q108 0 150.5 -55.5t42.5 -126.5q0 -28 -6 -61q-11 -64 -44.5 -117t-91 -85t-135.5 -32q-150 0 -180 74t-30 149q0 59 13 132q31 179 107.5 275t209.5 96 q93 0 135.5 -49.5t42.5 -125.5v-14h-43zM400 433q-51 0 -101.5 -21t-87.5 -63.5t-48 -103.5q-4 -23 -4 -45q0 -31 11 -69.5t53 -68t112 -29.5q86 0 146 52t76 143q5 28 5 53q0 61 -35.5 106.5t-126.5 45.5z" glyph-name="six" horiz-adv-x="621" unicode="6"/>
<glyph d="M597 674l-399 -674h-46l402 671h-418l7 39h460z" glyph-name="seven" horiz-adv-x="517" unicode="7"/>
<glyph d="M281 367q-67 18 -90.5 55.5t-23.5 78.5q0 16 3 34q15 82 85.5 133t179.5 51t155.5 -45.5t46.5 -103.5q0 -17 -3 -35q-10 -61 -53 -105.5t-116 -62.5q72 -16 101.5 -57.5t29.5 -88.5q0 -18 -4 -38q-16 -95 -93.5 -150.5t-194.5 -55.5t-168 49.5t-51 116.5q0 19 4 40 q13 72 64 120.5t128 63.5zM590 532q3 15 3 29q0 50 -39.5 85t-125.5 35t-143.5 -38.5t-70.5 -111.5q-3 -16 -3 -30q0 -48 39.5 -83t125.5 -35t144 40t70 109zM369 347q-91 0 -156.5 -40t-80.5 -123q-3 -17 -3 -32q0 -57 43.5 -97t138.5 -40t159 45t77 124q3 19 3 35 q0 56 -45 92t-136 36z" glyph-name="eight" horiz-adv-x="616" unicode="8"/>
<glyph d="M167 186v-11q0 -65 35 -103.5t109 -38.5q101 0 166.5 75t95.5 243l6 39q-27 -66 -93.5 -105t-145.5 -39q-108 0 -151.5 55t-43.5 126q0 28 6 60q18 100 87 166.5t185 66.5q146 0 176 -73t30 -149q0 -58 -13 -130q-32 -183 -106 -278.5t-208 -95.5q-94 0 -136.5 49.5 t-42.5 122.5q0 10 1 20h43zM352 284q51 0 101 21.5t85.5 63.5t46.5 102q4 24 4 47q0 30 -10.5 68t-52 67t-110.5 29q-85 0 -145.5 -52.5t-76.5 -142.5q-5 -28 -5 -53q0 -59 35.5 -104.5t127.5 -45.5z" glyph-name="nine" horiz-adv-x="620" unicode="9"/>
<glyph d="M75 -3q-17 0 -25.5 9.5t-8.5 21.5q0 4 1 8q3 17 16 28t30 11q16 0 24 -9.5t8 -21.5q0 -4 -1 -8q-3 -17 -15.5 -28t-28.5 -11zM153 441q-17 0 -25.5 9.5t-8.5 21.5q0 4 1 8q3 17 16 28t30 11q16 0 24 -9.5t8 -21.5q0 -4 -1 -8q-3 -17 -15.5 -28t-28.5 -11z" glyph-name="colon" horiz-adv-x="150" unicode=":"/>
<glyph d="M181 443q-17 0 -25.5 9.5t-8.5 21.5q0 4 1 8q3 17 16 28t30 11q16 0 24 -9.5t8 -21.5q0 -4 -1 -8q-3 -17 -15.5 -28t-28.5 -11zM153 105l-140 -256h-34l122 256h52z" glyph-name="semicolon" horiz-adv-x="184" unicode=";"/>
<glyph d="M344 141l-223 234l306 235h57l-306 -235l223 -234h-57z" glyph-name="less" horiz-adv-x="442" unicode="&lt;"/>
<glyph d="M644 490l-6 -39h-496l6 39h496zM611 300l-7 -39h-496l7 39h496z" glyph-name="equal" horiz-adv-x="620" unicode="="/>
<glyph d="M167 610h57l222 -235l-305 -234h-57l305 234z" glyph-name="greater" horiz-adv-x="437" unicode="&gt;"/>
<glyph d="M366 709q62 0 106 -25t60 -62.5t16 -73.5q0 -19 -3 -39q-37 -211 -293 -213l-24 -128h-38l25 162h20q107 0 177.5 37t89.5 142q3 18 3 35q0 50 -34.5 88.5t-110.5 38.5q-77 0 -129.5 -42t-65.5 -113h-43q10 59 45 103t87 67t112 23zM178 -3q-17 0 -25 9.5t-8 21.5 q0 4 1 8q3 17 16 28t30 11q16 0 24 -9.5t8 -21.5q0 -4 -1 -8q-3 -17 -16 -28t-29 -11z" glyph-name="question" horiz-adv-x="497" unicode="?"/>
<glyph d="M666 630q106 0 179 -42t99 -104t26 -120q0 -31 -6 -65q-14 -78 -50 -148t-87.5 -113.5t-111.5 -43.5q-48 0 -63 24t-15 50q0 16 4 34q-39 -51 -93.5 -79.5t-110.5 -28.5q-75 0 -104.5 39.5t-29.5 88.5q0 19 4 42q13 73 54.5 136.5t103.5 102t131 38.5q54 0 86 -26t36 -75 l30 88h40l-102 -293q-6 -16 -9 -32q-2 -11 -2 -21q0 -20 11 -37t42 -17q45 0 86 40t70 101.5t40 124.5q6 34 6 64q0 53 -22.5 108.5t-89 92.5t-164.5 37q-121 0 -230.5 -60.5t-184.5 -164t-96 -226.5q-7 -36 -7 -69q0 -51 22 -105.5t88 -90.5t162 -36q89 0 171 33l1 -34 q-91 -34 -188 -34q-103 0 -174.5 40.5t-97 101.5t-25.5 118q0 33 7 70q24 137 105.5 249t202 177t256.5 65zM455 31q46 0 90.5 23.5t79.5 68t54 104.5q8 20 11 42q3 18 3 34q0 38 -22 70t-84 32q-58 0 -108 -33.5t-83.5 -87.5t-44.5 -114q-3 -19 -3 -35q0 -40 23 -72t84 -32 z" glyph-name="at" horiz-adv-x="988" unicode="@"/>
<glyph d="M512 180h-333l-99 -180h-49l379 686h50l136 -686h-49zM504 218l-79 409l-226 -409h305z" glyph-name="A" horiz-adv-x="627" unicode="A"/>
<glyph d="M449 363q59 -11 87.5 -53.5t28.5 -87.5q0 -16 -3 -34q-9 -54 -42 -96.5t-88 -67t-127 -24.5h-223l124 702h219q105 0 144.5 -42.5t39.5 -96.5q0 -17 -3 -35q-12 -67 -55 -108.5t-102 -56.5zM195 383h176q79 0 128 37.5t60 103.5q3 16 3 31q0 42 -31 74.5t-116 32.5h-171z M309 39q85 0 140.5 40.5t68.5 111.5q3 16 3 30q0 49 -37.5 86t-123.5 37h-172l-54 -305h175z" glyph-name="B" horiz-adv-x="579" unicode="B"/>
<glyph d="M116 350q18 104 76 185.5t142.5 127.5t179.5 46q120 0 192 -56t92 -157h-52q-15 80 -76.5 126.5t-162.5 46.5q-81 0 -154 -38.5t-123.5 -111t-67.5 -169.5q-7 -38 -7 -73q0 -52 20.5 -109t79.5 -96t140 -39q101 0 178.5 46.5t121.5 126.5h52q-55 -101 -147 -157t-212 -56 q-95 0 -163.5 45.5t-92 111.5t-23.5 124q0 37 7 76z" glyph-name="C" horiz-adv-x="770" unicode="C"/>
<glyph d="M403 702q178 0 247.5 -80.5t69.5 -188.5q0 -39 -8 -83q-30 -166 -142.5 -258t-290.5 -92h-197l124 702h197zM286 38q159 0 256.5 82.5t123.5 229.5q7 41 7 77q0 94 -59 165.5t-218 71.5h-152l-110 -626h152z" glyph-name="D" horiz-adv-x="704" unicode="D"/>
<glyph d="M244 664l-52 -293h280l-6 -38h-280l-52 -295h310l-7 -38h-355l124 702h355l-7 -38h-310z" glyph-name="E" horiz-adv-x="491" unicode="E"/>
<glyph d="M568 702l-7 -38h-317l-52 -293h277l-6 -38h-277l-59 -333h-45l124 702h362z" glyph-name="F" horiz-adv-x="481" unicode="F"/>
<glyph d="M746 495q-16 79 -77 126t-156 47q-83 0 -157 -39t-125.5 -111t-68.5 -168q-7 -38 -7 -72q0 -52 21 -110t81.5 -96.5t143.5 -38.5q80 0 151.5 36t122 102.5t70.5 155.5h-313l6 38h359l-5 -30q-20 -98 -78 -176t-141.5 -122t-178.5 -44q-97 0 -167 45.5t-94 111.5t-24 125 q0 36 7 75q18 104 76.5 185.5t144.5 127t183 45.5q113 0 185.5 -56.5t92.5 -156.5h-52z" glyph-name="G" horiz-adv-x="787" unicode="G"/>
<glyph d="M706 702l-124 -702h-45l60 340h-410l-60 -340h-45l124 702h45l-57 -324h410l57 324h45z" glyph-name="H" horiz-adv-x="665" unicode="H"/>
<glyph d="M251 702l-124 -702h-45l124 702h45z" glyph-name="I" horiz-adv-x="210" unicode="I"/>
<glyph d="M499 702l-96 -545q-13 -73 -66 -118.5t-130 -45.5q-81 0 -113.5 42t-32.5 96q0 22 5 48h45q-4 -21 -4 -40q0 -38 20 -72t87 -34q64 0 99 36.5t44 87.5l96 545h46z" glyph-name="J" horiz-adv-x="463" unicode="J"/>
<glyph d="M450 0l-265 331l-58 -331h-45l124 702h45l-59 -334l382 334h58l-404 -352l281 -350h-59z" glyph-name="K" horiz-adv-x="531" unicode="K"/>
<glyph d="M134 38h261l-7 -38h-306l124 702h45z" glyph-name="L" horiz-adv-x="408" unicode="L"/>
<glyph d="M858 687l-121 -687h-45l105 593l-369 -593h-36l-160 593l-105 -593h-45l121 687h48l169 -628l391 628h47z" glyph-name="M" horiz-adv-x="820" unicode="M"/>
<glyph d="M584 0h-45l-301 628l-111 -628h-45l124 701h45l301 -626l111 626h45z" glyph-name="N" horiz-adv-x="667" unicode="N"/>
<glyph d="M394 -8q-97 0 -167 45.5t-94 112t-24 125.5q0 36 7 75q18 104 76.5 185.5t144.5 127t183 45.5t167 -45.5t94 -111.5t24 -125q0 -37 -7 -76q-18 -103 -76.5 -185t-144.5 -127.5t-183 -45.5zM401 32q83 0 156.5 39t125 111t68.5 168q7 38 7 73q0 52 -21 110t-81 97t-143 39 t-157 -39t-125.5 -111t-68.5 -169q-7 -38 -7 -72q0 -52 21 -110t81.5 -97t143.5 -39z" glyph-name="O" horiz-adv-x="790" unicode="O"/>
<glyph d="M596 504q-17 -93 -84 -144.5t-181 -51.5h-150l-54 -308h-45l124 702h195q116 0 157.5 -47t41.5 -108q0 -20 -4 -43zM338 348q185 0 213 156q3 20 3 38q0 50 -31.5 85t-128.5 35h-150l-56 -314h150z" glyph-name="P" horiz-adv-x="546" unicode="P"/>
<glyph d="M658 -143l-151 152q-56 -17 -113 -17q-97 0 -167 45.5t-94 112t-24 125.5q0 36 7 75q18 104 76.5 185.5t144.5 127t183 45.5t167 -45.5t94 -111.5t24 -125q0 -37 -7 -76q-20 -111 -85.5 -196t-158.5 -128l168 -169h-64zM162 350q-7 -38 -7 -72q0 -52 21 -110t81.5 -97 t143.5 -39t156.5 39t125 111t68.5 168q7 38 7 73q0 52 -21 110t-81 97t-143 39t-157 -39t-125.5 -111t-68.5 -169z" glyph-name="Q" horiz-adv-x="791" unicode="Q"/>
<glyph d="M461 0l-127 299h-154l-53 -299h-45l124 702h193q117 0 159.5 -48t42.5 -110q0 -20 -4 -43q-14 -81 -68.5 -133.5t-144.5 -64.5l131 -303h-54zM186 337h150q93 0 147 45t67 119q4 22 4 40q0 121 -162 121h-148z" glyph-name="R" horiz-adv-x="561" unicode="R"/>
<glyph d="M284 -7q-68 0 -115 24t-66 61t-19 76q0 9 1 19h47v-6q0 -51 35 -93t124 -42q52 0 93.5 19t68.5 52t34 73q3 16 3 31q0 30 -16 55t-50 40t-93 32q-65 18 -103.5 36t-56.5 49t-18 68q0 19 4 41q9 50 43 91.5t87 65.5t117 24q93 0 141.5 -45.5t48.5 -110.5v-3h-48 q-1 27 -16.5 55t-50 46.5t-86.5 18.5q-70 0 -124.5 -38.5t-66.5 -102.5q-3 -16 -3 -30q0 -30 17 -56t50.5 -41.5t92.5 -31.5q66 -19 103.5 -36.5t55.5 -48.5t18 -68q0 -18 -4 -40q-8 -47 -40.5 -89t-85.5 -68.5t-122 -26.5z" glyph-name="S" horiz-adv-x="554" unicode="S"/>
<glyph d="M594 702l-7 -38h-200l-117 -664h-45l117 664h-200l7 38h445z" glyph-name="T" horiz-adv-x="495" unicode="T"/>
<glyph d="M247 702l-78 -439q-7 -38 -7 -70q0 -67 37.5 -113.5t130.5 -46.5q92 0 154.5 55t83.5 175l78 439h45l-77 -438q-25 -137 -102.5 -204t-188.5 -67t-158 57.5t-47 137.5q0 35 7 76l77 438h45z" glyph-name="U" horiz-adv-x="645" unicode="U"/>
<glyph d="M736 702l-392 -702h-50l-143 702h49l128 -649l360 649h48z" glyph-name="V" horiz-adv-x="639" unicode="V"/>
<glyph d="M1023 702l-318 -702h-49l-81 632l-306 -632h-47l-67 702h48l55 -639l306 639h50l77 -643l283 643h49z" glyph-name="W" horiz-adv-x="929" unicode="W"/>
<glyph d="M358 351l149 -351h-51l-133 315l-237 -315h-50l270 354l-147 348h51l132 -312l239 312h51z" glyph-name="X" horiz-adv-x="543" unicode="X"/>
<glyph d="M639 702l-295 -418l-50 -284h-45l50 284l-149 418h51l128 -376l259 376h51z" glyph-name="Y" horiz-adv-x="541" unicode="Y"/>
<glyph d="M98 40h376l-7 -40h-428l7 38l479 623h-359l7 41h411l-7 -39z" glyph-name="Z" horiz-adv-x="506" unicode="Z"/>
<glyph d="M391 934l-7 -38h-81l-184 -1043h81l-7 -38h-124l198 1119h124z" glyph-name="bracketleft" horiz-adv-x="300" unicode="["/>
<glyph d="M377 -161l-146 1098h46l145 -1098h-45z" glyph-name="backslash" horiz-adv-x="539" unicode="\"/>
<glyph d="M165 -185h-124l7 38h81l184 1043h-81l7 38h124z" glyph-name="bracketright" horiz-adv-x="300" unicode="]"/>
<glyph d="M115 172h-46l323 514h37l141 -514h-46l-122 456z" glyph-name="asciicircum" horiz-adv-x="579" unicode="^"/>
<glyph d="M538 -33l-7 -41h-481l7 41h481z" glyph-name="underscore" horiz-adv-x="603" unicode="_"/>
<glyph d="M202 703l40 49l121 -106l-26 -31z" glyph-name="grave" horiz-adv-x="324" unicode="`"/>
<glyph d="M102 272q15 84 59.5 147t110 97t141.5 34q86 0 138.5 -42t65.5 -107l25 142h45l-96 -543h-45l25 143q-35 -66 -103 -108.5t-153 -42.5q-76 0 -129.5 34.5t-71.5 85.5t-18 96q0 30 6 64zM594 272q5 28 5 53q0 39 -16 83t-62 73.5t-109 29.5q-66 0 -121 -28.5t-92.5 -82.5 t-50.5 -128q-5 -31 -5 -58q0 -38 14.5 -81t60 -72t110.5 -29q63 0 119.5 29.5t95 84t51.5 126.5z" glyph-name="a" unicode="a"/>
<glyph d="M198 400q36 66 103.5 108t152.5 42q76 0 129.5 -34t71.5 -84.5t18 -95.5q0 -30 -6 -64q-15 -84 -59.5 -147.5t-110 -98t-141.5 -34.5q-85 0 -138.5 42t-65.5 108l-25 -142h-45l130 740h45zM621 272q5 31 5 58q0 38 -14.5 81t-60 71.5t-111.5 28.5q-63 0 -119 -29.5 t-95 -84t-51 -125.5q-5 -29 -5 -55q0 -39 15.5 -82.5t61.5 -73t109 -29.5q66 0 121.5 29t93 83t50.5 128z" glyph-name="b" unicode="b"/>
<glyph d="M102 272q15 85 59.5 148t110 96.5t142.5 33.5q102 0 158.5 -51t57.5 -137h-47q-1 70 -48.5 110t-127.5 40q-60 0 -113.5 -26.5t-92.5 -81t-53 -132.5q-6 -33 -6 -61q0 -40 16 -83t60 -70t104 -27q80 0 142 40t87 110h47q-31 -85 -106 -137t-176 -52q-77 0 -130.5 34 t-71.5 85t-18 96q0 31 6 65z" glyph-name="c" horiz-adv-x="621" unicode="c"/>
<glyph d="M102 272q15 84 59.5 147t110 97t141.5 34q83 0 136.5 -41.5t67.5 -107.5l60 339h45l-131 -740h-45l25 144q-35 -67 -102.5 -109.5t-153.5 -42.5q-76 0 -129.5 34.5t-71.5 85.5t-18 96q0 30 6 64zM594 272q5 28 5 53q0 39 -16 83t-62 73.5t-109 29.5q-66 0 -121 -28.5 t-92.5 -82.5t-50.5 -128q-5 -31 -5 -58q0 -38 14.5 -81t60 -72t110.5 -29q63 0 119.5 29.5t95 84t51.5 126.5z" glyph-name="d" unicode="d"/>
<glyph d="M625 308q-6 -36 -11 -54h-469q-4 -25 -4 -47q0 -43 17.5 -84.5t62.5 -66.5t103 -25q80 0 140.5 39.5t86.5 107.5h47q-30 -83 -105 -134.5t-176 -51.5q-76 0 -130 34t-72.5 85t-18.5 97q0 30 6 64q15 85 59.5 148t110.5 96.5t143 33.5q78 0 129.5 -33.5t68 -79t16.5 -83.5 q0 -22 -4 -46zM577 291q7 32 7 60q0 35 -15 73.5t-60 63t-102 24.5t-109.5 -24.5t-92 -74.5t-54.5 -122h426z" glyph-name="e" horiz-adv-x="625" unicode="e"/>
<glyph d="M378 503h-141l-89 -503h-45l89 503h-82l7 40h82l6 38q15 85 65.5 126.5t148.5 41.5l-7 -40q-78 0 -114 -30t-48 -98l-6 -38h141z" glyph-name="f" horiz-adv-x="322" unicode="f"/>
<glyph d="M413 550q86 0 138.5 -41.5t65.5 -106.5l25 141h45l-99 -560q-13 -75 -56 -131.5t-104.5 -87t-130.5 -30.5q-102 0 -160.5 49t-64.5 132h45q9 -65 57 -103.5t130 -38.5q57 0 107.5 25.5t85.5 73t46 111.5l28 159q-35 -65 -103 -107.5t-153 -42.5q-76 0 -129.5 34.5 t-71.5 85.5t-18 96q0 30 6 64q15 84 59.5 147t110 97t141.5 34zM594 272q5 27 5 52q0 40 -16 84t-62 73.5t-109 29.5q-66 0 -121 -28.5t-92.5 -82.5t-50.5 -128q-5 -31 -5 -58q0 -38 14.5 -81t60 -72t110.5 -29q63 0 119.5 29.5t95 84t51.5 126.5z" glyph-name="g" unicode="g"/>
<glyph d="M426 554q96 0 139 -51t43 -121q0 -30 -6 -64l-56 -318h-44l56 315q5 29 5 54q0 58 -34 102t-118 44q-88 0 -150.5 -56t-81.5 -166l-52 -293h-45l130 740h45l-55 -312q34 61 94 93.5t130 32.5z" glyph-name="h" horiz-adv-x="623" unicode="h"/>
<glyph d="M222 664q-16 0 -24 9t-8 21q0 5 1 9q3 17 16 28t29 11t24 -9.5t8 -21.5q0 -4 -1 -8q-3 -18 -16 -28.5t-29 -10.5zM223 543l-96 -543h-45l96 543h45z" glyph-name="i" horiz-adv-x="210" unicode="i"/>
<glyph d="M229 664q-16 0 -24 9t-8 21q0 5 1 9q3 17 16 28t29 11t24.5 -9.5t8.5 -21.5q0 -4 -1 -8q-3 -17 -16.5 -28t-29.5 -11zM110 -140q-10 -58 -43.5 -87t-95.5 -29h-42l7 40h37q42 0 63.5 17.5t29.5 62.5l120 679h45z" glyph-name="j" horiz-adv-x="217" unicode="j"/>
<glyph d="M364 0l-193 249l-44 -249h-45l130 740h45l-78 -443l277 246h63l-311 -270l218 -273h-62z" glyph-name="k" horiz-adv-x="437" unicode="k"/>
<glyph d="M257 740l-130 -740h-45l130 740h45z" glyph-name="l" horiz-adv-x="210" unicode="l"/>
<glyph d="M822 554q93 0 134 -50.5t41 -120.5q0 -30 -6 -65l-56 -318h-44l56 315q5 30 5 56q0 57 -31.5 100.5t-112.5 43.5q-84 0 -145.5 -58t-80.5 -168l-51 -289h-44l56 315q5 30 5 56q0 57 -31.5 100.5t-112.5 43.5q-84 0 -145.5 -58t-80.5 -168l-51 -289h-45l96 543h45 l-21 -118q34 64 91.5 96.5t124.5 32.5q74 0 120.5 -38.5t53.5 -113.5q32 75 94 113.5t136 38.5z" glyph-name="m" horiz-adv-x="1013" unicode="m"/>
<glyph d="M425 554q97 0 140 -51t43 -121q0 -30 -6 -64l-56 -318h-44l56 315q5 29 5 54q0 58 -34 102t-118 44q-88 0 -150.5 -56t-81.5 -166l-52 -293h-45l96 543h45l-21 -115q34 61 93.5 93.5t129.5 32.5z" glyph-name="n" horiz-adv-x="623" unicode="n"/>
<glyph d="M320 -8q-76 0 -131 34t-74 85t-19 98q0 30 6 63q15 84 61 147.5t113.5 97t143.5 33.5t131 -33.5t74 -84t19 -97.5q0 -30 -6 -63q-15 -85 -61 -148.5t-113.5 -97.5t-143.5 -34zM327 32q59 0 115 26.5t96.5 80.5t54.5 133q6 31 6 58q0 41 -17.5 84.5t-64 70t-105.5 26.5 t-114 -26.5t-95.5 -80.5t-54.5 -132q-6 -32 -6 -59q0 -42 17 -85t63 -69.5t105 -26.5z" glyph-name="o" horiz-adv-x="645" unicode="o"/>
<glyph d="M198 400q34 66 102 108t154 42q76 0 129.5 -34t71.5 -84.5t18 -95.5q0 -30 -6 -64q-15 -84 -59.5 -147.5t-110 -98t-141.5 -34.5q-85 0 -138 42.5t-66 107.5l-70 -398h-45l141 799h45zM621 272q5 31 5 58q0 38 -14.5 81t-60 71.5t-111.5 28.5q-63 0 -119 -29.5t-95 -84 t-51 -125.5q-5 -29 -5 -55q0 -39 15.5 -82.5t61.5 -73t109 -29.5q66 0 121.5 29t93 83t50.5 128z" glyph-name="p" unicode="p"/>
<glyph d="M102 272q15 84 59.5 147t110 97t141.5 34q86 0 139 -42t65 -107l25 142h45l-141 -799h-45l70 398q-34 -65 -102.5 -107.5t-154.5 -42.5q-75 0 -128.5 34.5t-71.5 85.5t-18 96q0 30 6 64zM594 272q5 27 5 52q0 40 -16 84t-62 73.5t-109 29.5q-66 0 -121 -28.5t-92.5 -82.5 t-50.5 -128q-5 -31 -5 -58q0 -38 14.5 -81t60 -72t110.5 -29q63 0 119.5 29.5t95 84t51.5 126.5z" glyph-name="q" unicode="q"/>
<glyph d="M203 431q31 60 87.5 91.5t135.5 31.5l-9 -47h-15q-80 0 -141 -45.5t-79 -148.5l-55 -313h-45l96 543h45z" glyph-name="r" horiz-adv-x="350" unicode="r"/>
<glyph d="M262 -8q-91 0 -139 38t-48 101q0 7 1 15h46q-1 -6 -1 -12q0 -45 36 -74t111 -29q62 0 104.5 31.5t50.5 77.5q1 8 1 15q0 22 -13.5 40t-41 29t-74.5 24q-57 16 -91.5 31.5t-52 42t-17.5 57.5q0 14 3 30q7 38 35.5 70.5t73 51.5t96.5 19q85 0 126.5 -39t41.5 -97 q0 -11 -2 -24h-45q1 8 1 16q0 43 -30.5 74.5t-99.5 31.5q-58 0 -101 -30t-51 -73q-2 -11 -2 -21q0 -24 15 -44t44.5 -32.5t78.5 -26.5q55 -15 86.5 -29.5t48 -38t16.5 -52.5q0 -12 -2 -25q-8 -42 -37 -76t-73 -53t-95 -19z" glyph-name="s" horiz-adv-x="497" unicode="s"/>
<glyph d="M238 504l-63 -359q-4 -23 -4 -40q0 -29 14.5 -47t70.5 -18h61l-7 -40h-68q-71 0 -94 28t-23 69q0 22 5 48l63 359h-82l7 39h82l24 138h45l-24 -138h161l-7 -39h-161z" glyph-name="t" horiz-adv-x="347" unicode="t"/>
<glyph d="M637 543l-96 -543h-45l21 118q-34 -62 -93.5 -94.5t-128.5 -32.5q-97 0 -140.5 51t-43.5 122q0 29 6 63l56 316h44l-55 -313q-5 -29 -5 -54q0 -58 33.5 -102t117.5 -44q88 0 150.5 56t81.5 166l52 291h45z" glyph-name="u" horiz-adv-x="623" unicode="u"/>
<glyph d="M275 49l287 494h48l-321 -543h-47l-129 543h49z" glyph-name="v" horiz-adv-x="531" unicode="v"/>
<glyph d="M888 543l-267 -543h-43l-88 481l-259 -481h-43l-75 543h47l59 -492l261 492h43l86 -490l233 490h46z" glyph-name="w" horiz-adv-x="809" unicode="w"/>
<glyph d="M369 0l-111 239l-192 -239h-48l223 274l-125 269h51l109 -234l190 234h47l-221 -270l128 -273h-51z" glyph-name="x" horiz-adv-x="438" unicode="x"/>
<glyph d="M602 543l-457 -798h-46l146 255l-132 543h49l117 -493l277 493h46z" glyph-name="y" horiz-adv-x="524" unicode="y"/>
<glyph d="M91 38h306l-7 -38h-356l7 38l380 467h-291l7 38h342l-7 -38z" glyph-name="z" horiz-adv-x="424" unicode="z"/>
<glyph d="M132 393q68 18 96.5 52.5t35.5 78.5q9 46 10 126q0 8 2 53t9 86q13 73 56.5 107.5t111.5 34.5h40l-7 -40h-34q-51 0 -82 -24.5t-40 -79.5q-6 -31 -8.5 -68.5t-3.5 -72.5q-1 -32 -3 -65t-7 -58q-10 -57 -45.5 -96t-96.5 -53v-2q56 -14 74 -47t18 -69q0 -16 -3 -34 q-4 -25 -13.5 -58t-20.5 -65q-11 -35 -21.5 -72.5t-15.5 -68.5q-3 -17 -3 -31q0 -32 18.5 -52.5t69.5 -20.5h34l-7 -40h-40q-68 0 -95 29.5t-27 73.5q0 18 4 39q7 41 21 86t17 53q27 80 35 126q3 15 3 28q0 28 -13.5 56.5t-75.5 46.5z" glyph-name="braceleft" horiz-adv-x="354" unicode="{"/>
<glyph d="M119 -93h-45l154 877h45z" glyph-name="bar" horiz-adv-x="226" unicode="|"/>
<glyph d="M353 352q-68 -18 -96 -52.5t-36 -78.5q-8 -46 -9 -126q-1 -8 -3 -53t-9 -86q-13 -73 -56.5 -107.5t-111.5 -34.5h-40l7 40h34q51 0 82 24.5t41 79.5q5 31 7.5 68.5t3.5 72.5q1 32 3.5 65t6.5 58q10 57 45.5 96.5t97.5 53.5v2q-57 14 -75 47t-18 68q0 16 3 34q5 25 14 58 t20 65q11 35 21.5 72.5t16.5 68.5q3 16 3 29q0 33 -19 54t-70 21h-34l7 40h40q68 0 95 -29.5t27 -73.5q0 -18 -4 -39q-7 -41 -21 -86t-16 -53q-27 -80 -36 -126q-2 -14 -2 -26q0 -29 13 -58t75 -47z" glyph-name="braceright" horiz-adv-x="354" unicode="}"/>
<glyph d="M86 268q40 109 124 109q25 0 44 -9.5t43 -27.5q21 -16 35 -23.5t31 -7.5q28 0 48 18.5t29 48.5h37q-36 -108 -123 -108q-24 0 -42 9t-41 27q-22 16 -37 24t-34 8q-27 0 -47.5 -19.5t-30.5 -48.5h-36z" glyph-name="asciitilde" horiz-adv-x="450" unicode="~"/>
<glyph glyph-name="uni00A0" horiz-adv-x="282" unicode=" "/>
<glyph d="M224 557q16 0 24 -9.5t8 -21.5q0 -4 -1 -8q-3 -17 -16 -28t-29 -11q-17 0 -25 9.5t-8 21.5q0 4 1 8q3 17 16 28t30 11zM172 383h39l-89 -531h-50z" glyph-name="exclamdown" horiz-adv-x="251" unicode="¡"/>
<glyph d="M318 55q75 0 132 39.5t81 108.5h43q-26 -81 -94 -132.5t-159 -54.5l-19 -108h-32l19 109q-101 7 -143 65t-42 128q0 27 5 57q19 108 92 175.5t176 74.5l18 102h32l-18 -101q91 -3 139.5 -53t48.5 -127v-6h-43q0 68 -43 108t-118 40q-56 0 -106.5 -24t-86.5 -72t-48 -117 q-5 -27 -5 -50q0 -38 15.5 -76.5t57.5 -62t98 -23.5z" glyph-name="cent" horiz-adv-x="615" unicode="¢"/>
<glyph d="M265 221q-9 -52 -35.5 -95t-75.5 -87h371l-7 -40h-411l-4 31q53 52 81 91.5t38 95.5q4 20 4 43q0 29 -6 61h-115l6 34h103q-10 46 -12.5 70.5t-2.5 37.5q0 26 5 55q10 57 43 101.5t82.5 69.5t108.5 25q92 0 133.5 -51.5t41.5 -121.5q0 -11 -1 -23h-42q1 11 1 21 q0 55 -34 95.5t-106 40.5q-66 0 -117.5 -40t-65.5 -118q-5 -27 -5 -51q0 -12 2.5 -34.5t12.5 -76.5h193l-6 -34h-181q5 -29 5 -55q0 -24 -4 -45z" glyph-name="sterling" horiz-adv-x="568" unicode="£"/>
<glyph d="M483 377q-11 -65 -54 -111l50 -60l-27 -23l-48 59q-52 -39 -112 -39q-63 0 -98 39l-69 -59l-20 23l72 60q-17 32 -17 73q0 18 3 38q12 65 54 112l-51 61l28 23l49 -60q51 38 110 38t96 -38l72 60l19 -23l-72 -61q19 -32 19 -73q0 -19 -4 -39zM298 236q32 0 62.5 17t53 49 t29.5 75q3 19 3 35q0 22 -8 47.5t-33 42.5t-57 17q-52 0 -92.5 -38.5t-52.5 -103.5q-3 -19 -3 -36q0 -41 23 -73t75 -32z" glyph-name="currency" horiz-adv-x="514" unicode="¤"/>
<glyph d="M415 359h160l-6 -35l-179 -1l-28 -39l-10 -57h200l-6 -36h-200l-34 -191h-45l34 191h-200l6 36h200l10 57l-14 39l-179 1l6 35h160l-122 343h52l127 -375l259 375h51z" glyph-name="yen" horiz-adv-x="574" unicode="¥"/>
<glyph d="M228 784h45l-63 -360h-45zM119 -93h-45l63 361h45z" glyph-name="brokenbar" horiz-adv-x="226" unicode="¦"/>
<glyph d="M349 120q69 -21 103.5 -50.5t34.5 -71.5q0 -11 -2 -23q-11 -60 -67 -99.5t-141 -39.5q-91 0 -139 41t-48 108q0 8 1 16h45v-9q0 -50 33.5 -86t113.5 -36q64 0 105.5 26t50.5 77q2 9 2 17q0 34 -29 58.5t-119 50.5q-67 19 -110.5 40.5t-62 51.5t-18.5 64q0 14 3 30 q7 41 35.5 77.5t75.5 60t106 27.5q-68 20 -103 50.5t-35 73.5q0 11 2 23q11 60 68 99t143 39q89 0 135.5 -41.5t46.5 -107.5q0 -8 -1 -17h-45q1 7 1 13q0 44 -32.5 81t-111.5 37q-65 0 -107 -25t-51 -75q-2 -9 -2 -18q0 -34 29 -59.5t117 -50.5q68 -19 111 -40.5t61.5 -51.5 t18.5 -63q0 -15 -3 -32q-7 -41 -35 -77t-74.5 -59.5t-105.5 -28.5zM151 285q-2 -11 -2 -22q0 -45 38.5 -79t125.5 -34q57 0 101.5 18.5t71 49.5t32.5 67q2 12 2 24q0 45 -38.5 78.5t-125.5 33.5q-57 0 -101 -18.5t-70.5 -49.5t-33.5 -68z" glyph-name="section" horiz-adv-x="569" unicode="§"/>
<glyph d="M197 625q-16 0 -24 9.5t-8 20.5q0 4 1 8q3 16 16 27t29 11q15 0 23.5 -9.5t8.5 -21.5q0 -3 -1 -7q-3 -16 -16.5 -27t-28.5 -11zM341 625q-16 0 -24 9.5t-8 20.5q0 4 1 8q3 16 16 27t29 11t23.5 -9.5t7.5 -20.5q0 -4 -1 -8q-3 -16 -15.5 -27t-28.5 -11z" glyph-name="dieresis" horiz-adv-x="317" unicode="¨"/>
<glyph d="M524 703q101 0 171 -45t93.5 -109.5t23.5 -122.5q0 -36 -7 -75q-18 -102 -75 -182t-143 -125t-187 -45t-171 45t-94 110t-24 123q0 35 7 74q18 102 75.5 182t143.5 125t187 45zM519 676q-95 0 -174 -41.5t-131 -115.5t-68 -168q-7 -38 -7 -72q0 -52 20.5 -111t85 -101 t159.5 -42t174 42t130.5 116t68.5 168q6 37 6 70q0 53 -20 112.5t-84.5 101t-159.5 41.5zM506 587q73 0 120.5 -40t55.5 -113h-43q-8 56 -46.5 86.5t-93.5 30.5q-47 0 -91 -23t-75.5 -68.5t-42.5 -109.5q-5 -26 -5 -49q0 -33 12.5 -68.5t48.5 -58.5t83 -23q56 0 104 30.5 t76 86.5h43q-32 -72 -95 -112.5t-135 -40.5q-59 0 -103.5 28t-60 71t-15.5 82q0 26 5 56q13 73 51.5 126.5t93 81t113.5 27.5z" glyph-name="copyright" horiz-adv-x="799" unicode="©"/>
<glyph d="M131 529q9 52 37 93t69.5 64t88.5 23q55 0 87 -25.5t39 -68.5l16 88h38l-62 -349h-38l16 87q-23 -43 -64 -68.5t-95 -25.5q-48 0 -81 23t-44 56t-11 62q0 20 4 41zM170 528q-3 -19 -3 -37q0 -43 25.5 -77.5t82.5 -34.5q60 0 105 40.5t57 108.5q3 19 3 36q0 43 -26.5 78 t-86.5 35q-57 0 -101 -40.5t-56 -108.5z" glyph-name="ordfeminine" horiz-adv-x="439" unicode="ª"/>
<glyph d="M169 120l-72 175l134 175h49l-136 -175l74 -175h-49zM327 120l-72 175l134 175h49l-137 -175l75 -175h-49z" glyph-name="guillemotleft" horiz-adv-x="405" unicode="«"/>
<glyph d="M683 427l-32 -184h-44l26 146h-514l6 38h558z" glyph-name="logicalnot" horiz-adv-x="653" unicode="¬"/>
<glyph d="M444 395l-7 -39h-376l7 39h376z" glyph-name="uni00AD" horiz-adv-x="482" unicode="­"/>
<glyph d="M372 709q55 0 94 -25.5t52.5 -62t13.5 -69.5q0 -19 -3 -38q-10 -55 -42.5 -100t-80.5 -70.5t-103 -25.5t-94 25.5t-52.5 62t-13.5 68.5q0 19 4 40q9 55 41.5 99.5t80.5 70t103 25.5zM308 344q48 0 89 22t68.5 61t36.5 87q3 18 3 34q0 28 -11 59.5t-45 53.5t-82 22 q-73 0 -126 -47.5t-66 -121.5q-4 -19 -4 -37q0 -27 11 -58t44.5 -53t81.5 -22zM431 559q-5 -26 -24 -42.5t-46 -19.5l48 -89l-37 -1l-46 90h-31l-16 -90h-32l37 214h88q32 0 46 -14t14 -35q0 -6 -1 -13zM299 524h53q41 0 48 35q1 4 1 8q0 11 -8.5 18.5t-27.5 7.5h-53z" glyph-name="registered" horiz-adv-x="494" unicode="®"/>
<glyph d="M477 688l-6 -35h-324l6 35h324z" glyph-name="macron" horiz-adv-x="388" unicode="¯"/>
<glyph d="M121 521q14 78 66 125.5t123 47.5q70 0 100.5 -41t30.5 -90q0 -20 -4 -42q-14 -78 -66 -126t-123 -48t-101 41t-30 91q0 20 4 42zM399 521q4 21 4 38q0 40 -22.5 72t-76.5 32q-53 0 -92.5 -38t-51.5 -104q-4 -21 -4 -40q0 -40 22 -71.5t76 -31.5t93.5 38t51.5 105z" glyph-name="degree" horiz-adv-x="375" unicode="°"/>
<glyph d="M641 425l-7 -39h-233l-39 -221h-43l39 221h-233l7 39h233l36 206h43l-36 -206h233zM82 139h509l-7 -38h-509z" glyph-name="plusminus" horiz-adv-x="623" unicode="±"/>
<glyph d="M339 384l-6 -32h-234l4 25l131 104q42 33 65 60.5t30 63.5q2 10 2 18q0 23 -14.5 38.5t-44.5 15.5q-34 0 -57.5 -20t-33.5 -57h-38q10 47 45.5 77.5t90.5 30.5q48 0 70 -24.5t22 -55.5q0 -10 -2 -21q-7 -42 -35 -75t-82 -73l-99 -75h186z" glyph-name="twosuperior" horiz-adv-x="311" unicode="²"/>
<glyph d="M145 616q13 41 49.5 66.5t88.5 25.5q49 0 74 -24.5t25 -56.5q0 -8 -1 -17q-6 -31 -26.5 -52.5t-53.5 -29.5v-2q28 -10 40.5 -28.5t12.5 -40.5q0 -8 -1 -16q-7 -38 -44 -66t-93 -28q-53 0 -78.5 24t-25.5 64q0 6 1 12h38v-5q0 -64 70 -64q38 0 62 18t29 48q1 7 1 14 q0 22 -17.5 38t-53.5 16h-55l5 29h56q36 0 61.5 17.5t30.5 49.5q1 7 1 13q0 21 -15.5 38t-50.5 17t-58.5 -16t-34.5 -44h-37z" glyph-name="threesuperior" horiz-adv-x="313" unicode="³"/>
<glyph d="M238 637l123 137l41 -39l-140 -120z" glyph-name="acute" horiz-adv-x="279" unicode="´"/>
<glyph d="M642 543l-96 -543h-45l23 130q-34 -70 -93 -105.5t-126 -35.5q-62 0 -105.5 29.5t-53.5 96.5l-65 -371h-44l141 799h44l-51 -285q-6 -35 -6 -66q0 -65 35 -114.5t122 -49.5q84 0 144 56t79 166l52 293h45z" glyph-name="uni00B5" horiz-adv-x="628" unicode="µ"/>
<glyph d="M444 0h-41l115 650h-97l-115 -650h-42l52 293h-4q-116 0 -160.5 47.5t-44.5 109.5q0 19 3 39q16 90 86 144t185 54h184z" glyph-name="paragraph" horiz-adv-x="527" unicode="¶"/>
<glyph d="M131 314q-17 0 -25 9.5t-8 21.5q0 4 1 8q3 17 16 28t30 11q16 0 24 -9.5t8 -21.5q0 -4 -1 -8q-3 -17 -16 -28t-29 -11z" glyph-name="periodcentered" horiz-adv-x="148" unicode="·"/>
<glyph d="M84 -78h14q51 0 75.5 -18.5t24.5 -49.5q0 -8 -2 -18q-7 -42 -41 -67t-87 -25h-81l6 33h73q43 0 64 15t26 44q1 6 1 12q0 43 -71 43h-42l20 116h35z" glyph-name="cedilla" horiz-adv-x="257" unicode="¸"/>
<glyph d="M154 673l5 31h92l-62 -352h-38l57 321h-54z" glyph-name="onesuperior" horiz-adv-x="169" unicode="¹"/>
<glyph d="M131 527q9 54 39 95t73.5 64t92.5 23t84.5 -23t47.5 -56.5t12 -63.5q0 -19 -3 -39q-10 -54 -39.5 -95.5t-73 -64.5t-93.5 -23q-49 0 -84.5 23t-47.5 56t-12 63q0 19 4 41zM438 526q3 19 3 36q0 45 -27 79.5t-84 34.5q-58 0 -103 -40t-57 -110q-4 -21 -4 -39 q0 -43 26 -76.5t84 -33.5t103.5 39.5t58.5 109.5z" glyph-name="ordmasculine" horiz-adv-x="421" unicode="º"/>
<glyph d="M208 295l-75 175h50l71 -175l-133 -175h-50zM366 295l-75 175h49l72 -175l-134 -175h-49z" glyph-name="guillemotright" horiz-adv-x="405" unicode="»"/>
<glyph d="M165 673l5 31h92l-62 -352h-38l57 321h-54zM583 702l-481 -702h-43l481 702h43zM538 74h-53l-13 -74h-38l13 74h-176l5 26l214 254h44l-44 -251h53zM488 303l-170 -200h135z" glyph-name="onequarter" horiz-adv-x="557" unicode="¼"/>
<glyph d="M214 673h-54l5 31h92l-62 -352h-38zM568 702l-478 -702h-44l478 702h44zM571 31l-5 -32h-234l4 25l131 104q41 33 64.5 60.5t29.5 63.5q2 11 2 20q0 21 -14 36.5t-44 15.5q-34 0 -57.5 -20t-33.5 -57h-38q10 47 45.5 77.5t90.5 30.5q48 0 70 -24.5t22 -55.5q0 -10 -2 -21 q-8 -42 -35.5 -75t-81.5 -73l-100 -75h186z" glyph-name="onehalf" horiz-adv-x="622" unicode="½"/>
<glyph d="M152 616q13 41 49.5 66.5t88.5 25.5q49 0 74 -24.5t25 -56.5q0 -8 -1 -17q-6 -31 -26.5 -52.5t-53.5 -29.5v-2q28 -10 40.5 -28.5t12.5 -40.5q0 -8 -1 -16q-7 -38 -44 -66t-93 -28q-53 0 -78.5 24t-25.5 64q0 6 1 12h38v-5q0 -64 70 -64q38 0 62 18t29 48q1 7 1 14 q0 22 -17.5 38t-53.5 16h-55l5 29h56q36 0 61.5 17.5t30.5 49.5q1 7 1 13q0 21 -15.5 38t-50.5 17t-58.5 -16t-34.5 -44h-37zM680 702l-487 -702h-43l486 702h44zM628 74h-52l-13 -74h-38l13 74h-176l5 26l214 254h44l-44 -251h52zM578 303l-170 -200h135z" glyph-name="threequarters" horiz-adv-x="644" unicode="¾"/>
<glyph d="M407 545q17 0 25 -9.5t8 -21.5q0 -4 -1 -8q-3 -17 -16 -28t-30 -11q-16 0 -24 9.5t-8 21.5q0 4 1 8q3 17 16 28t29 11zM220 -167q-62 0 -106.5 25t-60.5 62t-16 72q0 19 4 41q37 211 292 213l25 128h38l-26 -162h-20q-107 0 -177.5 -37t-88.5 -142q-3 -18 -3 -35 q0 -50 34 -88.5t110 -38.5q77 0 130 42t66 113h43q-11 -59 -45.5 -103t-86.5 -67t-112 -23z" glyph-name="questiondown" horiz-adv-x="482" unicode="¿"/>
<glyph d="M512 180h-333l-99 -180h-49l379 686h50l136 -686h-49zM504 218l-79 409l-226 -409h305zM380 861l40 49l121 -106l-26 -31z" glyph-name="Agrave" horiz-adv-x="627" unicode="À"/>
<glyph d="M512 180h-333l-99 -180h-49l379 686h50l136 -686h-49zM504 218l-79 409l-226 -409h305zM381 795l123 137l41 -39l-140 -120z" glyph-name="Aacute" horiz-adv-x="627" unicode="Á"/>
<glyph d="M512 180h-333l-99 -180h-49l379 686h50l136 -686h-49zM504 218l-79 409l-226 -409h305zM313 773l1 35l158 99l128 -99l-13 -35l-127 66z" glyph-name="Acircumflex" horiz-adv-x="627" unicode="Â"/>
<glyph d="M512 180h-333l-99 -180h-49l379 686h50l136 -686h-49zM504 218l-79 409l-226 -409h305zM308 805q5 14 14 28.5t20.5 26.5t25 20t28.5 8q20 0 36.5 -5.5t32.5 -12t31.5 -12t33.5 -5.5q20 0 30.5 9.5t18.5 26.5l38 -4q-5 -14 -14 -29t-20 -27t-25 -20t-29 -8q-17 0 -32 6 t-30.5 12.5t-32 12.5t-36.5 6t-31.5 -10t-20.5 -27z" glyph-name="Atilde" horiz-adv-x="627" unicode="Ã"/>
<glyph d="M379 769q-16 0 -24.5 9.5t-8.5 21.5q0 3 1 7q3 16 16 27t29 11q15 0 23.5 -9.5t8.5 -21.5q0 -3 -1 -7q-3 -16 -16 -27t-28 -11zM523 769q-16 0 -24.5 9.5t-8.5 21.5q0 3 1 7q3 16 16 27t29 11t23.5 -9.5t7.5 -20.5q0 -4 -1 -8q-3 -16 -15 -27t-28 -11zM512 180h-333 l-99 -180h-49l379 686h50l136 -686h-49zM504 218l-79 409l-226 -409h305z" glyph-name="Adieresis" horiz-adv-x="627" unicode="Ä"/>
<glyph d="M560 851q-8 -43 -40 -69t-73 -26q-40 0 -60.5 22.5t-20.5 51.5q0 10 2 21q8 44 40.5 70t72.5 26q41 0 61 -22.5t20 -51.5q0 -11 -2 -22zM528 852q2 9 2 16q0 19 -13 34.5t-41 15.5t-49 -18t-27 -48q-1 -8 -1 -15q0 -20 12.5 -36t40.5 -16t49.5 18.5t26.5 48.5zM512 180 h-333l-99 -180h-49l379 686h50l136 -686h-49zM504 218l-79 409l-226 -409h305z" glyph-name="Aring" horiz-adv-x="627" unicode="Å"/>
<glyph d="M613 665l-52 -295h279l-6 -36h-279l-52 -297h309l-7 -37h-354l32 180h-283l-140 -180h-49l543 702h375l-7 -37h-309zM489 217l77 437l-338 -437h261z" glyph-name="AE" horiz-adv-x="859" unicode="Æ"/>
<glyph d="M395 33q101 0 178.5 46.5t121.5 126.5h52q-51 -93 -134 -148.5t-190 -63.5l-13 -72h14q51 0 75.5 -18.5t24.5 -49.5q0 -8 -2 -18q-7 -42 -41 -67t-87 -25h-81l6 33h73q43 0 64 15t26 44q1 6 1 12q0 43 -71 43h-42l18 102q-95 0 -163.5 45.5t-92 111.5t-23.5 124 q0 37 7 76q18 104 76 185.5t142.5 127.5t179.5 46q120 0 192 -56t92 -157h-52q-15 80 -76.5 126.5t-162.5 46.5q-81 0 -154 -38.5t-123.5 -111t-67.5 -169.5q-7 -38 -7 -73q0 -52 20.5 -109t79.5 -96t140 -39z" glyph-name="Ccedilla" horiz-adv-x="770" unicode="Ç"/>
<glyph d="M244 664l-52 -293h280l-6 -38h-280l-52 -295h310l-7 -38h-355l124 702h355l-7 -38h-310zM312 861l40 49l121 -106l-26 -31z" glyph-name="Egrave" horiz-adv-x="491" unicode="È"/>
<glyph d="M244 664l-52 -293h280l-6 -38h-280l-52 -295h310l-7 -38h-355l124 702h355l-7 -38h-310zM313 795l123 137l41 -39l-140 -120z" glyph-name="Eacute" horiz-adv-x="491" unicode="É"/>
<glyph d="M244 664l-52 -293h280l-6 -38h-280l-52 -295h310l-7 -38h-355l124 702h355l-7 -38h-310zM245 773l1 35l158 99l128 -99l-13 -35l-127 66z" glyph-name="Ecircumflex" horiz-adv-x="491" unicode="Ê"/>
<glyph d="M306 769q-16 0 -24.5 9.5t-8.5 21.5q0 3 1 7q3 16 16 27t29 11q15 0 23.5 -9.5t8.5 -21.5q0 -3 -1 -7q-3 -16 -16 -27t-28 -11zM450 769q-16 0 -24.5 9.5t-8.5 21.5q0 3 1 7q3 16 16 27t29 11t23.5 -9.5t7.5 -20.5q0 -4 -1 -8q-3 -16 -15 -27t-28 -11zM244 664l-52 -293 h280l-6 -38h-280l-52 -295h310l-7 -38h-355l124 702h355l-7 -38h-310z" glyph-name="Edieresis" horiz-adv-x="491" unicode="Ë"/>
<glyph d="M251 702l-124 -702h-45l124 702h45zM171 861l40 49l121 -106l-26 -31z" glyph-name="Igrave" horiz-adv-x="210" unicode="Ì"/>
<glyph d="M251 702l-124 -702h-45l124 702h45zM172 795l123 137l41 -39l-140 -120z" glyph-name="Iacute" horiz-adv-x="210" unicode="Í"/>
<glyph d="M253 838l-144 -82l7 38l143 82l114 -82l-7 -38zM251 702l-124 -702h-45l124 702h45z" glyph-name="Icircumflex" horiz-adv-x="210" unicode="Î"/>
<glyph d="M170 769q-16 0 -24.5 9.5t-8.5 21.5q0 3 1 7q3 16 16 27t29 11q15 0 23.5 -9.5t8.5 -21.5q0 -3 -1 -7q-3 -16 -16 -27t-28 -11zM314 769q-16 0 -24.5 9.5t-8.5 21.5q0 3 1 7q3 16 16 27t29 11t23.5 -9.5t7.5 -20.5q0 -4 -1 -8q-3 -16 -15 -27t-28 -11zM251 702l-124 -702 h-45l124 702h45z" glyph-name="Idieresis" horiz-adv-x="210" unicode="Ï"/>
<glyph d="M435 702q178 0 247.5 -80.5t69.5 -188.5q0 -39 -8 -83q-30 -166 -142.5 -258t-290.5 -92h-196l58 330h-105l7 41h105l59 331h196zM317 36q160 0 257.5 83t123.5 231q7 41 7 77q0 94 -58.5 165.5t-218.5 71.5h-151l-52 -293h218l-7 -41h-218l-52 -294h151z" glyph-name="Eth" horiz-adv-x="736" unicode="Ð"/>
<glyph d="M352 749q12 38 35 59t53 21q17 0 29 -6.5t26 -19.5q12 -12 22 -17.5t25 -5.5q17 0 31 12t21 34h30q-10 -36 -34.5 -57.5t-54.5 -21.5q-19 0 -31.5 7t-27.5 20q-12 11 -21 16.5t-22 5.5q-37 0 -51 -47h-30zM584 0h-45l-301 628l-111 -628h-45l124 701h45l301 -626l111 626 h45z" glyph-name="Ntilde" horiz-adv-x="667" unicode="Ñ"/>
<glyph d="M394 -8q-97 0 -167 45.5t-94 112t-24 125.5q0 36 7 75q18 104 76.5 185.5t144.5 127t183 45.5t167 -45.5t94 -111.5t24 -125q0 -37 -7 -76q-18 -103 -76.5 -185t-144.5 -127.5t-183 -45.5zM401 32q83 0 156.5 39t125 111t68.5 168q7 38 7 73q0 52 -21 110t-81 97t-143 39 t-157 -39t-125.5 -111t-68.5 -169q-7 -38 -7 -72q0 -52 21 -110t81.5 -97t143.5 -39zM462 861l40 49l121 -106l-26 -31z" glyph-name="Ograve" horiz-adv-x="790" unicode="Ò"/>
<glyph d="M394 -8q-97 0 -167 45.5t-94 112t-24 125.5q0 36 7 75q18 104 76.5 185.5t144.5 127t183 45.5t167 -45.5t94 -111.5t24 -125q0 -37 -7 -76q-18 -103 -76.5 -185t-144.5 -127.5t-183 -45.5zM401 32q83 0 156.5 39t125 111t68.5 168q7 38 7 73q0 52 -21 110t-81 97t-143 39 t-157 -39t-125.5 -111t-68.5 -169q-7 -38 -7 -72q0 -52 21 -110t81.5 -97t143.5 -39zM462 795l123 137l41 -39l-140 -120z" glyph-name="Oacute" horiz-adv-x="790" unicode="Ó"/>
<glyph d="M394 -8q-97 0 -167 45.5t-94 112t-24 125.5q0 36 7 75q18 104 76.5 185.5t144.5 127t183 45.5t167 -45.5t94 -111.5t24 -125q0 -37 -7 -76q-18 -103 -76.5 -185t-144.5 -127.5t-183 -45.5zM401 32q83 0 156.5 39t125 111t68.5 168q7 38 7 73q0 52 -21 110t-81 97t-143 39 t-157 -39t-125.5 -111t-68.5 -169q-7 -38 -7 -72q0 -52 21 -110t81.5 -97t143.5 -39zM394 773l1 35l158 99l128 -99l-13 -35l-127 66z" glyph-name="Ocircumflex" horiz-adv-x="790" unicode="Ô"/>
<glyph d="M394 -8q-97 0 -167 45.5t-94 112t-24 125.5q0 36 7 75q18 104 76.5 185.5t144.5 127t183 45.5t167 -45.5t94 -111.5t24 -125q0 -37 -7 -76q-18 -103 -76.5 -185t-144.5 -127.5t-183 -45.5zM401 32q83 0 156.5 39t125 111t68.5 168q7 38 7 73q0 52 -21 110t-81 97t-143 39 t-157 -39t-125.5 -111t-68.5 -169q-7 -38 -7 -72q0 -52 21 -110t81.5 -97t143.5 -39zM390 805q5 14 14 28.5t20.5 26.5t25 20t28.5 8q20 0 36.5 -5.5t32.5 -12t31.5 -12t33.5 -5.5q20 0 30.5 9.5t18.5 26.5l38 -4q-5 -14 -14 -29t-20 -27t-25 -20t-29 -8q-17 0 -32 6 t-30.5 12.5t-32 12.5t-36.5 6t-31.5 -10t-20.5 -27z" glyph-name="Otilde" horiz-adv-x="790" unicode="Õ"/>
<glyph d="M468 769q-16 0 -24.5 9.5t-8.5 21.5q0 3 1 7q3 16 16 27t29 11q15 0 23.5 -9.5t8.5 -21.5q0 -3 -1 -7q-3 -16 -16 -27t-28 -11zM612 769q-16 0 -24.5 9.5t-8.5 21.5q0 3 1 7q3 16 16 27t29 11t23.5 -9.5t7.5 -20.5q0 -4 -1 -8q-3 -16 -15 -27t-28 -11zM394 -8 q-97 0 -167 45.5t-94 112t-24 125.5q0 36 7 75q18 104 76.5 185.5t144.5 127t183 45.5t167 -45.5t94 -111.5t24 -125q0 -37 -7 -76q-18 -103 -76.5 -185t-144.5 -127.5t-183 -45.5zM401 32q83 0 156.5 39t125 111t68.5 168q7 38 7 73q0 52 -21 110t-81 97t-143 39t-157 -39 t-125.5 -111t-68.5 -169q-7 -38 -7 -72q0 -52 21 -110t81.5 -97t143.5 -39z" glyph-name="Odieresis" horiz-adv-x="790" unicode="Ö"/>
<glyph d="M469 173l-143 173l-203 -173l-24 30l203 173l-142 172l35 29l141 -172l203 172l24 -30l-202 -172l143 -173z" glyph-name="multiply" horiz-adv-x="530" unicode="×"/>
<glyph d="M751 601q36 -47 45 -94.5t9 -81.5q0 -36 -7 -75q-18 -103 -76.5 -185t-144.5 -127.5t-183 -45.5q-67 0 -122 22t-92 64l-86 -78h-42l110 100q-35 48 -44 94.5t-9 79.5q0 36 7 76q18 104 76.5 185.5t144.5 127t183 45.5q67 0 121 -22t93 -63l86 79h42zM162 350 q-7 -39 -7 -73q0 -84 41 -145l503 460q-32 38 -80 57.5t-106 19.5q-83 0 -157 -39t-125.5 -111t-68.5 -169zM751 350q7 38 7 73q0 85 -40 147l-505 -461q33 -37 81 -57t107 -20q83 0 156.5 39t125 111t68.5 168z" glyph-name="Oslash" horiz-adv-x="790" unicode="Ø"/>
<glyph d="M247 702l-78 -439q-7 -38 -7 -70q0 -67 37.5 -113.5t130.5 -46.5q92 0 154.5 55t83.5 175l78 439h45l-77 -438q-25 -137 -102.5 -204t-188.5 -67t-158 57.5t-47 137.5q0 35 7 76l77 438h45zM389 861l40 49l121 -106l-26 -31z" glyph-name="Ugrave" horiz-adv-x="645" unicode="Ù"/>
<glyph d="M247 702l-78 -439q-7 -38 -7 -70q0 -67 37.5 -113.5t130.5 -46.5q92 0 154.5 55t83.5 175l78 439h45l-77 -438q-25 -137 -102.5 -204t-188.5 -67t-158 57.5t-47 137.5q0 35 7 76l77 438h45zM390 795l123 137l41 -39l-140 -120z" glyph-name="Uacute" horiz-adv-x="645" unicode="Ú"/>
<glyph d="M470 838l-144 -82l7 38l143 82l114 -82l-7 -38zM247 702l-78 -439q-7 -38 -7 -70q0 -67 37.5 -113.5t130.5 -46.5q92 0 154.5 55t83.5 175l78 439h45l-77 -438q-25 -137 -102.5 -204t-188.5 -67t-158 57.5t-47 137.5q0 35 7 76l77 438h45z" glyph-name="Ucircumflex" horiz-adv-x="645" unicode="Û"/>
<glyph d="M387 769q-16 0 -24.5 9.5t-8.5 21.5q0 3 1 7q3 16 16 27t29 11q15 0 23.5 -9.5t8.5 -21.5q0 -3 -1 -7q-3 -16 -16 -27t-28 -11zM531 769q-16 0 -24.5 9.5t-8.5 21.5q0 3 1 7q3 16 16 27t29 11t23.5 -9.5t7.5 -20.5q0 -4 -1 -8q-3 -16 -15 -27t-28 -11zM247 702l-78 -439 q-7 -38 -7 -70q0 -67 37.5 -113.5t130.5 -46.5q92 0 154.5 55t83.5 175l78 439h45l-77 -438q-25 -137 -102.5 -204t-188.5 -67t-158 57.5t-47 137.5q0 35 7 76l77 438h45z" glyph-name="Udieresis" horiz-adv-x="645" unicode="Ü"/>
<glyph d="M639 702l-295 -418l-50 -284h-45l50 284l-149 418h51l128 -376l259 376h51zM338 795l123 137l41 -39l-140 -120z" glyph-name="Yacute" horiz-adv-x="541" unicode="Ý"/>
<glyph d="M569 351q-17 -94 -84 -145.5t-181 -51.5h-150l-27 -154h-45l124 702h45l-27 -154h150q116 0 157.5 -46.5t41.5 -107.5q0 -20 -4 -43zM311 194q185 0 213 157q3 20 3 38q0 50 -31.5 85.5t-128.5 35.5h-150l-56 -316h150z" glyph-name="Thorn" horiz-adv-x="546" unicode="Þ"/>
<glyph d="M172 559q16 94 81 150.5t163 56.5q61 0 102 -20t56 -49.5t15 -57.5q0 -13 -3 -26q-8 -44 -36 -74.5t-78 -67.5q-38 -27 -57.5 -46.5t-23.5 -42.5q-1 -5 -1 -10q0 -22 21 -40t89 -42q65 -22 86.5 -52t21.5 -65q0 -14 -3 -30q-12 -69 -64 -110.5t-129 -41.5 q-79 0 -120.5 44t-41.5 113q0 8 1 16h46q-1 -8 -1 -16q0 -51 30.5 -85.5t92.5 -34.5q56 0 94 30.5t47 81.5q2 11 2 20q0 30 -19.5 53.5t-77.5 43.5q-74 26 -97.5 49t-23.5 53q0 9 2 19q6 34 29 58.5t68 58.5q44 31 68 56.5t30 59.5q2 11 2 20q0 38 -32 67t-102 29 q-78 0 -128.5 -46.5t-64.5 -125.5l-98 -555h-45z" glyph-name="germandbls" horiz-adv-x="646" unicode="ß"/>
<glyph d="M102 272q15 84 59.5 147t110 97t141.5 34q86 0 138.5 -42t65.5 -107l25 142h45l-96 -543h-45l25 143q-35 -66 -103 -108.5t-153 -42.5q-76 0 -129.5 34.5t-71.5 85.5t-18 96q0 30 6 64zM594 272q5 28 5 53q0 39 -16 83t-62 73.5t-109 29.5q-66 0 -121 -28.5t-92.5 -82.5 t-50.5 -128q-5 -31 -5 -58q0 -38 14.5 -81t60 -72t110.5 -29q63 0 119.5 29.5t95 84t51.5 126.5zM374 703l40 49l121 -106l-26 -31z" glyph-name="agrave" unicode="à"/>
<glyph d="M102 272q15 84 59.5 147t110 97t141.5 34q86 0 138.5 -42t65.5 -107l25 142h45l-96 -543h-45l25 143q-35 -66 -103 -108.5t-153 -42.5q-76 0 -129.5 34.5t-71.5 85.5t-18 96q0 30 6 64zM594 272q5 28 5 53q0 39 -16 83t-62 73.5t-109 29.5q-66 0 -121 -28.5t-92.5 -82.5 t-50.5 -128q-5 -31 -5 -58q0 -38 14.5 -81t60 -72t110.5 -29q63 0 119.5 29.5t95 84t51.5 126.5zM376 637l123 137l41 -39l-140 -120z" glyph-name="aacute" unicode="á"/>
<glyph d="M102 272q15 84 59.5 147t110 97t141.5 34q86 0 138.5 -42t65.5 -107l25 142h45l-96 -543h-45l25 143q-35 -66 -103 -108.5t-153 -42.5q-76 0 -129.5 34.5t-71.5 85.5t-18 96q0 30 6 64zM594 272q5 28 5 53q0 39 -16 83t-62 73.5t-109 29.5q-66 0 -121 -28.5t-92.5 -82.5 t-50.5 -128q-5 -31 -5 -58q0 -38 14.5 -81t60 -72t110.5 -29q63 0 119.5 29.5t95 84t51.5 126.5zM308 615l1 35l158 99l128 -99l-13 -35l-127 66z" glyph-name="acircumflex" unicode="â"/>
<glyph d="M102 272q15 84 59.5 147t110 97t141.5 34q86 0 138.5 -42t65.5 -107l25 142h45l-96 -543h-45l25 143q-35 -66 -103 -108.5t-153 -42.5q-76 0 -129.5 34.5t-71.5 85.5t-18 96q0 30 6 64zM594 272q5 28 5 53q0 39 -16 83t-62 73.5t-109 29.5q-66 0 -121 -28.5t-92.5 -82.5 t-50.5 -128q-5 -31 -5 -58q0 -38 14.5 -81t60 -72t110.5 -29q63 0 119.5 29.5t95 84t51.5 126.5zM303 647q5 14 14 28.5t20.5 26.5t25 20t28.5 8q20 0 36.5 -5.5t32.5 -12t31.5 -12t33.5 -5.5q20 0 30.5 9.5t18.5 26.5l38 -4q-5 -14 -14 -29t-20 -27t-25 -20t-29 -8 q-17 0 -32 6t-30.5 12.5t-32 12.5t-36.5 6t-31.5 -10t-20.5 -27z" glyph-name="atilde" unicode="ã"/>
<glyph d="M378 625q-16 0 -24 9.5t-8 20.5q0 4 1 8q3 16 16 27t29 11q15 0 23.5 -9.5t8.5 -21.5q0 -3 -1 -7q-3 -16 -16.5 -27t-28.5 -11zM522 625q-16 0 -24 9.5t-8 20.5q0 4 1 8q3 16 16 27t29 11t23.5 -9.5t7.5 -20.5q0 -4 -1 -8q-3 -16 -15.5 -27t-28.5 -11zM102 272 q15 84 59.5 147t110 97t141.5 34q86 0 138.5 -42t65.5 -107l25 142h45l-96 -543h-45l25 143q-35 -66 -103 -108.5t-153 -42.5q-76 0 -129.5 34.5t-71.5 85.5t-18 96q0 30 6 64zM594 272q5 27 5 52q0 40 -16 84t-62 73.5t-109 29.5q-66 0 -121 -28.5t-92.5 -82.5t-50.5 -128 q-5 -31 -5 -58q0 -38 14.5 -81t60 -72t110.5 -29q63 0 119.5 29.5t95 84t51.5 126.5z" glyph-name="adieresis" unicode="ä"/>
<glyph d="M560 707q-8 -43 -40 -69t-73 -26q-40 0 -60.5 22.5t-20.5 51.5q0 10 2 21q7 44 40 70t73 26q41 0 61 -23t20 -53q0 -10 -2 -20zM528 708q1 8 1 14q0 21 -13 36.5t-41 15.5t-49 -18t-26 -48q-1 -8 -1 -15q0 -20 12.5 -36t40.5 -16t49.5 18.5t26.5 48.5zM102 272 q15 84 59.5 147t110 97t141.5 34q86 0 138.5 -42t65.5 -107l25 142h45l-96 -543h-45l25 143q-35 -66 -103 -108.5t-153 -42.5q-76 0 -129.5 34.5t-71.5 85.5t-18 96q0 30 6 64zM594 272q5 27 5 52q0 40 -16 84t-62 73.5t-109 29.5q-66 0 -121 -28.5t-92.5 -82.5t-50.5 -128 q-5 -31 -5 -58q0 -38 14.5 -81t60 -72t110.5 -29q63 0 119.5 29.5t95 84t51.5 126.5z" glyph-name="aring" unicode="å"/>
<glyph d="M1122 309q-5 -30 -13 -54h-473q-4 -24 -4 -46q0 -44 19 -86t64 -67t102 -25q81 0 143 39.5t87 107.5h48q-31 -83 -105 -134.5t-174 -51.5q-81 0 -137 41.5t-65 117.5l-27 -151h-40l26 150q-37 -71 -105 -114.5t-153 -43.5q-76 0 -129.5 34.5t-71.5 85.5t-18 96q0 30 6 64 q15 84 59.5 147t110.5 97t143 34q84 0 136.5 -42t65.5 -114l27 149h39l-27 -149q40 76 108.5 116t149.5 40q78 0 129 -33.5t67.5 -78.5t16.5 -83q0 -22 -5 -46zM1074 290q7 32 7 60q0 34 -15.5 73t-60.5 64t-103 25t-112 -25t-93.5 -75t-54.5 -122h432zM328 32 q63 0 119.5 29.5t95 84t51.5 126.5q5 27 5 52q0 40 -16 84t-62 73.5t-109 29.5q-66 0 -121 -28.5t-92.5 -82.5t-50.5 -128q-5 -31 -5 -58q0 -38 14.5 -81t60 -72t110.5 -29z" glyph-name="ae" horiz-adv-x="1122" unicode="æ"/>
<glyph d="M322 31q80 0 142 40t87 110h47q-30 -82 -100.5 -133.5t-166.5 -55.5l-13 -70h14q51 0 75.5 -18.5t24.5 -49.5q0 -8 -2 -18q-7 -42 -41 -67t-87 -25h-81l6 33h73q43 0 64 15t26 44q1 6 1 12q0 43 -71 43h-42l18 102q-71 4 -119.5 39t-64.5 84t-16 93q0 30 6 63 q15 85 59.5 148t110 96.5t142.5 33.5q102 0 158.5 -51t57.5 -137h-47q-1 70 -48.5 110t-127.5 40q-60 0 -113.5 -26.5t-92.5 -81t-53 -132.5q-6 -33 -6 -61q0 -40 16 -83t60 -70t104 -27z" glyph-name="ccedilla" horiz-adv-x="621" unicode="ç"/>
<glyph d="M625 308q-6 -36 -11 -54h-469q-4 -25 -4 -47q0 -43 17.5 -84.5t62.5 -66.5t103 -25q80 0 140.5 39.5t86.5 107.5h47q-30 -83 -105 -134.5t-176 -51.5q-76 0 -130 34t-72.5 85t-18.5 97q0 30 6 64q15 85 59.5 148t110.5 96.5t143 33.5q78 0 129.5 -33.5t68 -79t16.5 -83.5 q0 -22 -4 -46zM577 291q7 32 7 60q0 35 -15 73.5t-60 63t-102 24.5t-109.5 -24.5t-92 -74.5t-54.5 -122h426zM350 703l40 49l121 -106l-26 -31z" glyph-name="egrave" horiz-adv-x="625" unicode="è"/>
<glyph d="M625 308q-6 -36 -11 -54h-469q-4 -25 -4 -47q0 -43 17.5 -84.5t62.5 -66.5t103 -25q80 0 140.5 39.5t86.5 107.5h47q-30 -83 -105 -134.5t-176 -51.5q-76 0 -130 34t-72.5 85t-18.5 97q0 30 6 64q15 85 59.5 148t110.5 96.5t143 33.5q78 0 129.5 -33.5t68 -79t16.5 -83.5 q0 -22 -4 -46zM577 291q7 32 7 60q0 35 -15 73.5t-60 63t-102 24.5t-109.5 -24.5t-92 -74.5t-54.5 -122h426zM352 637l123 137l41 -39l-140 -120z" glyph-name="eacute" horiz-adv-x="625" unicode="é"/>
<glyph d="M625 308q-6 -36 -11 -54h-469q-4 -25 -4 -47q0 -43 17.5 -84.5t62.5 -66.5t103 -25q80 0 140.5 39.5t86.5 107.5h47q-30 -83 -105 -134.5t-176 -51.5q-76 0 -130 34t-72.5 85t-18.5 97q0 30 6 64q15 85 59.5 148t110.5 96.5t143 33.5q78 0 129.5 -33.5t68 -79t16.5 -83.5 q0 -22 -4 -46zM577 291q7 32 7 60q0 35 -15 73.5t-60 63t-102 24.5t-109.5 -24.5t-92 -74.5t-54.5 -122h426zM284 615l1 35l158 99l128 -99l-13 -35l-127 66z" glyph-name="ecircumflex" horiz-adv-x="625" unicode="ê"/>
<glyph d="M351 625q-16 0 -24 9.5t-8 20.5q0 4 1 8q3 16 16 27t29 11q15 0 23.5 -9.5t8.5 -21.5q0 -3 -1 -7q-3 -16 -16.5 -27t-28.5 -11zM495 625q-16 0 -24 9.5t-8 20.5q0 4 1 8q3 16 16 27t29 11t23.5 -9.5t7.5 -20.5q0 -4 -1 -8q-3 -16 -15.5 -27t-28.5 -11zM625 308 q-6 -36 -11 -54h-469q-4 -25 -4 -47q0 -43 17.5 -84.5t62 -66.5t102.5 -25q80 0 141 39.5t87 107.5h47q-30 -83 -105 -134.5t-176 -51.5q-76 0 -130 34t-72.5 85t-18.5 97q0 30 6 64q15 85 59.5 148t110.5 96.5t143 33.5q78 0 129.5 -33.5t68 -79t16.5 -83.5q0 -22 -4 -46z M577 291q7 32 7 60q0 35 -15 73.5t-60 63t-102 24.5t-109.5 -24.5t-92 -74.5t-54.5 -122h426z" glyph-name="edieresis" horiz-adv-x="625" unicode="ë"/>
<glyph d="M223 543l-96 -543h-45l96 543h45zM142 703l40 49l121 -106l-26 -31z" glyph-name="igrave" horiz-adv-x="210" unicode="ì"/>
<glyph d="M223 543l-96 -543h-45l96 543h45zM144 637l123 137l41 -39l-140 -120z" glyph-name="iacute" horiz-adv-x="210" unicode="í"/>
<glyph d="M227 694l-143 -82l7 38l143 82l114 -82l-7 -38zM223 543l-96 -543h-45l96 543h45z" glyph-name="icircumflex" horiz-adv-x="210" unicode="î"/>
<glyph d="M144 625q-16 0 -24 9.5t-8 20.5q0 4 1 8q3 16 16 27t29 11q15 0 23.5 -9.5t8.5 -21.5q0 -3 -1 -7q-3 -16 -16.5 -27t-28.5 -11zM288 625q-16 0 -24 9.5t-8 20.5q0 4 1 8q3 16 16 27t29 11t23.5 -9.5t7.5 -20.5q0 -4 -1 -8q-3 -16 -15.5 -27t-28.5 -11zM223 543l-96 -543 h-45l96 543h45z" glyph-name="idieresis" horiz-adv-x="210" unicode="ï"/>
<glyph d="M553 670q65 -79 82 -147.5t17 -122.5q0 -43 -8 -90q-19 -104 -65.5 -175.5t-113 -107t-145.5 -35.5q-81 0 -135.5 36.5t-70.5 88.5t-16 97q0 33 6 69q14 81 58 142t110.5 95t144.5 34t130 -40.5t65 -122.5q-1 79 -22.5 142t-72.5 125l-155 -52l5 29l132 44q-21 24 -61 61 h47q28 -24 50 -49l151 51l-5 -30zM326 31q62 0 118 28.5t95 83t52 129.5q5 30 5 57q0 41 -16 85t-61.5 72.5t-106.5 28.5q-63 0 -118 -27t-93 -79.5t-51 -125.5q-6 -34 -6 -64q0 -39 14.5 -83.5t59 -74.5t108.5 -30z" glyph-name="eth" horiz-adv-x="643" unicode="ð"/>
<glyph d="M289 605q11 38 34.5 59t53.5 21q17 0 28.5 -6.5t25.5 -19.5q13 -12 22.5 -17.5t24.5 -5.5q17 0 31 12t21 34h30q-9 -36 -34 -57.5t-55 -21.5q-19 0 -31 7t-27 20q-12 11 -21 16.5t-22 5.5q-37 0 -51 -47h-30zM425 554q97 0 140 -51t43 -121q0 -30 -6 -64l-56 -318h-44 l56 315q5 29 5 54q0 58 -34 102t-118 44q-88 0 -150.5 -56t-81.5 -166l-52 -293h-45l96 543h45l-21 -115q34 61 93.5 93.5t129.5 32.5z" glyph-name="ntilde" horiz-adv-x="623" unicode="ñ"/>
<glyph d="M320 -8q-76 0 -131 34t-74 85t-19 98q0 30 6 63q15 84 61 147.5t113.5 97t143.5 33.5t131 -33.5t74 -84t19 -97.5q0 -30 -6 -63q-15 -85 -61 -148.5t-113.5 -97.5t-143.5 -34zM327 32q59 0 115 26.5t96.5 80.5t54.5 133q6 31 6 58q0 41 -17.5 84.5t-64 70t-105.5 26.5 t-114 -26.5t-95.5 -80.5t-54.5 -132q-6 -32 -6 -59q0 -42 17 -85t63 -69.5t105 -26.5zM360 703l40 49l121 -106l-26 -31z" glyph-name="ograve" horiz-adv-x="645" unicode="ò"/>
<glyph d="M320 -8q-76 0 -131 34t-74 85t-19 98q0 30 6 63q15 84 61 147.5t113.5 97t143.5 33.5t131 -33.5t74 -84t19 -97.5q0 -30 -6 -63q-15 -85 -61 -148.5t-113.5 -97.5t-143.5 -34zM327 32q59 0 115 26.5t96.5 80.5t54.5 133q6 31 6 58q0 41 -17.5 84.5t-64 70t-105.5 26.5 t-114 -26.5t-95.5 -80.5t-54.5 -132q-6 -32 -6 -59q0 -42 17 -85t63 -69.5t105 -26.5zM362 637l123 137l41 -39l-140 -120z" glyph-name="oacute" horiz-adv-x="645" unicode="ó"/>
<glyph d="M320 -8q-76 0 -131 34t-74 85t-19 98q0 30 6 63q15 84 61 147.5t113.5 97t143.5 33.5t131 -33.5t74 -84t19 -97.5q0 -30 -6 -63q-15 -85 -61 -148.5t-113.5 -97.5t-143.5 -34zM327 32q59 0 115 26.5t96.5 80.5t54.5 133q6 31 6 58q0 41 -17.5 84.5t-64 70t-105.5 26.5 t-114 -26.5t-95.5 -80.5t-54.5 -132q-6 -32 -6 -59q0 -42 17 -85t63 -69.5t105 -26.5zM294 615l1 35l158 99l128 -99l-13 -35l-127 66z" glyph-name="ocircumflex" horiz-adv-x="645" unicode="ô"/>
<glyph d="M320 -8q-76 0 -131 34t-74 85t-19 98q0 30 6 63q15 84 61 147.5t113.5 97t143.5 33.5t131 -33.5t74 -84t19 -97.5q0 -30 -6 -63q-15 -85 -61 -148.5t-113.5 -97.5t-143.5 -34zM327 32q59 0 115 26.5t96.5 80.5t54.5 133q6 31 6 58q0 41 -17.5 84.5t-64 70t-105.5 26.5 t-114 -26.5t-95.5 -80.5t-54.5 -132q-6 -32 -6 -59q0 -42 17 -85t63 -69.5t105 -26.5zM289 647q5 14 14 28.5t20.5 26.5t25 20t28.5 8q20 0 36.5 -5.5t32.5 -12t31.5 -12t33.5 -5.5q20 0 30.5 9.5t18.5 26.5l38 -4q-5 -14 -14 -29t-20 -27t-25 -20t-29 -8q-17 0 -32 6 t-30.5 12.5t-32 12.5t-36.5 6t-31.5 -10t-20.5 -27z" glyph-name="otilde" horiz-adv-x="645" unicode="õ"/>
<glyph d="M365 627q-16 0 -24.5 9.5t-8.5 21.5q0 3 1 7q3 16 16 27t29 11q15 0 23.5 -9.5t8.5 -21.5q0 -3 -1 -7q-3 -16 -16 -27t-28 -11zM509 627q-16 0 -24.5 9.5t-8.5 21.5q0 3 1 7q3 16 16 27t29 11t23.5 -9.5t7.5 -20.5q0 -4 -1 -8q-3 -16 -15 -27t-28 -11zM320 -8 q-76 0 -131 34t-74 85t-19 98q0 30 6 63q15 84 61 147.5t113.5 97t143.5 33.5t131 -33.5t74 -84t19 -97.5q0 -30 -6 -63q-15 -85 -61 -148.5t-113.5 -97.5t-143.5 -34zM327 32q59 0 115 26.5t96.5 80.5t54.5 133q6 31 6 58q0 41 -17.5 84.5t-64 70t-105.5 26.5t-114 -26.5 t-95.5 -80.5t-54.5 -132q-6 -32 -6 -59q0 -42 17 -85t63 -69.5t105 -26.5z" glyph-name="odieresis" horiz-adv-x="645" unicode="ö"/>
<glyph d="M407 552q-17 0 -25 9.5t-8 21.5q0 4 1 8q3 17 16 28t30 11q16 0 24 -9.5t8 -21.5q0 -4 -1 -8q-3 -17 -16 -28t-29 -11zM633 395l-7 -39h-510l7 39h510zM332 123q-17 0 -25 9.5t-8 21.5q0 4 1 8q3 17 15.5 28t29.5 11q16 0 24.5 -9.5t8.5 -21.5q0 -4 -1 -8q-3 -17 -16 -28 t-29 -11z" glyph-name="divide" horiz-adv-x="613" unicode="÷"/>
<glyph d="M604 468q26 -36 33 -72.5t7 -61.5q0 -30 -6 -62q-15 -85 -61 -148.5t-113.5 -97.5t-143.5 -34q-104 0 -166 62l-59 -54h-37l79 73q-28 37 -34.5 73.5t-6.5 61.5q0 30 6 64q15 84 61 147.5t113.5 97t143.5 33.5q52 0 94.5 -16t72.5 -47l61 56h37zM148 272q-5 -30 -5 -57 q0 -65 30 -110l380 351q-25 27 -62 41t-79 14q-59 0 -114 -26.5t-95.5 -80.5t-54.5 -132zM327 32q59 0 115 26.5t96.5 80.5t54.5 133q5 30 5 57q0 63 -29 107l-381 -351q24 -26 60.5 -39.5t78.5 -13.5z" glyph-name="oslash" horiz-adv-x="645" unicode="ø"/>
<glyph d="M637 543l-96 -543h-45l21 118q-34 -62 -93.5 -94.5t-128.5 -32.5q-97 0 -140.5 51t-43.5 122q0 29 6 63l56 316h44l-55 -313q-5 -29 -5 -54q0 -58 33.5 -102t117.5 -44q88 0 150.5 56t81.5 166l52 291h45zM349 703l40 49l121 -106l-26 -31z" glyph-name="ugrave" horiz-adv-x="623" unicode="ù"/>
<glyph d="M637 543l-96 -543h-45l21 118q-34 -62 -93.5 -94.5t-128.5 -32.5q-97 0 -140.5 51t-43.5 122q0 29 6 63l56 316h44l-55 -313q-5 -29 -5 -54q0 -58 33.5 -102t117.5 -44q88 0 150.5 56t81.5 166l52 291h45zM351 637l123 137l41 -39l-140 -120z" glyph-name="uacute" horiz-adv-x="623" unicode="ú"/>
<glyph d="M434 694l-143 -82l7 38l143 82l114 -82l-7 -38zM637 543l-96 -543h-45l21 118q-34 -62 -93.5 -94.5t-128.5 -32.5q-97 0 -140.5 51t-43.5 122q0 29 6 63l56 316h44l-55 -313q-6 -30 -6 -56q0 -57 34 -100.5t118 -43.5q88 0 150.5 56t81.5 166l52 291h45z" glyph-name="ucircumflex" horiz-adv-x="623" unicode="û"/>
<glyph d="M351 625q-16 0 -24 9.5t-8 20.5q0 4 1 8q3 16 16 27t29 11q15 0 23.5 -9.5t8.5 -21.5q0 -3 -1 -7q-3 -16 -16.5 -27t-28.5 -11zM495 625q-16 0 -24 9.5t-8 20.5q0 4 1 8q3 16 16 27t29 11t23.5 -9.5t7.5 -20.5q0 -4 -1 -8q-3 -16 -15.5 -27t-28.5 -11zM637 543l-96 -543 h-45l21 118q-34 -62 -93.5 -94.5t-128.5 -32.5q-97 0 -140.5 51t-43.5 122q0 29 6 63l56 316h44l-55 -313q-6 -30 -6 -56q0 -57 34 -100.5t118 -43.5q88 0 150.5 56t81.5 166l52 291h45z" glyph-name="udieresis" horiz-adv-x="623" unicode="ü"/>
<glyph d="M602 543l-457 -798h-46l146 255l-132 543h49l117 -493l277 493h46zM301 637l123 137l41 -39l-140 -120z" glyph-name="yacute" horiz-adv-x="524" unicode="ý"/>
<glyph d="M196 389q34 72 103 116.5t155 44.5q76 0 129.5 -34t71.5 -84.5t18 -95.5q0 -30 -6 -64q-15 -84 -59.5 -147.5t-110 -98t-141.5 -34.5q-86 0 -139 45t-63 118l-72 -411h-45l175 996h45zM621 272q5 31 5 58q0 38 -14.5 81t-60 71.5t-111.5 28.5q-63 0 -119 -29.5t-95 -84 t-51 -125.5q-5 -29 -5 -55q0 -39 15.5 -82.5t61.5 -73t109 -29.5q66 0 121.5 29t93 83t50.5 128z" glyph-name="thorn" unicode="þ"/>
<glyph d="M223 543l-96 -543h-45l96 543h45z" glyph-name="dotlessi" horiz-adv-x="210" unicode="ı"/>
<glyph d="M190 615l1 35l158 99l128 -99l-13 -35l-127 66z" glyph-name="circumflex" horiz-adv-x="417" unicode="ˆ"/>
<glyph d="M213 647q5 14 14 28.5t20.5 26.5t25 20t28.5 8q20 0 36.5 -5.5t32.5 -12t31.5 -12t33.5 -5.5q20 0 30.5 9.5t18.5 26.5l38 -4q-5 -14 -14 -29t-20 -27t-25 -20t-29 -8q-17 0 -32 6t-30.5 12.5t-32 12.5t-36.5 6t-31.5 -10t-20.5 -27z" glyph-name="tilde" horiz-adv-x="458" unicode="˜"/>
</font>
</defs>
</svg>
