<?xml version="1.0" encoding="UTF-8"?>
<!DOCTYPE svg  PUBLIC '-//W3C//DTD SVG 1.1//EN'  'http://www.w3.org/Graphics/SVG/1.1/DTD/svg11.dtd'>
<svg version="1.1" xmlns="http://www.w3.org/2000/svg">
<defs>
<font id="FzPoppins-Italic" horiz-adv-x="640">
<font-face font-family="Fz Poppins" font-style="italic" font-weight="400" ascent="800" bbox="-73 -270 1112 962" cap-height="697" descent="-200" panose-1="0 0 0 0 0 0 0 0 0 0" slope="-10" underline-position="-100" underline-thickness="50" unicode-range="U+0020-02DC" units-per-em="1000" x-height="548"/>
<missing-glyph/>
<glyph glyph-name="space" horiz-adv-x="267" unicode=" "/>
<glyph d="M318 697l-99 -500h-76l77 500h98zM149 -6q-26 0 -39 16t-13 34q0 6 1 12q4 26 25.5 44t47.5 18q25 0 37.5 -16t12.5 -35q0 -5 -1 -11q-5 -26 -25.5 -44t-45.5 -18z" glyph-name="exclam" horiz-adv-x="298" unicode="!"/>
<glyph d="M261 796l-46 -199h-63l23 199h86zM396 796l-46 -199h-63l23 199h86z" glyph-name="quotedbl" horiz-adv-x="292" unicode='"'/>
<glyph d="M710 460l-70 -180h138l-14 -80h-155l-78 -200h-87l78 200h-210l-78 -200h-87l78 200h-157l14 80h174l70 180h-155l14 80h172l78 200h87l-78 -200h210l78 200h87l-78 -200h139l-14 -80h-156zM623 460h-210l-70 -180h210z" glyph-name="numbersign" horiz-adv-x="840" unicode="#"/>
<glyph d="M561 191q-9 -48 -40.5 -91.5t-83 -72.5t-117.5 -33l-14 -81h-54l14 81q-90 8 -133 53t-43 102q0 15 3 32h97v-10q0 -36 20.5 -65t68.5 -37l44 250q-64 17 -101.5 35t-56.5 50t-19 69q0 18 4 39q15 81 80.5 134t160.5 59l15 83h54l-15 -83q84 -7 125.5 -52t41.5 -111 q0 -7 -1 -15h-97v3q0 33 -20.5 61t-61.5 37l-43 -244q63 -17 101.5 -34.5t56.5 -49t18 -68.5q0 -19 -4 -41zM244 517q-2 -12 -2 -23q0 -32 21 -55t74 -40l41 231q-53 -5 -89 -33.5t-45 -79.5zM333 68q55 6 91.5 39t44.5 79q2 12 2 22q0 33 -22 56.5t-74 39.5z" glyph-name="dollar" horiz-adv-x="622" unicode="$"/>
<glyph d="M141 560q12 68 60 108.5t112 40.5t93.5 -35t29.5 -80q0 -16 -3 -34q-12 -69 -60.5 -109.5t-112.5 -40.5t-93 35t-29 81q0 16 3 34zM749 698l-528 -698h-90l528 698h90zM303 653q-34 0 -57.5 -23.5t-31.5 -69.5q-3 -16 -3 -29q0 -25 12.5 -45t46.5 -20t58.5 24.5 t32.5 69.5q3 15 3 28q0 26 -13.5 45.5t-47.5 19.5zM449 138q12 69 60.5 109.5t112.5 40.5t92.5 -35t28.5 -80q0 -17 -3 -35q-12 -68 -59.5 -109t-111.5 -41t-93.5 35t-29.5 81q0 16 3 34zM611 231q-34 0 -58.5 -23.5t-32.5 -69.5q-3 -15 -3 -28q0 -25 13.5 -44.5t47.5 -19.5 t58 23.5t32 68.5q3 16 3 29q0 25 -13 44.5t-47 19.5z" glyph-name="percent" horiz-adv-x="759" unicode="%"/>
<glyph d="M612 0l-75 92q-60 -53 -122.5 -78.5t-135.5 -25.5q-72 0 -123 26t-69.5 66t-18.5 79q0 20 4 41q13 73 64.5 128.5t137.5 87.5q-25 38 -31.5 63t-6.5 44q0 16 3 33q8 44 36.5 79.5t74 55.5t100.5 20q54 0 90.5 -21t47 -50.5t10.5 -53.5q0 -18 -4 -38h-91q2 12 2 22 q0 26 -17 46t-55 20q-40 0 -68.5 -22.5t-34.5 -57.5q-2 -9 -2 -18q0 -20 10 -44t42 -65l171 -209l23 28l88 114h98l-107 -142q-22 -30 -51 -63l129 -157h-119zM293 66q54 0 101 21t94 65l-169 206q-137 -49 -155 -155q-3 -14 -3 -27q0 -41 32 -75.5t100 -34.5z" glyph-name="ampersand" horiz-adv-x="739" unicode="&amp;"/>
<glyph d="M263 796l-47 -199h-63l22 199h88z" glyph-name="quotesingle" horiz-adv-x="159" unicode="'"/>
<glyph d="M278 -186q-79 94 -100 201.5t-21 182.5q0 81 16 168q30 172 113 321.5t205 246.5h95l-2 -9q-130 -105 -212.5 -252.5t-110.5 -306.5q-14 -77 -14 -150q0 -75 21.5 -181t106.5 -212l-2 -9h-95z" glyph-name="parenleft" horiz-adv-x="454" unicode="("/>
<glyph d="M15 -186l2 9q121 106 199.5 247t106.5 296q13 76 13 150q0 80 -23 192t-117 217l2 9h95q88 -97 110.5 -209t22.5 -193q0 -80 -15 -166q-30 -168 -109 -313t-192 -239h-95z" glyph-name="parenright" horiz-adv-x="454" unicode=")"/>
<glyph d="M505 670l25 -65l-150 -58l130 -57l-49 -67l-106 88l-11 -151h-75l42 151l-137 -89l-27 68l150 58l-129 56l48 67l109 -89l10 152h76l-43 -152z" glyph-name="asterisk" horiz-adv-x="486" unicode="*"/>
<glyph d="M655 327h-213l-38 -216h-85l38 216h-212l13 77h212l38 217h85l-38 -217h213z" glyph-name="plus" horiz-adv-x="683" unicode="+"/>
<glyph d="M193 126l-159 -269h-61l120 269h100z" glyph-name="comma" horiz-adv-x="198" unicode=","/>
<glyph d="M528 405l-13 -77h-399l13 77h399z" glyph-name="hyphen" horiz-adv-x="551" unicode="-"/>
<glyph d="M105 -6q-26 0 -39 16t-13 34q0 6 1 12q5 26 26 44t47 18q25 0 37.5 -15.5t12.5 -33.5q0 -6 -1 -13q-5 -26 -25.5 -44t-45.5 -18z" glyph-name="period" horiz-adv-x="210" unicode="."/>
<glyph d="M583 942l-470 -1112h-90l469 1112h91z" glyph-name="slash" horiz-adv-x="476" unicode="/"/>
<glyph d="M127 369q30 172 103 268.5t213 96.5q139 0 169.5 -75.5t30.5 -154.5q0 -60 -13 -135q-31 -175 -104 -272t-212 -97q-140 0 -170.5 75.5t-30.5 153.5q0 63 14 140zM540 369q15 84 15 144q0 2 -0.5 33t-29.5 68t-96 37q-68 0 -110 -37t-64.5 -97.5t-37.5 -147.5 q-15 -85 -15 -144q0 -3 0.5 -35.5t29.5 -69.5t97 -37q67 0 109 37t64 98t38 151z" glyph-name="zero" horiz-adv-x="628" unicode="0"/>
<glyph d="M151 640l14 83h188l-127 -723h-92l113 640h-96z" glyph-name="one" horiz-adv-x="320" unicode="1"/>
<glyph d="M64 73q145 102 228.5 167.5t145.5 137t74 140.5q4 21 4 39q0 38 -21 69.5t-91 31.5q-68 0 -113 -42.5t-60 -113.5h-88q23 112 98 173t176 61q103 0 147 -49.5t44 -114.5q0 -24 -5 -50q-15 -83 -78 -161.5t-136.5 -138t-185.5 -138.5h344l-14 -76h-481z" glyph-name="two" horiz-adv-x="575" unicode="2"/>
<glyph d="M155 541q24 92 97 144t175 52q68 0 113 -24.5t60.5 -59t15.5 -66.5q0 -17 -4 -36q-11 -62 -54.5 -107t-102.5 -58l-1 -5q62 -16 87 -55.5t25 -85.5q0 -21 -4 -45q-10 -57 -44 -102.5t-90.5 -71.5t-129.5 -26q-106 0 -159.5 51.5t-53.5 132.5q0 14 1 29h88v-12 q0 -52 33.5 -88t103.5 -36t113 36.5t53 94.5q3 17 3 32q0 51 -39 80t-140 29h-23l13 76h24q92 1 144.5 30.5t63.5 91.5q2 13 2 24q0 37 -25.5 65t-89.5 28q-62 0 -105.5 -32t-60.5 -86h-89z" glyph-name="three" horiz-adv-x="589" unicode="3"/>
<glyph d="M68 161l13 69l436 486h109l-84 -476h100l-14 -79h-100l-28 -161h-90l28 161h-370zM523 621l-336 -381h269z" glyph-name="four" horiz-adv-x="629" unicode="4"/>
<glyph d="M637 644h-351l-41 -228q29 32 77.5 52.5t100.5 20.5q83 0 129 -34.5t56 -76.5t10 -73q0 -27 -5 -55q-13 -72 -50 -129t-98 -90t-143 -33q-105 0 -159.5 53t-54.5 139v6h89q3 -57 39 -89t100 -32q79 0 127.5 47.5t62.5 125.5q4 22 4 42q0 48 -28 84.5t-106 36.5 q-53 0 -97 -25.5t-69 -69.5h-86l72 408h435z" glyph-name="five" horiz-adv-x="628" unicode="5"/>
<glyph d="M562 551q-2 111 -117 111q-89 0 -145 -68.5t-83 -225.5q32 52 90.5 81.5t124.5 29.5q103 0 146.5 -55t43.5 -126q0 -28 -6 -60q-12 -68 -48 -122t-95 -86t-135 -32q-103 0 -153 46t-56 98.5t-6 80.5q0 65 15 148q65 367 321 367q98 0 142.5 -51t44.5 -123v-13h-84z M400 402q-43 0 -84 -17.5t-71 -53t-39 -86.5q-3 -20 -3 -39q0 -50 30.5 -91t112.5 -41q70 0 119 43.5t62 117.5q4 24 4 44q0 48 -27 85.5t-104 37.5z" glyph-name="six" horiz-adv-x="635" unicode="6"/>
<glyph d="M622 652l-393 -652h-92l395 643h-386l14 78h474z" glyph-name="seven" horiz-adv-x="546" unicode="7"/>
<glyph d="M260 376q-52 22 -71 57t-19 72q0 17 4 37q9 54 43.5 97.5t92.5 69t134 25.5t125 -25.5t66 -62t17 -71.5q0 -16 -3 -33q-11 -58 -49.5 -101.5t-96.5 -64.5q59 -19 83 -59.5t24 -83.5q0 -18 -4 -38q-11 -65 -51.5 -113.5t-104 -75t-139.5 -26.5t-128.5 26.5t-72.5 67.5 t-20 81q0 19 4 40q12 67 56.5 115t109.5 66zM559 531q2 14 2 26q0 43 -30 72t-100 29q-69 0 -115 -33t-57 -95q-2 -11 -2 -22q0 -41 32 -71.5t98 -30.5q67 0 114.5 34.5t57.5 90.5zM374 336q-74 0 -127 -34.5t-65 -103.5q-2 -14 -2 -27q0 -46 34 -80.5t111 -34.5t129 39 t63 103q3 15 3 29q0 46 -35.5 77.5t-110.5 31.5z" glyph-name="eight" horiz-adv-x="631" unicode="8"/>
<glyph d="M213 194q0 -57 31 -88t93 -31q83 0 134 65t76 219q-29 -45 -82.5 -70.5t-113.5 -25.5q-67 0 -114.5 27.5t-64 70t-16.5 83.5q0 26 5 55q19 107 92.5 172.5t187.5 65.5q140 0 171.5 -71t31.5 -149q0 -63 -14 -142q-22 -126 -59 -208t-98 -125t-154 -43q-102 0 -146.5 51.5 t-44.5 122.5q0 10 1 21h84zM380 340q67 0 117.5 41.5t62.5 112.5q4 21 4 40q0 48 -29 87.5t-105 39.5q-70 0 -119.5 -44t-62.5 -116q-4 -20 -4 -39q0 -46 29 -84t107 -38z" glyph-name="nine" horiz-adv-x="630" unicode="9"/>
<glyph d="M105 -6q-26 0 -39 16t-13 34q0 6 1 12q5 26 26 44t47 18q25 0 37.5 -15.5t12.5 -33.5q0 -6 -1 -13q-5 -26 -25.5 -44t-45.5 -18zM180 422q-26 0 -39 16t-13 34q0 6 1 12q5 26 26 44t47 18q25 0 37.5 -15.5t12.5 -33.5q0 -6 -1 -13q-5 -26 -25.5 -44t-45.5 -18z" glyph-name="colon" horiz-adv-x="213" unicode=":"/>
<glyph d="M205 423q-26 0 -39 16t-13 34q0 6 1 12q5 26 26 44t47 18q25 0 37.5 -15.5t12.5 -33.5q0 -6 -1 -13q-5 -26 -25.5 -44t-45.5 -18zM218 126l-159 -269h-61l120 269h100z" glyph-name="semicolon" horiz-adv-x="264" unicode=";"/>
<glyph d="M349 136l-200 230l281 229h115l-282 -229l201 -230h-115z" glyph-name="less" horiz-adv-x="555" unicode="&lt;"/>
<glyph d="M711 512l-13 -77h-520l13 77h520zM673 297l-13 -77h-520l13 77h520z" glyph-name="equal" horiz-adv-x="723" unicode="="/>
<glyph d="M199 595h115l202 -229l-283 -230h-115l283 230z" glyph-name="greater" horiz-adv-x="539" unicode="&gt;"/>
<glyph d="M379 706q99 0 144 -49t45 -113q0 -21 -4 -44q-18 -105 -92 -155.5t-185 -50.5l-20 -95h-79l24 158h29q99 0 160.5 30t75.5 113q3 16 3 30q0 39 -26 69.5t-87 30.5q-62 0 -103.5 -33.5t-51.5 -91.5h-86q11 60 46 105.5t88.5 70.5t118.5 25zM191 -6q-26 0 -39 16t-13 34 q0 6 1 12q4 26 25.5 44t47.5 18q25 0 37.5 -16t12.5 -35q0 -5 -1 -11q-5 -26 -25.5 -44t-45.5 -18z" glyph-name="question" horiz-adv-x="524" unicode="?"/>
<glyph d="M690 641q111 0 185.5 -42t100 -103.5t25.5 -118.5q0 -34 -7 -70q-14 -79 -52.5 -151.5t-96 -117.5t-123.5 -45q-50 0 -71 23.5t-21 59.5v10q-38 -43 -90 -68t-105 -25q-76 0 -106.5 40t-30.5 90q0 20 4 42q13 75 56 140t106 104.5t134 39.5q95 0 115 -72l22 62h79 l-101 -289q-6 -19 -9 -35q-2 -10 -2 -18q0 -42 45 -42q40 0 76 38t61 95.5t35 113.5q6 34 6 64q0 86 -57 148.5t-200 62.5q-119 0 -225 -57.5t-177.5 -157.5t-92.5 -221q-6 -35 -6 -65q0 -86 58 -148t200 -62q94 0 172 34l1 -62q-95 -37 -202 -37t-181.5 40.5t-100 102.5 t-25.5 121q0 33 6 68q25 141 110.5 257.5t213 183.5t271.5 67zM474 64q45 0 88 26.5t73 72t39 99.5q3 15 3 28q0 33 -19.5 61t-71.5 28q-48 0 -89.5 -28.5t-70 -75t-36.5 -96.5q-3 -17 -3 -31q0 -32 18 -58t69 -26z" glyph-name="at" horiz-adv-x="1013" unicode="@"/>
<glyph d="M516 155h-304l-83 -155h-96l374 693h105l129 -693h-96zM503 229l-64 352l-188 -352h252z" glyph-name="A" horiz-adv-x="674" unicode="A"/>
<glyph d="M489 359q37 -6 64 -31t37 -55t10 -56q0 -15 -3 -30q-9 -53 -43.5 -95.5t-90.5 -67t-126 -24.5h-260l123 697h250q71 0 117 -23.5t61 -57t15 -64.5q0 -15 -3 -32q-11 -62 -52 -102.5t-99 -58.5zM238 396h153q64 0 104 30t50 83q2 12 2 24q0 36 -26 62.5t-92 26.5h-151z M342 75q68 0 112 32t54 89q2 13 2 25q0 41 -30 70.5t-97 29.5h-158l-44 -246h161z" glyph-name="B" horiz-adv-x="613" unicode="B"/>
<glyph d="M105 349q18 102 78 183.5t147.5 127.5t184.5 46q114 0 189.5 -55t96.5 -156h-109q-18 63 -66.5 97t-124.5 34q-73 0 -137 -34t-108 -96.5t-58 -146.5q-6 -34 -6 -64q0 -44 17.5 -94t69.5 -84t125 -34q76 0 136.5 33.5t100.5 96.5h109q-57 -100 -151.5 -154.5 t-208.5 -54.5q-97 0 -168.5 45.5t-97.5 112t-26 126.5q0 34 7 71z" glyph-name="C" horiz-adv-x="772" unicode="C"/>
<glyph d="M417 697q114 0 190 -42.5t100.5 -106.5t24.5 -123q0 -37 -7 -78q-19 -107 -77 -185.5t-149 -120t-205 -41.5h-217l123 697h217zM307 75q135 0 218.5 71.5t106.5 200.5q6 37 6 69q0 82 -50 144.5t-184 62.5h-126l-97 -548h126z" glyph-name="D" horiz-adv-x="707" unicode="D"/>
<glyph d="M278 623l-41 -233h254l-13 -75h-254l-43 -240h284l-13 -75h-375l123 698h375l-13 -75h-284z" glyph-name="E" horiz-adv-x="513" unicode="E"/>
<glyph d="M594 697l-13 -74h-303l-42 -235h246l-13 -74h-246l-55 -314h-91l123 697h394z" glyph-name="F" horiz-adv-x="504" unicode="F"/>
<glyph d="M692 495q-18 61 -67 94.5t-122 33.5t-137.5 -33.5t-109 -96t-58.5 -144.5q-6 -33 -6 -62q0 -45 18 -94.5t70.5 -83t125.5 -33.5q102 0 179 61t106 165h-278l13 74h375l-12 -70q-23 -86 -81.5 -157.5t-141 -113t-174.5 -41.5q-97 0 -169 45.5t-98 112t-26 126.5q0 34 6 71 q18 102 78.5 183.5t148.5 127t185 45.5q111 0 187 -55t97 -155h-109z" glyph-name="G" horiz-adv-x="778" unicode="G"/>
<glyph d="M737 697l-123 -697h-91l56 316h-355l-56 -316h-91l123 697h91l-54 -306h355l54 306h91z" glyph-name="H" horiz-adv-x="692" unicode="H"/>
<glyph d="M291 697l-123 -697h-91l123 697h91z" glyph-name="I" horiz-adv-x="246" unicode="I"/>
<glyph d="M551 697l-91 -515q-15 -86 -77 -137.5t-149 -51.5q-88 0 -126 45.5t-38 104.5q0 22 4 46h91q-2 -15 -2 -28q0 -32 17 -59.5t68 -27.5t81.5 30.5t38.5 77.5l91 515h92z" glyph-name="J" horiz-adv-x="530" unicode="J"/>
<glyph d="M455 0l-231 318l-56 -318h-91l123 697h91l-57 -323l345 323h115l-378 -349l258 -348h-119z" glyph-name="K" horiz-adv-x="599" unicode="K"/>
<glyph d="M181 74h244l-13 -74h-335l123 697h91z" glyph-name="L" horiz-adv-x="432" unicode="L"/>
<glyph d="M906 692l-122 -692h-91l91 516l-321 -516h-64l-140 517l-91 -517h-91l122 692h98l155 -572l357 572h97z" glyph-name="M" horiz-adv-x="861" unicode="M"/>
<glyph d="M625 0h-91l-268 555l-98 -555h-91l123 698h91l268 -554l98 554h91z" glyph-name="N" horiz-adv-x="703" unicode="N"/>
<glyph d="M392 -7q-97 0 -169 45.5t-98 112.5t-26 127q0 34 6 71q18 102 78.5 183.5t148.5 127t185 45.5q98 0 170 -45.5t98 -112t26 -127.5q0 -34 -6 -71q-19 -103 -79 -184t-148 -126.5t-186 -45.5zM406 72q73 0 137.5 34t109 97t59.5 146q5 32 5 61q0 47 -18 97.5t-70 84.5 t-126 34t-138 -34t-108.5 -96.5t-58.5 -146.5q-6 -33 -6 -63q0 -45 18 -95.5t70.5 -84.5t125.5 -34z" glyph-name="O" horiz-adv-x="786" unicode="O"/>
<glyph d="M630 493q-15 -87 -85 -144.5t-192 -57.5h-134l-51 -291h-91l123 697h225q118 0 163.5 -50t45.5 -113q0 -20 -4 -41zM367 366q76 0 117.5 33t52.5 94q3 17 3 32q0 97 -128 97h-134l-45 -256h134z" glyph-name="P" horiz-adv-x="579" unicode="P"/>
<glyph d="M613 -132l-115 139q-53 -14 -106 -14q-97 0 -169 45.5t-98 112.5t-26 127q0 34 6 71q18 102 78.5 183.5t148.5 127t185 45.5q98 0 170 -45.5t98 -112t26 -127.5q0 -34 -6 -71q-18 -100 -76 -180t-143 -126l145 -175h-118zM198 349q-6 -33 -6 -63q0 -45 18 -95.5 t70.5 -84.5t125.5 -34t137.5 34t109 97t59.5 146q5 32 5 61q0 47 -18 97.5t-70 84.5t-126 34t-138 -34t-108.5 -96.5t-58.5 -146.5z" glyph-name="Q" horiz-adv-x="788" unicode="Q"/>
<glyph d="M444 0l-116 285h-110l-50 -285h-91l123 697h225q79 0 128.5 -27t65 -65t15.5 -74q0 -19 -3 -39q-13 -72 -64 -127t-138 -73l124 -292h-109zM231 358h134q74 0 117.5 36.5t54.5 97.5q3 16 3 31q0 40 -26.5 69.5t-101.5 29.5h-134z" glyph-name="R" horiz-adv-x="608" unicode="R"/>
<glyph d="M297 -7q-69 0 -119.5 24.5t-70.5 62t-20 75.5q0 15 3 31h97v-11q0 -42 27.5 -73.5t95.5 -31.5q65 0 108.5 32.5t52.5 83.5q2 11 2 22q0 25 -15 46.5t-46 34.5t-84 28q-66 18 -104.5 36t-57.5 50t-19 70q0 19 4 40q11 57 47.5 101t93 68t124.5 24q98 0 149.5 -46.5 t51.5 -116.5q0 -8 -1 -16h-100v5q0 37 -30.5 66.5t-91.5 29.5q-57 0 -98.5 -29.5t-50.5 -82.5q-2 -11 -2 -21q0 -24 15 -44.5t44 -33t84 -28.5q65 -19 104 -37.5t58.5 -51t19.5 -70.5q0 -19 -4 -40q-9 -51 -44 -96t-93 -73t-130 -28z" glyph-name="S" horiz-adv-x="587" unicode="S"/>
<glyph d="M629 697l-13 -74h-190l-110 -623h-91l110 623h-191l13 74h472z" glyph-name="T" horiz-adv-x="541" unicode="T"/>
<glyph d="M289 697l-78 -441q-5 -28 -5 -51q0 -55 32 -93.5t113 -38.5q80 0 133.5 45t69.5 138l78 441h91l-78 -440q-15 -87 -60.5 -146.5t-110 -88.5t-138.5 -29t-128.5 29t-74 77t-19.5 95q0 30 6 63l78 440h91z" glyph-name="U" horiz-adv-x="675" unicode="U"/>
<glyph d="M776 697l-386 -697h-105l-140 697h97l113 -601l325 601h96z" glyph-name="V" horiz-adv-x="676" unicode="V"/>
<glyph d="M1076 697l-325 -697h-102l-63 561l-267 -561l-101 -1l-72 698h97l48 -591l272 591h102l56 -589l257 589h98z" glyph-name="W" horiz-adv-x="976" unicode="W"/>
<glyph d="M423 348l153 -348h-103l-119 272l-207 -272h-101l274 348l-152 349h102l120 -273l208 273h102z" glyph-name="X" horiz-adv-x="621" unicode="X"/>
<glyph d="M688 697l-304 -434l-46 -263h-91l46 263l-151 434h101l110 -353l234 353h101z" glyph-name="Y" horiz-adv-x="584" unicode="Y"/>
<glyph d="M168 79h340l-14 -79h-448l13 72l434 546h-334l14 79h442l-13 -72z" glyph-name="Z" horiz-adv-x="541" unicode="Z"/>
<glyph d="M478 934l-14 -75h-95l-170 -969h95l-14 -76h-180l198 1120h180z" glyph-name="bracketleft" horiz-adv-x="423" unicode="["/>
<glyph d="M414 -170l-117 1112h90l117 -1112h-90z" glyph-name="backslash" horiz-adv-x="658" unicode="\"/>
<glyph d="M257 -186h-180l14 76h95l170 969h-95l14 75h180z" glyph-name="bracketright" horiz-adv-x="423" unicode="]"/>
<glyph d="M161 169h-94l327 524h85l144 -524h-95l-110 412z" glyph-name="asciicircum" horiz-adv-x="629" unicode="^"/>
<glyph d="M630 -38l-15 -84h-532l15 84h532z" glyph-name="underscore" horiz-adv-x="733" unicode="_"/>
<glyph d="M189 704l69 84l129 -118l-51 -60z" glyph-name="grave" horiz-adv-x="324" unicode="`"/>
<glyph d="M92 276q15 84 60 147.5t110.5 98.5t138.5 35q72 0 119.5 -31t65.5 -78l18 100h92l-97 -548h-92l18 102q-35 -48 -94.5 -79.5t-130.5 -31.5q-73 0 -125.5 36t-70.5 88t-18 97q0 31 6 64zM556 275q4 23 4 45q0 34 -13.5 71.5t-52 62t-89.5 24.5t-97 -24t-79 -70t-44 -108 q-4 -25 -4 -48q0 -34 13 -71t51 -61.5t89 -24.5t97.5 24.5t80 71t44.5 108.5z" glyph-name="a" horiz-adv-x="676" unicode="a"/>
<glyph d="M247 446q36 49 95.5 80t128.5 31q74 0 127 -35t71 -86.5t18 -98.5q0 -29 -5 -61q-15 -83 -60.5 -148t-111.5 -101t-139 -36q-71 0 -119 31t-66 79l-18 -101h-91l130 740h91zM589 276q4 24 4 46q0 34 -13.5 71t-52 61t-89.5 24q-50 0 -96.5 -24.5t-80.5 -71t-45 -107.5 q-4 -23 -4 -44q0 -35 14 -73t52.5 -62.5t88.5 -24.5q51 0 97.5 24.5t80 71t44.5 109.5z" glyph-name="b" horiz-adv-x="676" unicode="b"/>
<glyph d="M91 275q15 85 60.5 148.5t112 98.5t144.5 35q101 0 158 -49t63 -136h-98q-6 50 -41 79t-95 29q-78 0 -135.5 -53.5t-75.5 -151.5q-5 -30 -5 -56q0 -60 32.5 -105.5t110.5 -45.5q60 0 105 28t69 80h98q-37 -84 -112 -134.5t-174 -50.5q-78 0 -132 35t-72.5 86.5 t-18.5 98.5q0 30 6 64z" glyph-name="c" horiz-adv-x="607" unicode="c"/>
<glyph d="M92 276q15 84 60 147.5t110.5 98.5t139.5 35q64 0 114 -29.5t70 -77.5l52 290h92l-131 -740h-92l18 103q-35 -49 -94 -80.5t-130 -31.5q-73 0 -126 36t-71 88t-18 97q0 31 6 64zM556 275q4 23 4 45q0 34 -13.5 71.5t-52 62t-89.5 24.5t-97 -24t-79 -70t-44 -108 q-4 -25 -4 -48q0 -34 13 -71t51 -61.5t89 -24.5t97.5 24.5t80 71t44.5 108.5z" glyph-name="d" horiz-adv-x="676" unicode="d"/>
<glyph d="M629 295q-5 -26 -13 -55h-438q-2 -14 -2 -27q0 -62 39 -103.5t111 -41.5q59 0 103.5 27.5t68.5 73.5h98q-36 -79 -111 -128.5t-173 -49.5q-78 0 -133 35t-74 87t-19 99q0 30 6 63q15 85 60 149t112.5 98.5t147.5 34.5q78 0 132 -34t72 -82.5t18 -91.5q0 -26 -5 -54z M538 314q4 20 4 37q0 29 -13.5 59.5t-49.5 50t-84 19.5q-69 0 -125.5 -44t-77.5 -122h346z" glyph-name="e" horiz-adv-x="620" unicode="e"/>
<glyph d="M383 473h-115l-83 -473h-91l83 473h-71l14 75h71l7 39q16 92 71 134.5t160 42.5l-14 -76q-60 0 -88.5 -23.5t-37.5 -77.5l-7 -39h115z" glyph-name="f" horiz-adv-x="329" unicode="f"/>
<glyph d="M401 557q71 0 119 -31t66 -78l18 100h92l-99 -560q-13 -75 -55.5 -133.5t-108 -91.5t-144.5 -33q-108 0 -169.5 50t-61.5 132v8h90q6 -50 47.5 -80.5t107.5 -30.5q75 0 131 47t71 132l20 115q-35 -48 -94 -80t-130 -32q-73 0 -126 36t-71 88t-18 97q0 31 6 64 q14 84 59.5 147.5t111 98.5t138.5 35zM555 275q4 25 4 47q0 33 -13 70t-51.5 61.5t-89.5 24.5t-97 -24t-79 -70t-44 -108q-4 -25 -4 -48q0 -34 13 -71t51 -61.5t89 -24.5t97.5 24.5t80 71t43.5 108.5z" glyph-name="g" horiz-adv-x="676" unicode="g"/>
<glyph d="M447 558q62 0 107.5 -26.5t60.5 -68.5t15 -82q0 -27 -5 -58l-57 -323h-90l55 310q4 24 4 45q0 50 -28.5 87t-99.5 37q-72 0 -122 -45t-66 -131l-53 -303h-91l130 740h91l-47 -270q34 42 85.5 65t110.5 23z" glyph-name="h" unicode="h"/>
<glyph d="M236 637q-26 0 -39 16t-13 35q0 5 1 11q5 26 26 44t47 18q25 0 37.5 -15.5t12.5 -33.5q0 -6 -1 -13q-4 -26 -25 -44t-46 -18zM265 548l-97 -548h-91l97 548h91z" glyph-name="i" horiz-adv-x="246" unicode="i"/>
<glyph d="M238 637q-26 0 -38.5 16t-12.5 35q0 5 1 11q5 26 25.5 44t46.5 18t38.5 -15.5t12.5 -33.5q0 -6 -1 -13q-4 -26 -25 -44t-47 -18zM150 -119q-13 -73 -56 -107t-114 -34h-53l14 77h38q38 0 56 15t24 51l118 665h91z" glyph-name="j" horiz-adv-x="248" unicode="j"/>
<glyph d="M383 0l-172 242l-43 -242h-91l130 740h91l-76 -435l254 243h127l-307 -273l211 -275h-124z" glyph-name="k" horiz-adv-x="515" unicode="k"/>
<glyph d="M298 740l-130 -740h-91l130 740h91z" glyph-name="l" horiz-adv-x="246" unicode="l"/>
<glyph d="M834 558q64 0 109.5 -26.5t61 -69t15.5 -82.5q0 -27 -5 -57l-57 -323h-90l55 310q4 24 4 45q0 50 -28 87t-97 37q-71 0 -121 -45.5t-65 -131.5l-53 -302h-90l55 310q4 24 4 45q0 50 -28 87t-97 37q-71 0 -121 -45.5t-65 -131.5l-53 -302h-91l97 548h91l-14 -79 q34 43 83.5 66t104.5 23q69 0 116.5 -31t63.5 -91q33 58 91.5 90t123.5 32z" glyph-name="m" horiz-adv-x="1030" unicode="m"/>
<glyph d="M442 558q100 0 144.5 -52t44.5 -123q0 -28 -6 -60l-57 -323h-90l55 310q4 24 4 45q0 50 -28.5 87t-99.5 37q-72 0 -122 -45t-66 -131l-53 -303h-91l97 548h91l-14 -78q34 42 84.5 65t106.5 23z" glyph-name="n" unicode="n"/>
<glyph d="M314 -9q-77 0 -133 35t-75.5 87t-19.5 100q0 29 6 62q14 84 62 148.5t117 99t147 34.5t135 -34.5t78 -86.5t21 -101q0 -29 -6 -60q-15 -85 -64 -149.5t-119.5 -99.5t-148.5 -35zM329 71q49 0 96 23t81.5 69t46.5 112q4 25 4 47q0 36 -14.5 73.5t-52.5 60t-87 22.5 q-50 0 -95.5 -22.5t-78.5 -68.5t-44 -112q-5 -28 -5 -53q0 -33 13 -69.5t50 -59t86 -22.5z" glyph-name="o" unicode="o"/>
<glyph d="M247 447q35 47 94 78.5t130 31.5q73 0 126.5 -35t71.5 -86.5t18 -98.5q0 -29 -5 -61q-15 -83 -60.5 -148t-111.5 -101t-139 -36q-70 0 -117.5 31.5t-67.5 78.5l-64 -361h-91l143 808h91zM589 276q4 24 4 46q0 34 -13.5 71t-52 61t-89.5 24q-50 0 -96.5 -24.5t-80.5 -71 t-45 -107.5q-4 -23 -4 -44q0 -35 14 -73t52.5 -62.5t88.5 -24.5q51 0 97.5 24.5t80 71t44.5 109.5z" glyph-name="p" horiz-adv-x="676" unicode="p"/>
<glyph d="M92 276q14 84 59.5 147.5t111 98.5t139.5 35q71 0 119 -31.5t65 -77.5l18 100h92l-143 -808h-92l64 361q-34 -46 -94 -78t-132 -32t-124.5 36t-70.5 88t-18 97q0 31 6 64zM555 275q4 25 4 47q0 33 -13 70t-51.5 61.5t-89.5 24.5t-97 -24t-79 -70t-44 -108q-4 -25 -4 -48 q0 -34 13 -71t51 -61.5t89 -24.5t97.5 24.5t80 71t43.5 108.5z" glyph-name="q" horiz-adv-x="676" unicode="q"/>
<glyph d="M249 459q32 47 81 73t113 26l-16 -94h-24q-153 0 -182 -166l-53 -298h-91l97 548h91z" glyph-name="r" horiz-adv-x="373" unicode="r"/>
<glyph d="M269 -9q-63 0 -109 21.5t-66 56.5t-20 74q0 9 1 18h94v-7q0 -36 28.5 -61t84.5 -25q52 0 86 23t40 58q1 7 1 13q0 26 -26 42t-90 33q-58 16 -94 32.5t-54.5 44t-18.5 61.5q0 13 3 29q8 42 39 77t80.5 55.5t108.5 20.5q91 0 135 -42t44 -103q0 -13 -2 -27h-91q1 6 1 11 q0 35 -25 59.5t-78 24.5q-49 0 -82 -21t-39 -55q-1 -7 -1 -13q0 -18 12.5 -33.5t37.5 -26t69 -23.5q56 -16 90.5 -31.5t52.5 -42t18 -59.5q0 -12 -2 -26q-8 -45 -39 -81t-80.5 -56.5t-108.5 -20.5z" glyph-name="s" horiz-adv-x="522" unicode="s"/>
<glyph d="M271 473l-57 -323q-2 -13 -2 -24q0 -21 12 -35t54 -14h67l-14 -77h-82q-76 0 -103 29.5t-27 75.5q0 21 4 45l57 323h-71l14 75h71l24 138h91l-24 -138h143l-14 -75h-143z" glyph-name="t" horiz-adv-x="364" unicode="t"/>
<glyph d="M660 548l-97 -548h-91l14 81q-33 -42 -83.5 -65.5t-106.5 -23.5q-64 0 -110.5 26.5t-62.5 69t-16 83.5q0 26 5 56l57 321h90l-55 -309q-4 -24 -4 -44q0 -50 28.5 -87t99.5 -37q73 0 122.5 45t65.5 131l53 301h91z" glyph-name="u" unicode="u"/>
<glyph d="M296 84l252 464h97l-312 -548h-106l-118 548h98z" glyph-name="v" horiz-adv-x="561" unicode="v"/>
<glyph d="M904 548l-268 -548h-94l-55 435l-209 -435h-94l-75 548h93l45 -460l217 460h93l51 -461l206 461h90z" glyph-name="w" horiz-adv-x="820" unicode="w"/>
<glyph d="M363 0l-94 204l-161 -204h-95l225 272l-128 276h103l94 -203l160 203h95l-224 -271l128 -277h-103z" glyph-name="x" horiz-adv-x="479" unicode="x"/>
<glyph d="M646 548l-472 -806h-94l154 264l-125 542h101l93 -444l249 444h94z" glyph-name="y" horiz-adv-x="563" unicode="y"/>
<glyph d="M158 75h269l-13 -75h-373l13 75l337 399h-264l13 74h369l-13 -74z" glyph-name="z" horiz-adv-x="455" unicode="z"/>
<glyph d="M177 409q105 19 121 105q6 38 13 130q7 98 15 142q12 72 59.5 110t115.5 38h58l-14 -79h-41q-39 0 -61 -17.5t-29 -57.5q-6 -29 -9.5 -71.5t-4.5 -57.5q-7 -96 -15 -140q-9 -53 -42 -88.5t-90 -47.5v-2q53 -12 70 -42.5t17 -63.5q0 -15 -3 -31q-8 -44 -35 -140 q-4 -15 -15.5 -57.5t-16.5 -71.5q-2 -12 -2 -22q0 -23 13.5 -38t52.5 -15h41l-14 -79h-58q-68 0 -97.5 32.5t-29.5 78.5q0 17 4 37q8 44 35 142q26 92 33 130q2 11 2 22q0 67 -85 83z" glyph-name="braceleft" horiz-adv-x="462" unicode="{"/>
<glyph d="M172 -106h-91l159 901h91z" glyph-name="bar" horiz-adv-x="291" unicode="|"/>
<glyph d="M417 338q-106 -19 -121 -105q-7 -38 -13 -130q-7 -98 -15 -142q-13 -72 -60 -110t-115 -38h-58l14 79h41q39 0 61 17.5t29 57.5q5 29 8.5 71.5t5.5 57.5q7 96 15 140q9 53 42 89t90 48v2q-53 12 -70 42t-17 63q0 15 3 31q8 44 35 140q3 15 14.5 57.5t17.5 71.5q2 12 2 22 q0 23 -13.5 38t-52.5 15h-41l14 79h58q68 0 97 -33t29 -79q0 -17 -3 -36q-8 -44 -35 -142q-27 -92 -33 -130q-2 -12 -2 -23q0 -66 85 -82z" glyph-name="braceright" horiz-adv-x="462" unicode="}"/>
<glyph d="M81 248q51 146 166 146q27 0 47 -9.5t44 -27.5q21 -15 35.5 -22t31.5 -7q26 0 47.5 17.5t30.5 47.5h68q-50 -146 -167 -146q-26 0 -44.5 9t-44.5 27q-21 15 -35 22.5t-33 7.5q-26 0 -48 -17.5t-31 -47.5h-67z" glyph-name="asciitilde" horiz-adv-x="519" unicode="~"/>
<glyph glyph-name="uni00A0" horiz-adv-x="267" unicode=" "/>
<glyph d="M249 564q25 0 38 -16t13 -35q0 -5 -1 -11q-5 -26 -25.5 -44t-45.5 -18q-26 0 -39 16t-13 34q0 6 1 12q4 26 25 44t47 18zM172 361h76l-78 -500h-98z" glyph-name="exclamdown" horiz-adv-x="298" unicode="¡"/>
<glyph d="M336 80q61 0 104.5 27.5t62.5 76.5h85q-22 -74 -87 -123t-153 -56l-17 -94h-54l17 94q-107 9 -147.5 69.5t-40.5 129.5q0 27 5 58q19 107 91.5 177.5t182.5 79.5l16 92h54l-16 -92q85 -7 131 -54t46 -113v-11h-85q-3 48 -36.5 76t-94.5 28q-76 0 -132 -48.5t-71 -134.5 q-4 -24 -4 -45q0 -54 33.5 -95.5t109.5 -41.5z" glyph-name="cent" horiz-adv-x="665" unicode="¢"/>
<glyph d="M558 74l-13 -76h-446l-7 52q50 47 78 90t39 106q3 16 3 36q0 13 -1 26h-113l12 64h91q-7 35 -8 53.5t-1 24.5q0 27 6 58q11 64 47 111.5t90 73.5t118 26q102 0 142 -52.5t40 -118.5q0 -18 -3 -37h-84q2 15 2 28q0 40 -24 71.5t-87 31.5q-58 0 -100.5 -34t-54.5 -104 q-4 -25 -4 -48q0 -7 1 -25.5t8 -58.5h194l-12 -64h-174q1 -13 1 -26q0 -20 -3 -36q-16 -95 -101 -172h364z" glyph-name="sterling" horiz-adv-x="620" unicode="£"/>
<glyph d="M512 377q-10 -60 -50 -106l48 -59l-48 -42l-49 60q-53 -30 -111 -30q-60 0 -98 29l-69 -59l-35 42l70 59q-15 32 -15 70q0 17 3 36q11 62 51 107l-50 60l49 42l51 -61q48 29 107 29t98 -29l71 61l34 -42l-71 -60q18 -30 18 -69q0 -18 -4 -38zM313 259q42 0 77.5 31.5 t44.5 86.5q3 16 3 30q0 34 -20.5 61.5t-63.5 27.5q-42 0 -76 -31.5t-44 -87.5q-3 -16 -3 -30q0 -35 19.5 -61.5t62.5 -26.5z" glyph-name="currency" horiz-adv-x="537" unicode="¤"/>
<glyph d="M475 383h137l-12 -66l-173 -2l-37 -52l-7 -39h200l-11 -67h-200l-28 -157h-91l28 157h-200l11 67h200l7 39l-18 52l-172 2l12 66h137l-110 314h102l109 -352l233 352h102z" glyph-name="yen" horiz-adv-x="595" unicode="¥"/>
<glyph d="M240 795h91l-66 -378h-91zM172 -106h-91l67 379h91z" glyph-name="brokenbar" horiz-adv-x="291" unicode="¦"/>
<glyph d="M408 95q47 -23 66.5 -51t19.5 -59q0 -12 -2 -24q-7 -43 -38 -79t-81.5 -57t-112.5 -21q-92 0 -137.5 39.5t-45.5 96.5q0 14 2 29h91q-1 -6 -1 -12q0 -37 23 -63t80 -26q54 0 87 21.5t41 64.5q1 7 1 13q0 17 -9.5 33t-40.5 32.5t-92 37.5q-96 34 -133.5 71.5t-37.5 86.5 q0 14 3 30q10 56 53.5 99.5t113.5 62.5q-47 25 -66.5 52.5t-19.5 58.5q0 12 2 24q7 43 38 79t81.5 57t113.5 21q92 0 137 -39.5t45 -97.5q0 -14 -2 -29h-91q1 7 1 14q0 35 -22.5 61t-79.5 26q-54 0 -87.5 -21.5t-41.5 -62.5q-1 -7 -1 -13q0 -18 9.5 -34t40.5 -33t91 -38 q96 -33 133.5 -70t37.5 -86q0 -15 -3 -31q-9 -56 -52 -99t-114 -64zM184 258q-1 -9 -1 -18q0 -37 31.5 -67t100.5 -30q67 0 112.5 33.5t53.5 81.5q2 10 2 20q0 37 -31.5 65.5t-99.5 28.5t-113.5 -33t-54.5 -81z" glyph-name="section" horiz-adv-x="575" unicode="§"/>
<glyph d="M186 622q-22 0 -33.5 13t-11.5 29q0 5 1 10q4 22 22 37.5t40 15.5q21 0 32.5 -13.5t11.5 -29.5q0 -5 -1 -10q-4 -22 -22 -37t-39 -15zM348 622q-22 0 -33 13t-11 29q0 5 1 10q4 22 21.5 37.5t39.5 15.5t33.5 -13.5t11.5 -29.5q0 -5 -1 -10q-4 -22 -22 -37t-40 -15z" glyph-name="dieresis" horiz-adv-x="314" unicode="¨"/>
<glyph d="M521 704q101 0 172 -45.5t95 -110.5t24 -124q0 -36 -7 -75q-19 -103 -76.5 -183.5t-144.5 -126t-188 -45.5q-102 0 -173 45.5t-95 110.5t-24 123q0 36 7 76q18 103 76 183.5t145 126t189 45.5zM514 664q-93 0 -169 -39.5t-125.5 -110.5t-65.5 -165q-7 -38 -7 -73 q0 -49 19.5 -106t81.5 -97t155 -40q92 0 167.5 40t125 111.5t66.5 164.5q6 37 6 71q0 51 -19.5 108t-81 96.5t-153.5 39.5zM497 581q76 0 124.5 -39t54.5 -110h-84q-6 40 -34 61.5t-72 21.5q-60 0 -105.5 -43t-59.5 -123q-4 -25 -4 -47q0 -46 25 -82t85 -36q91 0 136 83h84 q-32 -68 -94 -108.5t-137 -40.5q-60 0 -104.5 28.5t-60.5 70.5t-16 81q0 24 5 52q12 70 50.5 122.5t92.5 80.5t114 28z" glyph-name="copyright" horiz-adv-x="792" unicode="©"/>
<glyph d="M126 530q10 52 39 93t71 63.5t89 22.5t77 -18.5t42 -48.5l11 61h72l-62 -350h-72l11 60q-21 -29 -58 -47.5t-83 -18.5q-48 0 -82.5 23.5t-46 57t-11.5 63.5q0 19 3 39zM201 529q-3 -16 -3 -30q0 -36 22.5 -65.5t69.5 -29.5q48 0 86 33.5t48 90.5q3 16 3 30q0 36 -22.5 65 t-70.5 29q-47 0 -85 -33t-48 -90z" glyph-name="ordfeminine" horiz-adv-x="450" unicode="ª"/>
<glyph d="M162 120l-65 175l127 175h89l-130 -175l68 -175h-89zM342 120l-64 175l126 175h90l-130 -175l68 -175h-90z" glyph-name="guillemotleft" horiz-adv-x="461" unicode="«"/>
<glyph d="M682 432l-37 -212h-91l24 140h-474l13 72h565z" glyph-name="logicalnot" horiz-adv-x="650" unicode="¬"/>
<glyph d="M528 405l-13 -77h-399l13 77h399z" glyph-name="uni00AD" horiz-adv-x="551" unicode="­"/>
<glyph d="M379 706q58 0 99.5 -26.5t56.5 -64.5t15 -73q0 -19 -4 -40q-11 -58 -45 -105t-85 -73.5t-109 -26.5q-59 0 -100 26.5t-55.5 64.5t-14.5 72q0 20 4 42q10 58 44 104.5t84.5 73t109.5 26.5zM314 337q72 0 125 46t66 119q3 18 3 35q0 50 -31.5 90t-103.5 40q-73 0 -125 -46 t-64 -119q-4 -20 -4 -38q0 -47 30.5 -87t103.5 -40zM441 544q-4 -24 -19.5 -40.5t-38.5 -23.5l41 -83l-63 -1l-34 80h-17l-14 -80h-52l38 215h96q34 0 49 -16t15 -38q0 -6 -1 -13zM318 519h41q11 0 19.5 6t10.5 17v5q0 7 -6 12t-17 5h-41z" glyph-name="registered" horiz-adv-x="509" unicode="®"/>
<glyph d="M494 709l-12 -68h-352l12 68h352z" glyph-name="macron" horiz-adv-x="387" unicode="¯"/>
<glyph d="M120 524q14 79 72 127t136 48t113.5 -42t35.5 -94q0 -19 -4 -39q-9 -53 -39 -93t-74.5 -62t-95.5 -22q-78 0 -113 42t-35 96q0 18 4 39zM400 524q3 17 3 32q0 35 -20 62.5t-65 27.5q-44 0 -79.5 -32.5t-45.5 -89.5q-3 -18 -3 -33q0 -36 19.5 -62.5t64.5 -26.5t80.5 32 t45.5 90z" glyph-name="degree" horiz-adv-x="410" unicode="°"/>
<glyph d="M452 377l-32 -182h211l-13 -77h-509l13 77h213l32 182h-213l14 77h213l30 170h85l-30 -170h211l-14 -77h-211z" glyph-name="plusminus" horiz-adv-x="686" unicode="±"/>
<glyph d="M361 411l-10 -59h-257l9 52l125 88q38 27 59.5 51.5t26.5 53.5q1 8 1 15q0 16 -10 29t-33 13q-24 0 -39.5 -13.5t-23.5 -37.5h-73q11 47 50 77t98 30q57 0 83 -28.5t26 -62.5q0 -9 -2 -19q-7 -38 -34 -67.5t-83 -65.5l-89 -56h176z" glyph-name="twosuperior" horiz-adv-x="330" unicode="²"/>
<glyph d="M135 611q12 44 53.5 71.5t99.5 27.5q56 0 86 -27t30 -60q0 -8 -2 -16q-5 -30 -25.5 -50t-50.5 -28v-2q26 -10 39 -28.5t13 -38.5q0 -7 -2 -16q-7 -41 -50.5 -69t-104.5 -28q-60 0 -89.5 26t-29.5 67q0 7 1 14h72v-3q0 -25 14 -37.5t41 -12.5q28 0 47 14t23 38q1 5 1 10 q0 17 -13.5 29.5t-41.5 12.5h-43l9 48h41q29 0 48 13t23 37q1 5 1 10q0 16 -12 29t-40 13q-26 0 -43.5 -12t-25.5 -32h-69z" glyph-name="threesuperior" horiz-adv-x="332" unicode="³"/>
<glyph d="M218 649l126 156l68 -63l-149 -132z" glyph-name="acute" horiz-adv-x="279" unicode="´"/>
<glyph d="M665 548l-97 -548h-91l18 100q-36 -54 -88.5 -81.5t-113.5 -27.5q-40 0 -70.5 15t-45.5 48l-56 -314h-90l143 808h90l-53 -300q-5 -28 -5 -51q0 -51 29 -89.5t100 -38.5t120.5 45t64.5 131l54 303h91z" glyph-name="uni00B5" horiz-adv-x="645" unicode="µ"/>
<glyph d="M518 0h-81l109 621h-77l-109 -621h-81l50 286h-11q-117 0 -161 49t-44 111q0 20 4 42q16 90 86.5 147t186.5 57h250z" glyph-name="paragraph" horiz-adv-x="596" unicode="¶"/>
<glyph d="M158 279q-26 0 -39 16t-13 35q0 5 1 11q5 26 26 44t47 18q25 0 37.5 -15.5t12.5 -33.5q0 -6 -1 -13q-4 -26 -25 -44t-46 -18z" glyph-name="periodcentered" horiz-adv-x="212" unicode="·"/>
<glyph d="M115 -58h4q56 0 82.5 -22.5t26.5 -55.5q0 -10 -2 -21q-8 -47 -47 -75t-93 -28h-115l11 59h97q33 0 50 10t21 34q1 5 1 10q0 15 -12 24t-45 9h-50l21 121h61z" glyph-name="cedilla" horiz-adv-x="272" unicode="¸"/>
<glyph d="M139 648l10 56h126l-62 -352h-72l52 296h-54z" glyph-name="onesuperior" horiz-adv-x="196" unicode="¹"/>
<glyph d="M126 528q10 54 41 95t77.5 63.5t98.5 22.5q53 0 91 -22.5t52 -56t14 -64.5q0 -18 -4 -38q-9 -53 -41 -94.5t-78.5 -64.5t-98.5 -23q-53 0 -90.5 23t-51 57t-13.5 66q0 17 3 36zM422 527q3 16 3 30q0 38 -23 66.5t-69 28.5q-47 0 -84.5 -33t-47.5 -92q-3 -17 -3 -31 q0 -36 21.5 -64t68.5 -28q46 0 85 33t49 90z" glyph-name="ordmasculine" horiz-adv-x="436" unicode="º"/>
<glyph d="M201 295l-68 175h89l65 -175l-127 -175h-89zM381 295l-67 175h89l65 -175l-127 -175h-89z" glyph-name="guillemotright" horiz-adv-x="461" unicode="»"/>
<glyph d="M152 648l10 56h126l-62 -352h-72l52 296h-54zM645 698l-497 -698h-86l497 698h86zM616 69h-48l-12 -69h-72l12 69h-183l8 42l200 242h97l-42 -237h48zM537 291l-142 -175h111z" glyph-name="onequarter" unicode="¼"/>
<glyph d="M204 648h-54l10 56h126l-62 -352h-72zM632 698l-488 -698h-87l489 698h86zM637 58l-10 -59h-257l9 52l125 88q37 27 59 51.5t27 53.5q1 8 1 15q0 16 -10 29t-33 13q-24 0 -40 -13.5t-23 -37.5h-73q10 47 49.5 77t98.5 30q57 0 83 -28.5t26 -62.5q0 -9 -2 -19 q-7 -38 -34.5 -67.5t-82.5 -65.5l-89 -56h176z" glyph-name="onehalf" horiz-adv-x="675" unicode="½"/>
<glyph d="M147 611q12 44 53.5 71.5t99.5 27.5q56 0 86 -27t30 -60q0 -8 -2 -16q-5 -30 -25.5 -50t-50.5 -28v-2q26 -10 39 -28.5t13 -38.5q0 -7 -2 -16q-7 -41 -50.5 -69t-104.5 -28q-60 0 -89.5 26t-29.5 67q0 7 1 14h72v-3q0 -25 14 -37.5t41 -12.5q28 0 47 14t23 38q1 5 1 10 q0 17 -13.5 29.5t-41.5 12.5h-43l9 48h41q29 0 48 13t23 37q1 5 1 10q0 16 -12 29t-40 13q-26 0 -43.5 -12t-25.5 -32h-69zM740 698l-512 -698h-85l511 698h86zM694 69h-47l-12 -69h-72l12 69h-183l8 42l200 242h97l-42 -237h47zM615 291l-142 -175h111z" glyph-name="threequarters" horiz-adv-x="709" unicode="¾"/>
<glyph d="M428 556q26 0 39 -15.5t13 -33.5q0 -6 -1 -13q-4 -26 -25.5 -44t-47.5 -18q-25 0 -37.5 16t-12.5 35q0 5 1 11q5 26 25.5 44t45.5 18zM239 -156q-99 0 -143.5 49t-44.5 112q0 22 4 45q18 105 92 155.5t185 50.5l20 95h79l-24 -158h-29q-99 0 -160.5 -30t-75.5 -113 q-3 -16 -3 -30q0 -39 26 -69.5t87 -30.5q62 0 103.5 33.5t51.5 91.5h86q-11 -60 -46 -105.5t-89 -70.5t-119 -25z" glyph-name="questiondown" horiz-adv-x="519" unicode="¿"/>
<glyph d="M516 155h-304l-83 -155h-96l374 693h105l129 -693h-96zM503 229l-64 352l-188 -352h252zM385 854l69 84l129 -118l-51 -60z" glyph-name="Agrave" horiz-adv-x="674" unicode="À"/>
<glyph d="M516 155h-304l-83 -155h-96l374 693h105l129 -693h-96zM503 229l-64 352l-188 -352h252zM389 799l126 156l68 -63l-149 -132z" glyph-name="Aacute" horiz-adv-x="674" unicode="Á"/>
<glyph d="M516 155h-304l-83 -155h-96l374 693h105l129 -693h-96zM503 229l-64 352l-188 -352h252zM324 760l-3 66l175 101h4l144 -101l-25 -66l-139 62z" glyph-name="Acircumflex" horiz-adv-x="674" unicode="Â"/>
<glyph d="M516 155h-304l-83 -155h-96l374 693h105l129 -693h-96zM503 229l-64 352l-188 -352h252zM313 798q6 15 16 34.5t22.5 37t28 29t33.5 11.5q19 0 36.5 -6.5t34.5 -14t33.5 -14t32.5 -6.5q20 0 34 11t19 31l58 -6q-6 -18 -15.5 -38t-23 -36.5t-31 -27.5t-38.5 -11 q-18 0 -33.5 6t-30.5 13.5t-30.5 13.5t-33.5 6t-31.5 -12.5t-20.5 -28.5z" glyph-name="Atilde" horiz-adv-x="674" unicode="Ã"/>
<glyph d="M392 767q-22 0 -33.5 13.5t-11.5 30.5q0 4 1 8q4 22 22.5 37.5t40.5 15.5q21 0 32 -13.5t11 -29.5q0 -5 -1 -10q-3 -22 -21.5 -37t-39.5 -15zM554 767q-22 0 -33 13.5t-11 29.5q0 5 1 9q4 22 22 37.5t40 15.5t33 -13.5t11 -29.5q0 -5 -1 -10q-3 -22 -21.5 -37t-40.5 -15z M516 155h-304l-83 -155h-96l374 693h105l129 -693h-96zM503 229l-64 352l-188 -352h252z" glyph-name="Adieresis" horiz-adv-x="674" unicode="Ä"/>
<glyph d="M596 857q-8 -48 -43.5 -76.5t-81.5 -28.5q-45 0 -68 25.5t-23 58.5q0 10 2 21q8 47 44.5 76t81.5 29q46 0 68 -25t22 -56q0 -11 -2 -24zM543 858q1 7 1 13q0 16 -11 29.5t-34 13.5t-41 -15.5t-23 -40.5q-1 -6 -1 -12q0 -17 11 -31t34 -14t41.5 16t22.5 41zM516 155h-304 l-83 -155h-96l374 693h105l129 -693h-96zM503 229l-64 352l-188 -352h252z" glyph-name="Aring" horiz-adv-x="674" unicode="Å"/>
<glyph d="M666 626l-42 -239h252l-12 -70h-252l-43 -245h282l-13 -72h-373l27 155h-267l-114 -155h-99l518 698h431l-13 -72h-282zM505 226l71 403l-298 -403h227z" glyph-name="AE" horiz-adv-x="900" unicode="Æ"/>
<glyph d="M404 73q76 0 136.5 33.5t100.5 96.5h109q-52 -92 -137 -146t-188 -62l-9 -53h4q56 0 82.5 -22.5t26.5 -55.5q0 -10 -2 -21q-8 -47 -47 -75t-93 -28h-115l11 59h97q33 0 50 10t21 34q1 5 1 10q0 15 -12 24t-45 9h-50l19 109q-90 6 -155 52.5t-88 110t-23 118.5q0 35 7 73 q18 102 78 183.5t147.5 127.5t184.5 46q114 0 189.5 -55t96.5 -156h-109q-18 63 -66.5 97t-124.5 34q-73 0 -137 -34t-108 -96.5t-58 -146.5q-6 -34 -6 -64q0 -44 17.5 -94t69.5 -84t125 -34z" glyph-name="Ccedilla" horiz-adv-x="772" unicode="Ç"/>
<glyph d="M278 623l-41 -233h254l-13 -75h-254l-43 -240h284l-13 -75h-375l123 698h375l-13 -75h-284zM305 854l69 84l129 -118l-51 -60z" glyph-name="Egrave" horiz-adv-x="513" unicode="È"/>
<glyph d="M278 623l-41 -233h254l-13 -75h-254l-43 -240h284l-13 -75h-375l123 698h375l-13 -75h-284zM308 799l126 156l68 -63l-149 -132z" glyph-name="Eacute" horiz-adv-x="513" unicode="É"/>
<glyph d="M278 623l-41 -233h254l-13 -75h-254l-43 -240h284l-13 -75h-375l123 698h375l-13 -75h-284zM243 760l-3 66l175 101h4l144 -101l-25 -66l-139 62z" glyph-name="Ecircumflex" horiz-adv-x="513" unicode="Ê"/>
<glyph d="M309 767q-22 0 -33.5 13.5t-11.5 30.5q0 4 1 8q4 22 22.5 37.5t40.5 15.5q21 0 32 -13.5t11 -29.5q0 -5 -1 -10q-3 -22 -21.5 -37t-39.5 -15zM471 767q-22 0 -33 13.5t-11 29.5q0 5 1 9q4 22 22 37.5t40 15.5t33 -13.5t11 -29.5q0 -5 -1 -10q-3 -22 -21.5 -37t-40.5 -15z M278 623l-41 -233h254l-13 -75h-254l-43 -240h284l-13 -75h-375l123 698h375l-13 -75h-284z" glyph-name="Edieresis" horiz-adv-x="513" unicode="Ë"/>
<glyph d="M291 697l-123 -697h-91l123 697h91zM171 854l69 84l129 -118l-51 -60z" glyph-name="Igrave" horiz-adv-x="246" unicode="Ì"/>
<glyph d="M291 697l-123 -697h-91l123 697h91zM174 799l126 156l68 -63l-149 -132z" glyph-name="Iacute" horiz-adv-x="246" unicode="Í"/>
<glyph d="M269 827l-154 -85l13 72l153 83l124 -83l-13 -72zM291 697l-123 -697h-91l123 697h91z" glyph-name="Icircumflex" horiz-adv-x="246" unicode="Î"/>
<glyph d="M177 767q-22 0 -33.5 13.5t-11.5 30.5q0 4 1 8q4 22 22.5 37.5t40.5 15.5q21 0 32 -13.5t11 -29.5q0 -5 -1 -10q-3 -22 -21.5 -37t-39.5 -15zM339 767q-22 0 -33 13.5t-11 29.5q0 5 1 9q4 22 22 37.5t40 15.5t33 -13.5t11 -29.5q0 -5 -1 -10q-3 -22 -21.5 -37t-40.5 -15z M291 697l-123 -697h-91l123 697h91z" glyph-name="Idieresis" horiz-adv-x="246" unicode="Ï"/>
<glyph d="M436 697q113 0 189 -42.5t100.5 -106.5t24.5 -123q0 -37 -7 -78q-19 -107 -77 -185.5t-149 -120t-204 -41.5h-217l54 305h-87l15 84h87l54 308h217zM325 70q134 0 218 73.5t107 203.5q7 37 7 69q0 82 -50 144.5t-184 62.5h-126l-41 -234h192l-15 -84h-192l-42 -235h126z " glyph-name="Eth" horiz-adv-x="725" unicode="Ð"/>
<glyph d="M338 752q16 51 47 78t71 27q19 0 31.5 -6.5t29.5 -18.5q12 -10 22 -15.5t23 -5.5q17 0 31 11t21 32h52q-15 -50 -47 -77t-72 -27q-19 0 -32 6.5t-29 19.5q-14 10 -23 15t-22 5q-17 0 -30.5 -11t-19.5 -33h-53zM625 0h-91l-268 555l-98 -555h-91l123 698h91l268 -554 l98 554h91z" glyph-name="Ntilde" horiz-adv-x="703" unicode="Ñ"/>
<glyph d="M392 -7q-97 0 -169 45.5t-98 112.5t-26 127q0 34 6 71q18 102 78.5 183.5t148.5 127t185 45.5q98 0 170 -45.5t98 -112t26 -127.5q0 -34 -6 -71q-19 -103 -79 -184t-148 -126.5t-186 -45.5zM406 72q73 0 137.5 34t109 97t59.5 146q5 32 5 61q0 47 -18 97.5t-70 84.5 t-126 34t-138 -34t-108.5 -96.5t-58.5 -146.5q-6 -33 -6 -63q0 -45 18 -95.5t70.5 -84.5t125.5 -34zM441 854l69 84l129 -118l-51 -60z" glyph-name="Ograve" horiz-adv-x="786" unicode="Ò"/>
<glyph d="M392 -7q-97 0 -169 45.5t-98 112.5t-26 127q0 34 6 71q18 102 78.5 183.5t148.5 127t185 45.5q98 0 170 -45.5t98 -112t26 -127.5q0 -34 -6 -71q-19 -103 -79 -184t-148 -126.5t-186 -45.5zM406 72q73 0 137.5 34t109 97t59.5 146q5 32 5 61q0 47 -18 97.5t-70 84.5 t-126 34t-138 -34t-108.5 -96.5t-58.5 -146.5q-6 -33 -6 -63q0 -45 18 -95.5t70.5 -84.5t125.5 -34zM445 799l126 156l68 -63l-149 -132z" glyph-name="Oacute" horiz-adv-x="786" unicode="Ó"/>
<glyph d="M392 -7q-97 0 -169 45.5t-98 112.5t-26 127q0 34 6 71q18 102 78.5 183.5t148.5 127t185 45.5q98 0 170 -45.5t98 -112t26 -127.5q0 -34 -6 -71q-19 -103 -79 -184t-148 -126.5t-186 -45.5zM406 72q73 0 137.5 34t109 97t59.5 146q5 32 5 61q0 47 -18 97.5t-70 84.5 t-126 34t-138 -34t-108.5 -96.5t-58.5 -146.5q-6 -33 -6 -63q0 -45 18 -95.5t70.5 -84.5t125.5 -34zM380 760l-3 66l175 101h4l144 -101l-25 -66l-139 62z" glyph-name="Ocircumflex" horiz-adv-x="786" unicode="Ô"/>
<glyph d="M392 -7q-97 0 -169 45.5t-98 112.5t-26 127q0 34 6 71q18 102 78.5 183.5t148.5 127t185 45.5q98 0 170 -45.5t98 -112t26 -127.5q0 -34 -6 -71q-19 -103 -79 -184t-148 -126.5t-186 -45.5zM406 72q73 0 137.5 34t109 97t59.5 146q5 32 5 61q0 47 -18 97.5t-70 84.5 t-126 34t-138 -34t-108.5 -96.5t-58.5 -146.5q-6 -33 -6 -63q0 -45 18 -95.5t70.5 -84.5t125.5 -34zM369 798q6 15 16 34.5t22.5 37t28 29t33.5 11.5q19 0 36.5 -6.5t34.5 -14t33.5 -14t32.5 -6.5q20 0 34 11t19 31l58 -6q-6 -18 -15.5 -38t-23 -36.5t-31 -27.5t-38.5 -11 q-18 0 -33.5 6t-30.5 13.5t-30.5 13.5t-33.5 6t-31.5 -12.5t-20.5 -28.5z" glyph-name="Otilde" horiz-adv-x="786" unicode="Õ"/>
<glyph d="M450 767q-22 0 -33.5 13.5t-11.5 30.5q0 4 1 8q4 22 22.5 37.5t40.5 15.5q21 0 32 -13.5t11 -29.5q0 -5 -1 -10q-3 -22 -21.5 -37t-39.5 -15zM612 767q-22 0 -33 13.5t-11 29.5q0 5 1 9q4 22 22 37.5t40 15.5t33 -13.5t11 -29.5q0 -5 -1 -10q-3 -22 -21.5 -37t-40.5 -15z M392 -7q-97 0 -169 45.5t-98 112.5t-26 127q0 34 6 71q18 102 78.5 183.5t148.5 127t185 45.5q98 0 170 -45.5t98 -112t26 -127.5q0 -34 -6 -71q-19 -103 -79 -184t-148 -126.5t-186 -45.5zM406 72q73 0 137.5 34t109 97t59.5 146q5 32 5 61q0 47 -18 97.5t-70 84.5t-126 34 t-138 -34t-108.5 -96.5t-58.5 -146.5q-6 -33 -6 -63q0 -45 18 -95.5t70.5 -84.5t125.5 -34z" glyph-name="Odieresis" horiz-adv-x="786" unicode="Ö"/>
<glyph d="M507 150l-131 159l-187 -159l-49 60l187 159l-128 156l68 59l129 -157l185 157l49 -60l-184 -157l130 -159z" glyph-name="multiply" horiz-adv-x="643" unicode="×"/>
<glyph d="M759 593q34 -47 43 -94t9 -80q0 -34 -6 -70q-19 -103 -79 -184t-148 -126.5t-186 -45.5q-63 0 -116 19.5t-92 55.5l-75 -68h-74l116 106q-34 48 -43.5 94t-9.5 79q0 34 7 70q18 102 78.5 183.5t148.5 127t185 45.5q63 0 116 -19.5t92 -55.5l75 68h74zM198 349 q-6 -34 -6 -65q0 -66 29 -115l437 400q-58 57 -155 57q-74 0 -138 -34t-108.5 -96.5t-58.5 -146.5zM712 349q5 33 5 62q0 67 -28 118l-438 -400q58 -57 155 -57q73 0 137.5 34t109 97t59.5 146z" glyph-name="Oslash" horiz-adv-x="786" unicode="Ø"/>
<glyph d="M289 697l-78 -441q-5 -28 -5 -51q0 -55 32 -93.5t113 -38.5q80 0 133.5 45t69.5 138l78 441h91l-78 -440q-15 -87 -60.5 -146.5t-110 -88.5t-138.5 -29t-128.5 29t-74 77t-19.5 95q0 30 6 63l78 440h91zM386 854l69 84l129 -118l-51 -60z" glyph-name="Ugrave" horiz-adv-x="675" unicode="Ù"/>
<glyph d="M289 697l-78 -441q-5 -28 -5 -51q0 -55 32 -93.5t113 -38.5q80 0 133.5 45t69.5 138l78 441h91l-78 -440q-15 -87 -60.5 -146.5t-110 -88.5t-138.5 -29t-128.5 29t-74 77t-19.5 95q0 30 6 63l78 440h91zM389 799l126 156l68 -63l-149 -132z" glyph-name="Uacute" horiz-adv-x="675" unicode="Ú"/>
<glyph d="M484 827l-154 -85l13 72l153 83l124 -83l-13 -72zM289 697l-78 -441q-5 -28 -5 -51q0 -55 32 -93.5t113 -38.5q80 0 133.5 45t69.5 138l78 441h91l-78 -440q-15 -87 -60.5 -146.5t-110 -88.5t-138.5 -29t-128.5 29t-74 77t-19.5 95q0 30 6 63l78 440h91z" glyph-name="Ucircumflex" horiz-adv-x="675" unicode="Û"/>
<glyph d="M392 767q-22 0 -33.5 13.5t-11.5 30.5q0 4 1 8q4 22 22.5 37.5t40.5 15.5q21 0 32 -13.5t11 -29.5q0 -5 -1 -10q-3 -22 -21.5 -37t-39.5 -15zM554 767q-22 0 -33 13.5t-11 29.5q0 5 1 9q4 22 22 37.5t40 15.5t33 -13.5t11 -29.5q0 -5 -1 -10q-3 -22 -21.5 -37t-40.5 -15z M289 697l-78 -441q-5 -28 -5 -51q0 -55 32 -93.5t113 -38.5q80 0 133.5 45t69.5 138l78 441h91l-78 -440q-15 -87 -60.5 -146.5t-110 -88.5t-138.5 -29t-128.5 29t-74 77t-19.5 95q0 30 6 63l78 440h91z" glyph-name="Udieresis" horiz-adv-x="675" unicode="Ü"/>
<glyph d="M688 697l-304 -434l-46 -263h-91l46 263l-151 434h101l110 -353l234 353h101zM344 799l126 156l68 -63l-149 -132z" glyph-name="Yacute" horiz-adv-x="584" unicode="Ý"/>
<glyph d="M605 349q-16 -88 -85.5 -145.5t-191.5 -57.5h-134l-26 -146h-91l123 698h91l-25 -145h134q118 0 163 -50.5t45 -114.5q0 -19 -3 -39zM341 219q75 0 117.5 34.5t53.5 95.5q3 16 3 29q0 42 -26.5 72.5t-101.5 30.5h-134l-46 -262h134z" glyph-name="Thorn" horiz-adv-x="579" unicode="Þ"/>
<glyph d="M159 561q16 93 86 151.5t186 58.5q69 0 114.5 -23t61.5 -56t16 -63q0 -12 -2 -24q-9 -48 -39 -81.5t-78 -68.5q-31 -23 -45.5 -37.5t-17.5 -30.5q-1 -4 -1 -7q0 -18 19 -32.5t80 -36.5q69 -24 91.5 -57t22.5 -72q0 -15 -3 -31q-13 -72 -71.5 -116.5t-147.5 -44.5 q-87 0 -130 44.5t-43 111.5q0 12 1 24h92q-1 -10 -1 -19q0 -36 22 -62t72 -26q47 0 76 21t35 60q2 10 2 19q0 23 -16 42t-67 37q-77 27 -103 54t-26 60q0 9 2 19q6 35 29.5 61t66.5 59q40 31 60.5 53t24.5 50q2 9 2 18q0 32 -27 55t-87 23q-143 0 -168 -144l-97 -550h-91z " glyph-name="germandbls" horiz-adv-x="681" unicode="ß"/>
<glyph d="M92 276q15 84 60 147.5t110.5 98.5t138.5 35q72 0 119.5 -31t65.5 -78l18 100h92l-97 -548h-92l18 102q-35 -48 -94.5 -79.5t-130.5 -31.5q-73 0 -125.5 36t-70.5 88t-18 97q0 31 6 64zM556 275q4 23 4 45q0 34 -13.5 71.5t-52 62t-89.5 24.5t-97 -24t-79 -70t-44 -108 q-4 -25 -4 -48q0 -34 13 -71t51 -61.5t89 -24.5t97.5 24.5t80 71t44.5 108.5zM360 704l69 84l129 -118l-51 -60z" glyph-name="agrave" horiz-adv-x="676" unicode="à"/>
<glyph d="M92 276q15 84 60 147.5t110.5 98.5t138.5 35q72 0 119.5 -31t65.5 -78l18 100h92l-97 -548h-92l18 102q-35 -48 -94.5 -79.5t-130.5 -31.5q-73 0 -125.5 36t-70.5 88t-18 97q0 31 6 64zM556 275q4 23 4 45q0 34 -13.5 71.5t-52 62t-89.5 24.5t-97 -24t-79 -70t-44 -108 q-4 -25 -4 -48q0 -34 13 -71t51 -61.5t89 -24.5t97.5 24.5t80 71t44.5 108.5zM364 649l126 156l68 -63l-149 -132z" glyph-name="aacute" horiz-adv-x="676" unicode="á"/>
<glyph d="M92 276q15 84 60 147.5t110.5 98.5t138.5 35q72 0 119.5 -31t65.5 -78l18 100h92l-97 -548h-92l18 102q-35 -48 -94.5 -79.5t-130.5 -31.5q-73 0 -125.5 36t-70.5 88t-18 97q0 31 6 64zM556 275q4 23 4 45q0 34 -13.5 71.5t-52 62t-89.5 24.5t-97 -24t-79 -70t-44 -108 q-4 -25 -4 -48q0 -34 13 -71t51 -61.5t89 -24.5t97.5 24.5t80 71t44.5 108.5zM299 610l-3 66l175 101h4l144 -101l-25 -66l-139 62z" glyph-name="acircumflex" horiz-adv-x="676" unicode="â"/>
<glyph d="M92 276q15 84 60 147.5t110.5 98.5t138.5 35q72 0 119.5 -31t65.5 -78l18 100h92l-97 -548h-92l18 102q-35 -48 -94.5 -79.5t-130.5 -31.5q-73 0 -125.5 36t-70.5 88t-18 97q0 31 6 64zM556 275q4 23 4 45q0 34 -13.5 71.5t-52 62t-89.5 24.5t-97 -24t-79 -70t-44 -108 q-4 -25 -4 -48q0 -34 13 -71t51 -61.5t89 -24.5t97.5 24.5t80 71t44.5 108.5zM288 648q6 15 16 34.5t22.5 37t28 29t33.5 11.5q19 0 36.5 -6.5t34.5 -14t33.5 -14t32.5 -6.5q20 0 34 11t19 31l58 -6q-6 -18 -15.5 -38t-23 -36.5t-31 -27.5t-38.5 -11q-18 0 -33.5 6 t-30.5 13.5t-30.5 13.5t-33.5 6t-31.5 -12.5t-20.5 -28.5z" glyph-name="atilde" horiz-adv-x="676" unicode="ã"/>
<glyph d="M368 622q-22 0 -33.5 13t-11.5 29q0 5 1 10q4 22 22 37.5t40 15.5q21 0 32.5 -13.5t11.5 -29.5q0 -5 -1 -10q-4 -22 -22 -37t-39 -15zM530 622q-22 0 -33 13t-11 29q0 5 1 10q4 22 21.5 37.5t39.5 15.5t33.5 -13.5t11.5 -29.5q0 -5 -1 -10q-4 -22 -22 -37t-40 -15z M92 276q14 84 59.5 147.5t111 98.5t138.5 35q72 0 119.5 -31t65.5 -78l18 100h92l-97 -548h-92l18 102q-35 -48 -94.5 -79.5t-130.5 -31.5q-73 0 -125.5 36t-70.5 88t-18 97q0 31 6 64zM555 275q4 25 4 47q0 33 -13 70t-51.5 61.5t-89.5 24.5t-97 -24t-79 -70t-44 -108 q-4 -25 -4 -48q0 -34 13 -71t51 -61.5t89 -24.5t97.5 24.5t80 71t43.5 108.5z" glyph-name="adieresis" horiz-adv-x="676" unicode="ä"/>
<glyph d="M572 712q-9 -48 -44.5 -76.5t-81.5 -28.5q-45 0 -67.5 25.5t-22.5 56.5q0 11 2 23q8 47 44 76t81 29q46 0 68.5 -25t22.5 -58q0 -11 -2 -22zM519 713q1 6 1 12q0 17 -11 30.5t-34 13.5t-41.5 -15.5t-22.5 -40.5q-1 -7 -1 -13q0 -16 11 -30t34 -14t41 16t23 41zM92 276 q14 84 59.5 147.5t111 98.5t138.5 35q72 0 119.5 -31t65.5 -78l18 100h92l-97 -548h-92l18 102q-35 -48 -94.5 -79.5t-130.5 -31.5q-73 0 -125.5 36t-70.5 88t-18 97q0 31 6 64zM555 275q4 25 4 47q0 33 -13 70t-51.5 61.5t-89.5 24.5t-97 -24t-79 -70t-44 -108 q-4 -25 -4 -48q0 -34 13 -71t51 -61.5t89 -24.5t97.5 24.5t80 71t43.5 108.5z" glyph-name="aring" horiz-adv-x="676" unicode="å"/>
<glyph d="M1107 297q-5 -29 -13 -54h-451q-1 -11 -1 -22q0 -42 18 -77.5t54.5 -55.5t80.5 -20q64 0 111 27.5t69 73.5h98q-36 -79 -109 -128.5t-168 -49.5q-67 0 -118 31t-70 84l-19 -106h-79l19 105q-39 -51 -99 -82.5t-129 -31.5q-73 0 -126 36t-71 88t-18 97q0 31 6 64 q14 84 60 147.5t112 98.5t142 35q67 0 114.5 -28.5t71.5 -81.5l18 101h76l-18 -101q90 110 228 110q76 0 128.5 -34.5t70 -83t17.5 -90.5q0 -25 -5 -52zM1015 309q4 20 4 37q0 30 -14 61.5t-50.5 52t-85.5 20.5q-72 0 -133 -46t-82 -125h361zM334 71q51 0 97.5 24.5t80 71 t43.5 108.5q4 25 4 47q0 33 -13 70t-51.5 61.5t-89.5 24.5t-97 -24t-79 -70t-44 -108q-4 -25 -4 -48q0 -34 13 -71t51 -61.5t89 -24.5z" glyph-name="ae" horiz-adv-x="1097" unicode="æ"/>
<glyph d="M322 68q60 0 105 28t69 80h98q-34 -78 -101 -127.5t-156 -56.5l-9 -50h4q56 0 82.5 -22.5t26.5 -55.5q0 -10 -2 -21q-8 -47 -47 -75t-93 -28h-115l11 59h97q33 0 50 10t21 34q1 5 1 10q0 15 -12 24t-45 9h-50l19 107q-68 7 -114.5 43.5t-61 85.5t-14.5 91q0 29 5 62 q15 85 60.5 148.5t112 98.5t144.5 35q101 0 158 -49t63 -136h-98q-6 50 -41 79t-95 29q-78 0 -135.5 -53.5t-75.5 -151.5q-5 -30 -5 -56q0 -60 32.5 -105.5t110.5 -45.5z" glyph-name="ccedilla" horiz-adv-x="607" unicode="ç"/>
<glyph d="M629 295q-5 -26 -13 -55h-438q-2 -14 -2 -27q0 -62 39 -103.5t111 -41.5q59 0 103.5 27.5t68.5 73.5h98q-36 -79 -111 -128.5t-173 -49.5q-78 0 -133 35t-74 87t-19 99q0 30 6 63q15 85 60 149t112.5 98.5t147.5 34.5q78 0 132 -34t72 -82.5t18 -91.5q0 -26 -5 -54z M538 314q4 20 4 37q0 29 -13.5 59.5t-49.5 50t-84 19.5q-69 0 -125.5 -44t-77.5 -122h346zM332 704l69 84l129 -118l-51 -60z" glyph-name="egrave" horiz-adv-x="620" unicode="è"/>
<glyph d="M629 295q-5 -26 -13 -55h-438q-2 -14 -2 -27q0 -62 39 -103.5t111 -41.5q59 0 103.5 27.5t68.5 73.5h98q-36 -79 -111 -128.5t-173 -49.5q-78 0 -133 35t-74 87t-19 99q0 30 6 63q15 85 60 149t112.5 98.5t147.5 34.5q78 0 132 -34t72 -82.5t18 -91.5q0 -26 -5 -54z M538 314q4 20 4 37q0 29 -13.5 59.5t-49.5 50t-84 19.5q-69 0 -125.5 -44t-77.5 -122h346zM336 649l126 156l68 -63l-149 -132z" glyph-name="eacute" horiz-adv-x="620" unicode="é"/>
<glyph d="M629 295q-5 -26 -13 -55h-438q-2 -14 -2 -27q0 -62 39 -103.5t111 -41.5q59 0 103.5 27.5t68.5 73.5h98q-36 -79 -111 -128.5t-173 -49.5q-78 0 -133 35t-74 87t-19 99q0 30 6 63q15 85 60 149t112.5 98.5t147.5 34.5q78 0 132 -34t72 -82.5t18 -91.5q0 -26 -5 -54z M538 314q4 20 4 37q0 29 -13.5 59.5t-49.5 50t-84 19.5q-69 0 -125.5 -44t-77.5 -122h346zM271 610l-3 66l175 101h4l144 -101l-25 -66l-139 62z" glyph-name="ecircumflex" horiz-adv-x="620" unicode="ê"/>
<glyph d="M339 622q-22 0 -33.5 13t-11.5 29q0 5 1 10q4 22 22 37.5t40 15.5q21 0 32.5 -13.5t11.5 -29.5q0 -5 -1 -10q-4 -22 -22 -37t-39 -15zM501 622q-22 0 -33 13t-11 29q0 5 1 10q4 22 21.5 37.5t39.5 15.5t33.5 -13.5t11.5 -29.5q0 -5 -1 -10q-4 -22 -22 -37t-40 -15z M629 295q-5 -26 -13 -55h-438q-2 -14 -2 -27q0 -62 39 -103.5t111 -41.5q59 0 103.5 27.5t68.5 73.5h98q-36 -79 -111 -128.5t-173 -49.5q-78 0 -133 35t-74 87.5t-19 100.5q0 29 5 61q15 85 60.5 149t113 98.5t147.5 34.5q78 0 132 -34t72 -82.5t18 -91.5q0 -26 -5 -54z M538 314q4 20 4 37q0 29 -13.5 59.5t-49.5 50t-84 19.5q-69 0 -125.5 -44t-77.5 -122h346z" glyph-name="edieresis" horiz-adv-x="620" unicode="ë"/>
<glyph d="M265 548l-97 -548h-91l97 548h91zM145 704l69 84l129 -118l-51 -60z" glyph-name="igrave" horiz-adv-x="246" unicode="ì"/>
<glyph d="M265 548l-97 -548h-91l97 548h91zM148 649l126 156l68 -63l-149 -132z" glyph-name="iacute" horiz-adv-x="246" unicode="í"/>
<glyph d="M243 682l-154 -85l13 72l154 83l123 -83l-13 -72zM265 548l-97 -548h-91l97 548h91z" glyph-name="icircumflex" horiz-adv-x="246" unicode="î"/>
<glyph d="M152 622q-22 0 -33.5 13t-11.5 29q0 5 1 10q4 22 22 37.5t40 15.5q21 0 32.5 -13.5t11.5 -29.5q0 -5 -1 -10q-4 -22 -22 -37t-39 -15zM314 622q-22 0 -33 13t-11 29q0 5 1 10q4 22 21.5 37.5t39.5 15.5t33.5 -13.5t11.5 -29.5q0 -5 -1 -10q-4 -22 -22 -37t-40 -15z M265 548l-97 -548h-91l97 548h91z" glyph-name="idieresis" horiz-adv-x="246" unicode="ï"/>
<glyph d="M574 660q86 -118 86 -259q0 -42 -8 -86q-19 -105 -68 -177.5t-119 -109.5t-151 -37q-79 0 -135 35.5t-74.5 88t-18.5 99.5q0 30 6 64q15 83 61 146.5t113 98.5t143 35q119 0 165 -92q-15 95 -71 172l-137 -44l9 50l99 32q-26 31 -62 64h93q34 -35 39 -41l139 44l-9 -51z M328 68q50 0 96.5 24t80.5 71t45 112q5 27 5 52q0 33 -13 70t-51 60.5t-88 23.5t-95.5 -23.5t-78.5 -69t-44 -110.5q-5 -28 -5 -53q0 -33 12.5 -70.5t49 -62t86.5 -24.5z" glyph-name="eth" horiz-adv-x="638" unicode="ð"/>
<glyph d="M282 607q16 51 47.5 78t71.5 27q19 0 31 -6.5t29 -18.5q12 -10 22 -15.5t23 -5.5q17 0 31 11t21 32h52q-15 -50 -46.5 -77t-71.5 -27q-19 0 -32.5 6.5t-29.5 19.5q-14 10 -22.5 15t-21.5 5q-17 0 -30.5 -11t-20.5 -33h-53zM442 558q100 0 144.5 -52t44.5 -123 q0 -28 -6 -60l-57 -323h-90l55 310q4 24 4 45q0 50 -28.5 87t-99.5 37q-72 0 -122 -45t-66 -131l-53 -303h-91l97 548h91l-14 -78q34 42 84.5 65t106.5 23z" glyph-name="ntilde" unicode="ñ"/>
<glyph d="M314 -9q-77 0 -133 35t-75.5 87t-19.5 100q0 29 6 62q14 84 62 148.5t117 99t147 34.5t135 -34.5t78 -86.5t21 -101q0 -29 -6 -60q-15 -85 -64 -149.5t-119.5 -99.5t-148.5 -35zM329 71q49 0 96 23t81.5 69t46.5 112q4 25 4 47q0 36 -14.5 73.5t-52.5 60t-87 22.5 q-50 0 -95.5 -22.5t-78.5 -68.5t-44 -112q-5 -28 -5 -53q0 -33 13 -69.5t50 -59t86 -22.5zM342 704l69 84l129 -118l-51 -60z" glyph-name="ograve" unicode="ò"/>
<glyph d="M314 -9q-77 0 -133 35t-75.5 87t-19.5 100q0 29 6 62q14 84 62 148.5t117 99t147 34.5t135 -34.5t78 -86.5t21 -101q0 -29 -6 -60q-15 -85 -64 -149.5t-119.5 -99.5t-148.5 -35zM329 71q49 0 96 23t81.5 69t46.5 112q4 25 4 47q0 36 -14.5 73.5t-52.5 60t-87 22.5 q-50 0 -95.5 -22.5t-78.5 -68.5t-44 -112q-5 -28 -5 -53q0 -33 13 -69.5t50 -59t86 -22.5zM346 649l126 156l68 -63l-149 -132z" glyph-name="oacute" unicode="ó"/>
<glyph d="M314 -9q-77 0 -133 35t-75.5 87t-19.5 100q0 29 6 62q14 84 62 148.5t117 99t147 34.5t135 -34.5t78 -86.5t21 -101q0 -29 -6 -60q-15 -85 -64 -149.5t-119.5 -99.5t-148.5 -35zM329 71q49 0 96 23t81.5 69t46.5 112q4 25 4 47q0 36 -14.5 73.5t-52.5 60t-87 22.5 q-50 0 -95.5 -22.5t-78.5 -68.5t-44 -112q-5 -28 -5 -53q0 -33 13 -69.5t50 -59t86 -22.5zM281 610l-3 66l175 101h4l144 -101l-25 -66l-139 62z" glyph-name="ocircumflex" unicode="ô"/>
<glyph d="M314 -9q-77 0 -133 35t-75.5 87t-19.5 100q0 29 6 62q14 84 62 148.5t117 99t147 34.5t135 -34.5t78 -86.5t21 -101q0 -29 -6 -60q-15 -85 -64 -149.5t-119.5 -99.5t-148.5 -35zM329 71q49 0 96 23t81.5 69t46.5 112q4 25 4 47q0 36 -14.5 73.5t-52.5 60t-87 22.5 q-50 0 -95.5 -22.5t-78.5 -68.5t-44 -112q-5 -28 -5 -53q0 -33 13 -69.5t50 -59t86 -22.5zM270 648q6 15 16 34.5t22.5 37t28 29t33.5 11.5q19 0 36.5 -6.5t34.5 -14t33.5 -14t32.5 -6.5q20 0 34 11t19 31l58 -6q-6 -18 -15.5 -38t-23 -36.5t-31 -27.5t-38.5 -11 q-18 0 -33.5 6t-30.5 13.5t-30.5 13.5t-33.5 6t-31.5 -12.5t-20.5 -28.5z" glyph-name="otilde" unicode="õ"/>
<glyph d="M351 629q-22 0 -33.5 13t-11.5 29q0 5 1 10q4 22 22 37.5t40 15.5q21 0 32.5 -13.5t11.5 -29.5q0 -5 -1 -10q-4 -22 -22 -37t-39 -15zM513 629q-22 0 -33 13t-11 29q0 5 1 10q4 22 21.5 37.5t39.5 15.5t33.5 -13.5t11.5 -29.5q0 -5 -1 -10q-4 -22 -22 -37t-40 -15z M314 -9q-77 0 -133 35t-75.5 87.5t-19.5 101.5q0 29 5 60q15 84 63 148.5t117 99t147 34.5t135 -34.5t77.5 -86.5t20.5 -100q0 -29 -6 -61q-14 -85 -63 -149.5t-119.5 -99.5t-148.5 -35zM329 71q49 0 96 23t81.5 69t45.5 112q5 26 5 50q0 34 -14.5 71t-52.5 59.5t-87 22.5 q-50 0 -95.5 -22.5t-78.5 -68.5t-45 -112q-4 -27 -4 -51q0 -35 12.5 -71.5t50 -59t86.5 -22.5z" glyph-name="odieresis" unicode="ö"/>
<glyph d="M427 520q-26 0 -39 16t-13 34q0 6 1 12q4 26 25.5 44t47.5 18q25 0 37.5 -16t12.5 -35q0 -5 -1 -11q-5 -26 -25.5 -44t-45.5 -18zM659 405l-13 -77h-510l13 77h510zM351 91q-26 0 -39 16t-13 34q0 6 1 12q5 26 26 44t47 18q25 0 37.5 -15.5t12.5 -33.5q0 -6 -1 -13 q-5 -26 -25.5 -44t-45.5 -18z" glyph-name="divide" horiz-adv-x="657" unicode="÷"/>
<glyph d="M613 468q25 -37 31.5 -72.5t6.5 -59.5q0 -29 -6 -61q-14 -85 -63 -149.5t-119.5 -99.5t-148.5 -35q-97 0 -161 55l-50 -46h-65l86 79q-25 38 -31.5 74.5t-6.5 62.5q0 28 5 59q15 84 63 148.5t117 99t147 34.5q101 0 165 -57l52 48h65zM184 275q-4 -26 -4 -49 q0 -46 17 -81l317 292q-41 41 -111 41q-50 0 -95.5 -22.5t-78.5 -68.5t-45 -112zM552 275q5 27 5 50q0 44 -17 76l-318 -292q41 -38 107 -38q49 0 96 23t81.5 69t45.5 112z" glyph-name="oslash" unicode="ø"/>
<glyph d="M660 548l-97 -548h-91l14 81q-33 -42 -83.5 -65.5t-106.5 -23.5q-64 0 -110.5 26.5t-62.5 69t-16 83.5q0 26 5 56l57 321h90l-55 -309q-4 -24 -4 -44q0 -50 28.5 -87t99.5 -37q73 0 122.5 45t65.5 131l53 301h91zM342 704l69 84l129 -118l-51 -60z" glyph-name="ugrave" unicode="ù"/>
<glyph d="M660 548l-97 -548h-91l14 81q-33 -42 -83.5 -65.5t-106.5 -23.5q-64 0 -110.5 26.5t-62.5 69t-16 83.5q0 26 5 56l57 321h90l-55 -309q-4 -24 -4 -44q0 -50 28.5 -87t99.5 -37q73 0 122.5 45t65.5 131l53 301h91zM346 649l126 156l68 -63l-149 -132z" glyph-name="uacute" unicode="ú"/>
<glyph d="M441 682l-154 -85l13 72l154 83l123 -83l-13 -72zM660 548l-97 -548h-91l14 81q-33 -42 -83.5 -65.5t-106.5 -23.5q-64 0 -110.5 26.5t-62.5 69t-16 83.5q0 26 5 56l57 321h90l-55 -309q-4 -24 -4 -44q0 -50 28.5 -87t99.5 -37q73 0 122.5 45t65.5 131l53 301h91z" glyph-name="ucircumflex" unicode="û"/>
<glyph d="M350 622q-22 0 -33.5 13t-11.5 29q0 5 1 10q4 22 22 37.5t40 15.5q21 0 32.5 -13.5t11.5 -29.5q0 -5 -1 -10q-4 -22 -22 -37t-39 -15zM512 622q-22 0 -33 13t-11 29q0 5 1 10q4 22 21.5 37.5t39.5 15.5t33.5 -13.5t11.5 -29.5q0 -5 -1 -10q-4 -22 -22 -37t-40 -15z M660 548l-97 -548h-91l14 81q-33 -42 -83.5 -65.5t-106.5 -23.5q-64 0 -110.5 26.5t-62.5 69t-16 83.5q0 26 5 56l57 321h90l-55 -309q-4 -24 -4 -44q0 -50 28.5 -87t99.5 -37q73 0 122.5 45t65.5 131l53 301h91z" glyph-name="udieresis" unicode="ü"/>
<glyph d="M646 548l-472 -806h-94l154 264l-125 542h101l93 -444l249 444h94zM307 649l126 156l68 -63l-149 -132z" glyph-name="yacute" horiz-adv-x="563" unicode="ý"/>
<glyph d="M244 432q36 56 95.5 90.5t131.5 34.5q73 0 126.5 -35t71.5 -86.5t18 -98.5q0 -29 -5 -61q-15 -83 -60.5 -148t-111.5 -101t-139 -36q-72 0 -118.5 35.5t-63.5 93.5l-67 -380h-91l176 1000h91zM589 276q4 24 4 46q0 34 -13.5 71t-52 61t-89.5 24q-50 0 -96.5 -24.5 t-80.5 -71t-45 -107.5q-4 -23 -4 -44q0 -35 14 -73t52.5 -62.5t88.5 -24.5q51 0 97.5 24.5t80 71t44.5 109.5z" glyph-name="thorn" horiz-adv-x="676" unicode="þ"/>
<glyph d="M265 548l-97 -548h-91l97 548h91z" glyph-name="dotlessi" horiz-adv-x="246" unicode="ı"/>
<glyph d="M177 610l-3 66l175 101h4l144 -101l-25 -66l-139 62z" glyph-name="circumflex" horiz-adv-x="417" unicode="ˆ"/>
<glyph d="M193 648q6 15 16 34.5t22.5 37t28 29t33.5 11.5q19 0 36.5 -6.5t34.5 -14t33.5 -14t32.5 -6.5q20 0 34 11t19 31l58 -6q-6 -18 -15.5 -38t-23 -36.5t-31 -27.5t-38.5 -11q-18 0 -33.5 6t-30.5 13.5t-30.5 13.5t-33.5 6t-31.5 -12.5t-20.5 -28.5z" glyph-name="tilde" horiz-adv-x="458" unicode="˜"/>
</font>
</defs>
</svg>
